<svg viewBox="0 0 24 24.035" xmlns="http://www.w3.org/2000/svg"><g data-name="Layer 2"><g data-name="Layer 1" fill="none" stroke="#ffffff" stroke-linecap="round" stroke-linejoin="round" class="stroke-000000"><path d="M8.558 18.553v-3h6v3M8.558 6.552h6v6h-6z"></path><path d="m5.521 5.526-.009-2.995A2.038 2.038 0 0 1 7.544.5h7.936a2.038 2.038 0 0 1 2.032 2.031v18.973a2.037 2.037 0 0 1-2.032 2.031H7.544a2.037 2.037 0 0 1-2.032-2.031v-7.952"></path><path d="M5.521 3.526h12v17h-12M6.557 7.552h-6M6.557 9.552h-4M6.557 11.552h-2"></path></g><path fill="none" d="M0 .021h24v24H0z" data-name="Layer 2"></path></g></svg>