<?xml version="1.0" ?><svg height="24" viewBox="0 0 24 24" width="24" xmlns="http://www.w3.org/2000/svg"><title/><g data-name="Layer 2" id="Layer_2"><g data-name="Layer 1" id="Layer_1-2"><path d="M9.88124,7.0708a16.50683,16.50683,0,0,0-.35433,3.48844,16.50683,16.50683,0,0,0,.35433,3.48844" fill="none" stroke="#000" stroke-linecap="round" stroke-linejoin="round"/><path d="M7.82717,7.464a17.24439,17.24439,0,0,0-.0148,6.11167" fill="none" stroke="#000" stroke-linecap="round" stroke-linejoin="round"/><path d="M7.82717,7.464,2.14452,8.53882A1.91378,1.91378,0,0,0,.6029,10.416v.00006a1.91369,1.91369,0,0,0,1.47255,1.86217l5.73691,1.29738" fill="none" stroke="#000" stroke-linecap="round" stroke-linejoin="round"/><polyline fill="none" points="7.827 7.464 9.867 7.078 15.164 4.13" stroke="#000" stroke-linecap="round" stroke-linejoin="round"/><polyline fill="none" points="15.164 16.989 9.867 14.04 7.812 13.576" stroke="#000" stroke-linecap="round" stroke-linejoin="round"/><ellipse cx="15.94052" cy="10.55926" fill="none" rx="2.49111" ry="6.76595" stroke="#000" stroke-linecap="round" stroke-linejoin="round"/><path d="M15.33242,9.47527a1.10732,1.10732,0,0,1,0,2.21465" fill="none" stroke="#000" stroke-linecap="round" stroke-linejoin="round"/><line fill="none" stroke="#000" stroke-linecap="round" stroke-linejoin="round" x1="23.27907" x2="20.50227" y1="10.48862" y2="10.48862"/><line fill="none" stroke="#000" stroke-linecap="round" stroke-linejoin="round" x1="22.86565" x2="20.18347" y1="14.93045" y2="13.91204"/><line fill="none" stroke="#000" stroke-linecap="round" stroke-linejoin="round" x1="22.86565" x2="20.18347" y1="6.04678" y2="7.0652"/><path d="M3.54932,12.61158v5.83856a1.35056,1.35056,0,0,0,.92924,1.28316h0a1.35056,1.35056,0,0,0,1.76081-1.45566L5.5685,13.06821Z" fill="none" stroke="#000" stroke-linecap="round" stroke-linejoin="round"/></g><g data-name="Layer 2" id="Layer_2-2"><rect fill="none" height="24" width="24"/></g></g></svg>