<svg viewBox="0 0 26648 26648" xml:space="preserve" xmlns="http://www.w3.org/2000/svg" shape-rendering="geometricPrecision" text-rendering="geometricPrecision" image-rendering="optimizeQuality" fill-rule="evenodd" clip-rule="evenodd"><circle cx="13324" cy="13324" r="13324" fill="#2a3f57" class="fill-154e5e"></circle><path d="m4190 5409 201-146 638 884-201 145zM5620 5292l245 38-124 801-245-38zM3842 6562l-41 244 799 135 41-245z" fill="#ffffff" class="fill-ffffff"></path><path d="M10650 4434h5541c618 0 1124 506 1124 1125v12782c0 618-506 1124-1124 1124h-5541c-619 0-1125-506-1125-1124V5559c0-619 506-1125 1125-1125z" fill="#edeeee" class="fill-edeeee"></path><path d="M10525 6463h5790c322 0 585 264 585 586v9802c0 322-263 585-585 585h-5790c-322 0-585-263-585-585V7049c0-322 263-586 585-586z" fill="#999999" class="fill-999999"></path><path d="M13420 17858c322 0 583 261 583 583 0 321-261 582-583 582s-583-261-583-582c0-322 261-583 583-583zM12570 5311h1700c87 0 158 71 158 158s-71 158-158 158h-1700c-87 0-158-71-158-158s71-158 158-158zM11088 5177c161 0 291 131 291 292s-130 291-291 291-292-130-292-291 131-292 292-292z" fill="#c4c5ca" class="fill-c4c5ca"></path><path d="m16276 20824 1220 720-531-2080-1178-2449-1246-2034c-318-662 535-1197 984-561l1455 1628 1292 1779c299-858 1264-983 1892-488 298-719 1210-772 1712-251 1196-443 1635 869 2052 2208 96 310 246 892 403 1537-1213 1774-2843 3240-4750 4256l-2839-1562-1815-1890-512-2135c459-660 1289-16 1861 1322z" fill="#ffc578" class="fill-ffc578"></path><path d="m17496 21544-531-2080-1178-2449-1246-2034c-77-159-85-311-48-441l1497 2292 1158 2588 348 2124z" fill="#f7b360" class="fill-f7b360"></path><path d="m9550 9139-1831 1719-1496 2342c-220 346-319 700-310 1109l136 6177-1400 2951c1187 1019 2555 1832 4049 2385l1461-4390c1352-1216 1751-2749 1749-4624-3-1798-136-4472-136-4472s-1310-242-1474 1470l-161 1675-755-49-244-3212 412-685V9139z" fill="#ffc578" class="fill-ffc578"></path><path d="m10994 23166-6411-2243-648 1854c1637 1626 3694 2829 5994 3434l1065-3045z" fill="#699cfa" class="fill-138794"></path><path d="m10835 22279-5519-1931-259 740 5519 1932z" fill="#ffffff" class="fill-ffffff"></path><path d="M11617 12324c-123 3102 431 6538-1540 8892l-100 763 182-547c1352-1216 1751-2749 1749-4624-3-1798-136-4472-136-4472s-60-11-155-12z" fill="#f7b360" class="fill-f7b360"></path><path d="M5767 6785h6276c267 0 486 219 486 487v2279c0 268-219 487-486 487l512 1127-1511-1127H5767c-268 0-487-219-487-487V7272c0-268 219-487 487-487z" fill="#79affe" class="fill-ff576b"></path><path d="M6670 7355c555 0 1005 450 1005 1005s-450 1005-1005 1005-1005-450-1005-1005 450-1005 1005-1005zM8246 7373h3649v169H8246zM8246 7975h3649v169H8246zM8246 8577h3649v169H8246zM8246 9179h2590v169H8246z" fill="#ffffff" class="fill-ffffff"></path><path d="M6241 8815h177l39-125c-94-80-159-225-159-338-95-10-158-213-95-284 27-32 68-30 95-1-183-269 61-479 209-411 1-1 1-2 2-4 60-140 360-191 500 30 98 155 114 212 216 162-31 108-100 169-184 194v29c27-29 68-31 95 1 63 71 0 274-95 284 0 109-60 248-150 330l36 133h180c113 0 218 39 300 106-180 204-444 332-737 332-292 0-553-127-733-328 82-69 189-110 304-110z" fill="#79affe" class="fill-ff576b"></path><path d="M20928 9252h-6276c-268 0-487 219-487 486v2280c0 268 219 487 487 487l-512 1127 1511-1127h5277c267 0 486-219 486-487V9738c0-267-219-486-486-486z" fill="#ffc42e" class="fill-ffc42e"></path><path d="M15805 9822c555 0 1005 450 1005 1005s-450 1005-1005 1005-1005-450-1005-1005 450-1005 1005-1005zM17381 9839h3649v170h-3649zM17381 10441h3649v170h-3649zM17381 11043h3649v170h-3649zM17381 11646h2590v169h-2590z" fill="#ffffff" class="fill-ffffff"></path><path d="M15376 11281h177l39-124c-94-81-159-226-159-338v-1c-94-9-158-212-95-283 28-32 68-30 95-1-183-269 61-479 209-411 1-1 1-3 2-4 60-140 360-191 500 30 98 155 114 212 216 161-30 109-100 170-184 195v29c27-29 68-31 95 1 63 71 0 274-95 283v1c0 109-60 248-150 330l36 132h180c113 0 218 40 300 107-180 203-444 332-737 332-292 0-553-127-733-328 83-69 189-111 304-111z" fill="#ffc42e" class="fill-ffc42e"></path><path d="m21999 7506 218 120-528 954-217-121zM22713 8750l71 238-778 229-70-238zM20808 7682l-239 67 218 780 239-67z" fill="#ffffff" class="fill-ffffff"></path></svg>