<svg viewBox="0 0 45 45" xml:space="preserve" xmlns="http://www.w3.org/2000/svg"><g fill="#010606" class="fill-3c3c3c"><path d="M13.141 14.898c.015.591.047 1.331.121 2.161-.466 1.15-.358 3.047.652 4.021.59 2.366 1.615 4.696 3.398 6.016 1.595 1.182 3.459 2.388 5.188 2.388s3.592-1.206 5.187-2.388c1.784-1.319 2.809-3.649 3.398-6.016 1.011-.975 1.118-2.871.653-4.021.072-.83.105-1.57.119-2.161a2.258 2.258 0 0 0-.657-4.422H31c0-3.753-3.807-9.06-8.501-9.06-4.695 0-8.502 5.307-8.502 9.06h-.2a2.266 2.266 0 0 0-2.265 2.265 2.26 2.26 0 0 0 1.609 2.157zM27.053 26.24c-1.455 1.077-3.135 2.179-4.553 2.179-1.419 0-3.098-1.102-4.553-2.179-1.34-.991-2.201-2.697-2.756-4.543 2.604.548 5.826-.895 7.309-.895s4.704 1.443 7.31.894c-.555 1.846-1.417 3.552-2.757 4.544zm-11.656-8.37c.732 0 5.263 1.399 5.263 1.399s-.666.727-2.631 1.199c-2.772.669-3.365-2.598-2.632-2.598zm11.574 2.599c-1.966-.473-2.631-1.199-2.631-1.199s4.529-1.399 5.263-1.399c.732-.001.139 3.266-2.632 2.598zm3.812-5.462c-.01.326-.026.695-.051 1.097a.934.934 0 0 0-.331.035c-1.865.533-7.901 1.999-7.901 1.999s-6.037-1.466-7.902-1.999a.933.933 0 0 0-.33-.035 34.863 34.863 0 0 1-.051-1.097h16.566z"></path><path d="M38.109 30.962c-.51-3.061-4.948-4.474-7.416-5.028-.61.964-1.316 1.757-2.125 2.354-1.788 1.324-3.908 2.679-6.068 2.679-2.161 0-4.281-1.354-6.07-2.679-.808-.598-1.514-1.391-2.124-2.354-2.468.555-6.905 1.968-7.416 5.028-.71 4.267-.888 8.44-.888 8.44s7.043 4.181 16.498 4.181c9.454 0 16.498-4.181 16.498-4.181s-.178-4.173-.889-8.44z"></path></g></svg>