<svg viewBox="0 0 64 64" xmlns="http://www.w3.org/2000/svg"><path d="m61.393 44.867 1.109-1.007a1 1 0 0 0 .15-1.31 11.586 11.586 0 0 0-1.5-1.752l-.002-.003a11.39 11.39 0 0 0-9.997-2.973l-3.898-12.18A4.5 4.5 0 0 0 45.5 17H34a1 1 0 0 0 0 2h7v5h-1a1 1 0 0 0-.997 1.08L40.437 43H34V32a5.006 5.006 0 0 0-5-5h-4.184A2.963 2.963 0 0 0 25 26V8a3.003 3.003 0 0 0-3-3H4a3.003 3.003 0 0 0-3 3v18a3.003 3.003 0 0 0 3 3h6v5.534a14.985 14.985 0 0 0-6.7 15.665 1 1 0 0 0 .98.801h4.781A9.058 9.058 0 0 0 18 59a8.937 8.937 0 0 0 8.94-8h18.12a8.998 8.998 0 1 0 16.333-6.133ZM43 19h2.5a2.5 2.5 0 0 1 0 5H43ZM15 7v4.586l-1.293-1.293a1 1 0 0 0-1.414 0L11 11.586V7ZM3 26V8a1 1 0 0 1 1-1h5v7a1 1 0 0 0 1.707.707L13 12.414l2.293 2.293A1 1 0 0 0 17 14V7h5a1 1 0 0 1 1 1v18a1 1 0 0 1-1 1H4a1 1 0 0 1-1-1Zm9 3h17a3.003 3.003 0 0 1 3 3v9.837a14.968 14.968 0 0 0-20-8.376ZM5 47.2a12.993 12.993 0 0 1 25.644-2.972 1 1 0 0 0 .974.772h9.902a1 1 0 0 0 .997-1.08L41.083 26h4.188l4.257 13.306a.991.991 0 0 0 1.214.66 9.418 9.418 0 0 1 9.026 2.275 9.775 9.775 0 0 1 .71.757L53.864 49H5.124A13.19 13.19 0 0 1 5 47.2ZM18 57a7.047 7.047 0 0 1-6.923-6h13.846A7.047 7.047 0 0 1 18 57Zm36 0a7.04 7.04 0 0 1-6.922-6h7.172a1 1 0 0 0 .672-.26l4.958-4.5A6.97 6.97 0 0 1 54 57ZM5 21a1 1 0 0 1 1-1h4a1 1 0 0 1 0 2H6a1 1 0 0 1-1-1Zm6 3a1 1 0 0 1-1 1H6a1 1 0 0 1 0-2h4a1 1 0 0 1 1 1Z" data-name="Layer 2" fill="#ffffff" class="fill-000000"></path></svg>