<svg id="Layer_1" version="1.1" viewBox="0 0 256 256" xml:space="preserve" xmlns="http://www.w3.org/2000/svg" enable-background="new 0 0 256 256"><path d="M156.04 240.47c-4.3-1.28-19.87-2.75-19.87-8.79h-18.22v16.48h41.93s.46-6.41-3.84-7.69z" fill="#1e2233" class="fill-2c2f3a"></path><path d="M117.27 248.16v3.85h15.42v-3.43l10.3 3.43h18.08v-3.85h-1.19z" fill="#fad570" class="fill-212121"></path><path d="m147.8 113.27-10.44 118.97h-20.51l-13.07-118.97z" fill="#1b5385" class="fill-215987"></path><path d="M147.64 243.67c-4.3-1.31-19.86-2.82-19.86-9.01h-18.22v16.89h41.93c0 .01.46-6.57-3.85-7.88z" fill="#373a47" class="fill-373a47"></path><path d="M108.87 251.56v3.94h15.43v-3.52l10.3 3.52h18.08v-3.94h-1.19z" fill="#fad570" class="fill-212121"></path><path d="m147.8 113.27-18.83 121.96h-20.51l-4.69-121.96z" fill="#346ba2" class="fill-346ba2"></path><path d="m147.49 115.28-.56 3.98h-42.92l-.24-3.98z" fill="#fad570" class="fill-212121"></path><path d="M109.32 113.27h1.92v7.8h-1.92zM127.6 113.27h1.92v7.8h-1.92zM119.23 121.27l2.13 20.37s6.39-10.39 5.95-20.37h-8.08z" fill="#1b5385" class="fill-215987"></path><path d="M156 40.08c0-.28-3.19-4.27-3.19-4.27l-1.03-3.15c-.18-.55-.49-1.05-.91-1.45l-3.39-3.24c-.74-.7-1.74-1.05-2.76-.96l-2.73.25-1.59-.8h-1.42l-2.39-1.31h-2.22l-6.55 11.16 8.54 5.35h10.19l1.88 2.74 7.57-4.32z" fill="#f1caab" class="fill-f1caab"></path><path d="m139.12 33.58-3.19 4.95-8.12-4.59 4.48-6.96 7.39 5.53z" fill="#35428f" class="fill-4c4f5e"></path><path d="m143.28 29.12-.21 2.37.48 1.42c.35 1.02-.23 2.12-1.26 2.41l-.38.11-1.24-3.46v-3.91l1.32-.79" fill="#f1caab" class="fill-f1caab"></path><path d="m138.97 26.47-.92.56v5.13l2.45 3.28s1.12-.8.64-2.13" fill="#f1caab" class="fill-f1caab"></path><path d="m143.28 29.12-.28 2.37v.02l.39 1.17c.15.39.22.77.14 1.17-.08.38-.28.74-.58 1-.29.27-.67.38-1.07.48l.14.07c-.39-1.16-.84-2.3-1.26-3.46l.01.03c-.02-1.3-.02-2.61-.05-3.91l-.02.04 1.3-.83-1.35.75-.02.01v.03c-.03 1.3-.03 2.61-.05 3.91v.02l.01.02c.41 1.16.79 2.32 1.22 3.47l.04.1.1-.03c.38-.1.83-.24 1.15-.54.33-.29.54-.69.62-1.11.08-.42-.02-.87-.17-1.25l-.41-1.17v.03l.14-2.39z" fill="#e6b68e" class="fill-e6b68e"></path><path d="m141.37 33.07.75 2.03s1.06-.63.9-1.33c-.16-.7-.55-1.22-.9-1.16-.36.06-.75.46-.75.46zM139.12 33.18l1.36 1.68s.8-.94.43-1.55-.91-.98-1.23-.81c-.31.18-.56.68-.56.68z" fill="#f4e3d7" class="fill-f4e3d7"></path><path d="m138.97 26.47-.94.52-.02.01v.02c-.06 1.71-.07 3.42-.08 5.13v.04l.02.03c.82 1.09 1.64 2.18 2.48 3.25l.05.06.06-.05c.32-.27.57-.61.68-1.01.12-.39.07-.82-.08-1.18.12.38.13.79-.01 1.16-.13.36-.38.69-.68.91l.11.02c-.79-1.11-1.6-2.21-2.41-3.3l.02.07c-.01-1.71-.02-3.42-.08-5.13l-.02.03.9-.58z" fill="#e6b68e" class="fill-e6b68e"></path><path d="m136.58 25.16-1.49 1.65.41 4.2 1.59 2.17s.88-.42.92-3.29" fill="#f1caab" class="fill-f1caab"></path><path d="M136.58 25.16c-.51.53-1.04 1.06-1.54 1.6l-.02.02v.03c.1 1.4.24 2.8.36 4.2v.03l.02.03 1.6 2.16.06.08.07-.05c.3-.21.41-.49.54-.76.11-.28.18-.57.24-.86.1-.58.11-1.17.1-1.76-.03.58-.1 1.17-.23 1.73-.07.28-.15.56-.26.82-.11.25-.28.52-.47.64l.12.03-1.57-2.18.02.06c-.15-1.4-.28-2.8-.46-4.19l-.02.06c.5-.54.97-1.12 1.44-1.69z" fill="#e6b68e" class="fill-e6b68e"></path><path d="m135.76 30.93 1.36 1.68s.8-.94.43-1.55c-.37-.61-.91-.98-1.23-.81-.31.18-.56.68-.56.68z" fill="#f4e3d7" class="fill-f4e3d7"></path><g opacity=".7"><path d="M138.8 30.43c.3.91.68 2.08.5 3.04-.18.95-1.13 1.81-1.89 2.32-1.84 1.25-4.14 1.64-6.31 1.88-.33.04-.66.06-.99.09l-2.3-1.44 6.55-11.16h1.95c.77 1.79 1.87 3.42 2.49 5.27z" fill="#f1caab" class="fill-f1caab"></path></g><path d="m111.29 41.67-15.02 6.78 7.51 33.25v31.57h44.02V70.52l-5.08-19.61-14.49-5.52-3.23-3.11z" fill="#27c2c2" class="fill-e50042"></path><path d="m130.11 46.11-1.21 9.19-2.41-10.29-1.49-1.77-11.39-5.43V30.4l16.86 4.2v7.07z" fill="#e6b68e" class="fill-e6b68e"></path><path d="m130.07 8.48 6.89 22.7c.54 1.77-.53 3.65-2.37 4.22l-5.68 1.72c-8.36 2.53-17.19-2.19-19.72-10.54l-3.27-10.77 24.15-7.33z" fill="#f1caab" class="fill-f1caab"></path><path d="m123.61 13.4-.39 1.22c-.75 2.34-.78 4.84-.06 7.19l.04.14-2.21.67s-1.27-4.37-3.91-3.75c-2.64.62-3.06 2.01-2.18 4.94l.97 3.2c.88 2.89-.76 5.95-3.65 6.83l-2.54.77-4.12-13.59 18.05-7.62z" fill="#262935" class="fill-262935"></path><path d="m117.4.97-7 2.12c-5.58 1.69-8.77 7.47-7.12 12.91l1.79 5.92 27.22-8.26-1.79-5.92c-1.66-5.43-7.52-8.46-13.1-6.77z" fill="#27c2c2" class="fill-e50042"></path><path d="M143.67 7.02c.49 1.61-2.32 3.89-6.27 5.09l-32.33 9.81-.89-2.92 39.49-11.98z" fill="#010606" class="fill-ce0045"></path><path d="m125 43.24-4.73 5.88-8.98-7.45 2.32-3.86zM130.11 46.11l2.54-3.26-2.18-1.56z" fill="#fad570" class="fill-f71c55"></path><path d="m132.65 42.85 1.96 6.27-4.5-3.01zM156.51 38.53l-9.47 5.17 10.4 15.32-14.72-8.11 4.63 23.64 22.15 2.2c6.48.64 10.64-6.73 6.73-11.94l-19.72-26.28z" fill="#010606" class="fill-ce0045"></path><path d="m157.44 59.02 6.21 8.07-20.93-16.18z" fill="#010606" class="fill-ce0045"></path><path d="m160.61 70.51-16-.83a.798.798 0 0 1-.66-.41.783.783 0 0 1 .01-.77l1.02-1.78c.15-.26.44-.43.73-.4l15.99.83c.28.01.52.17.65.41.13.24.13.53-.01.78l-1.02 1.78c-.14.25-.4.4-.69.4 0 0-.01 0-.02-.01zm1.43-2.35-.37-.28-16.06-.8-1.02 1.84c.01.02.03.03.05.03l16.06.8 1.02-1.78.32.19z" fill="#868ca5" class="fill-868ca5"></path><path d="m121.37 90.77 3.47-2.56 6.31-.31-6.31 4.5z" fill="#e6b68e" class="fill-e6b68e"></path><path d="m125.09 98.62 12.01-30.75c.19-.5.68-.81 1.22-.78l31.12 1.66c.88.05 1.43.98 1.04 1.78l-14.54 29.7c-.21.43-.65.7-1.14.69l-28.59-.61c-.86-.02-1.44-.89-1.12-1.69z" fill="#fad570" class="fill-d7a733"></path><path d="M135.24 84.94c.8-.49 1.84-.23 2.33.57s.23 1.84-.57 2.33l-11.96 7.27-1.76-2.89 11.96-7.28zM127.64 98.25l13.59-8.26c.42-.26.56-.81.3-1.23l-.95-1.57a.896.896 0 0 0-1.23-.3l-13.59 8.26 1.88 3.1zM139.07 91.72a1.54 1.54 0 0 1 2.11.51c.44.72.21 1.67-.51 2.11l-10.84 6.59-1.6-2.62 10.84-6.59z" fill="#f1caab" class="fill-f1caab"></path><path d="m135.58 97.43-6.54 7.27-8.11-1.17-1.56.51h-5.28l.95-8.61 6.33-4.66 5.64.11 4.14 7.01z" fill="#f1caab" class="fill-f1caab"></path><path d="M96.27 48.45s11.4 5.71 11.13 19.96c-.28 14.25-11.13 22.36-11.13 22.36l19.75 2.82v12.44l-25.87-.82c-8.16-.26-13.8-8.26-11.28-16.03 5.32-16.39 13.6-40 17.4-40.73z" fill="#010606" class="fill-ce0045"></path></svg>