<svg viewBox="0 0 64 64" xmlns="http://www.w3.org/2000/svg"><path d="M59.36 46.63a9.022 9.022 0 0 0-5.16-2.55L51.36 35H53a2.006 2.006 0 0 0 2-2v-3.72a2 2 0 0 0-.77-1.58 1.982 1.982 0 0 0-1.71-.36L45.88 29h-5.12l-1.16-4.06A4.993 4.993 0 0 0 44 20v-2h.92a1 1 0 0 0 .75-.34.977.977 0 0 0 .24-.8 8 8 0 1 0-14.32 5.93 8.029 8.029 0 0 0 .87.97l-1.47 2.55A15.177 15.177 0 0 0 29 33.75V36h-1.18a3 3 0 0 0 .18-1V17a3.009 3.009 0 0 0-3-3H7a3.009 3.009 0 0 0-3 3v18a3.009 3.009 0 0 0 3 3h9.18A2.98 2.98 0 0 0 19 42h2.68a11 11 0 0 0-4.64 8H12v2h4.99l-.01 3a.99.99 0 0 0 1 1H21a6 6 0 0 0 12 0h16a6 6 0 0 0 12 0 5.845 5.845 0 0 0-.35-2H61a1 1 0 0 0 1-1 8.941 8.941 0 0 0-2.64-6.37ZM53 29.28V33h-4.18a2.924 2.924 0 0 0-.29-2.6ZM44 31h2a1 1 0 0 1 0 2h-2.01Zm-29 1.17a2.958 2.958 0 0 1-2.12-.88l-2.83-2.83a3 3 0 0 1 0-4.24 3.075 3.075 0 0 1 4.24 0l.71.71 3.54-3.54a3 3 0 0 1 4.24 4.25l-5.66 5.65a2.958 2.958 0 0 1-2.12.88ZM19 40a1 1 0 0 1 0-2h10v1a3 3 0 0 0 .18 1Zm8 20a4 4 0 0 1-4-4h3v1h2v-1h3a4 4 0 0 1-4 4Zm10-14H26a5 5 0 0 0-5 5v3h-2.02l.01-3.01a9.005 9.005 0 0 1 9-8.99H37Zm-3.16-14.75 3.19 3.2-.67 1.55H31v-2.24a13.21 13.21 0 0 1 1.73-6.46l1.34-2.34a7.89 7.89 0 0 0 2.79.95.66.66 0 0 0 .14.01 1.023 1.023 0 0 0 .66-.25.423.423 0 0 0 .05-.07l.29 1.03a3.112 3.112 0 0 0-4.16 4.62ZM38 18h1v2h2v-2h1v2a3.009 3.009 0 0 1-3 3h-1Zm8 36h-7v-2h7Zm-7-4v-2h3a1 1 0 0 1 1 1v1Zm7.28 0H45v-1a3.014 3.014 0 0 0-2-2.83V41a5 5 0 0 0-4.48-4.95l.45-1.05h7.2l1.8 9.93Zm3.31 4H48v-2.84l1.95-5.84a1.055 1.055 0 0 0 .03-.5L48.2 35h1.07l4.05 12.99a2.969 2.969 0 0 1-.74 3.01ZM55 60a4 4 0 0 1-4-4 4.452 4.452 0 0 1 .07-.66L52.41 54h6.05a3.944 3.944 0 0 1 .54 2 4 4 0 0 1-4 4Z" fill="#ffffff" class="fill-000000"></path><path d="M21.66 23.51a1 1 0 0 1-.3.71l-5.65 5.66a1.008 1.008 0 0 1-1.42 0l-2.83-2.83a1.014 1.014 0 0 1 0-1.41.99.99 0 0 1 1.42 0l1.41 1.41a1.014 1.014 0 0 0 1.42 0l4.24-4.24a1.005 1.005 0 0 1 1.71.7ZM54 55h2v2h-2zM6 54h9v2H6zM2 54h2v2H2zM14 58h6v2h-6zM10 58h2v2h-2zM8 50h2v2H8zM6 58h2v2H6zM12 4h9v2h-9zM8 4h2v2H8zM20 8h6v2h-6zM16 8h2v2h-2zM12 8h2v2h-2z" fill="#ffffff" class="fill-000000"></path></svg>