<svg viewBox="0 0 1000 1000" xmlns="http://www.w3.org/2000/svg"><path d="M699 726.36c-7.6 27.62-16.67 56.24-36.93 76.5s-55.14 28.78-77.85 11.32c-11.71-9-18.32-23.12-28.91-33.4s-29.49-15.56-39.31-4.54c-4.7 5.27-5.36 14.51.17 18.89 7.18-7.54-1.64-22.64-11.73-20.09 9.7-16.19 19.22-33.75 18.63-52.61s-15.4-38.56-34.24-37.43a73.56 73.56 0 0 0-87.68-82.8c-15.35 3.18-31 13.27-33.7 28.71-5.48-15.46-21.2-27.46-37.56-26.2s-30.69 17.67-27.56 33.78c-8.7-14.62-28.36-18.61-45.28-16.69-14 1.58-28.49 6.86-36.46 18.44s-6 30.32 6.57 36.59c-8.37-5.74-21.64-1.71-25.39 7.72s3.1 21.48 13.13 23.06c-10.76-2.91-19.71 8.51-24.13 18.74-7.45 17.22-11.18 39.13 1.18 53.24 7 7.95 17.57 11.55 27.8 14.23A280.4 280.4 0 0 0 292.8 803c-11.06 14.87-17.35 34-13.94 52.21s17.77 34.74 36.07 37.71c-13.76.29-25.88 10.2-32.56 22.24s-8.85 26-10.62 39.63c-.32 2.48-.5 5.35 1.29 7.09 1.31 1.27 3.28 1.51 5.09 1.69 51 4.91 102.23 9.82 153.3 6 29.49-2.19 58.82-7.27 88.39-7 46 .35 91.69 13.58 137.6 10 40-3.13 81.29-18.73 118.8-4.61 6.45 2.43 12.67 5.72 19.49 6.74 10.08 1.5 20.12-2.13 29.94-4.86a176.72 176.72 0 0 1 72.42-4.63c23.14 3.35 51.25 9.61 66.27-8.3 6.16-7.34 8.28-17.21 9.35-26.74 2-18.21.74-37.64-9-53.19s-29.55-25.76-46.91-19.9c-6.65 2.24-13 7.42-13.77 14.39s6.7 14.29 13.07 11.36c3.1-1.43 5-4.66 6.12-7.88 7.38-20.85-10.25-44-31.52-50.1s-44 .38-64.57 8.51c11.92 3.91 20.13-14.74 13.81-25.58s-19.12-15.68-29.34-23c-22-15.64-32.08-42.74-41-68.2" fill="#ffffff" class="fill-ffffff"></path><path d="M699 744.9c-7.6 27.62-16.67 56.24-36.93 76.49s-55.14 28.79-77.85 11.33c-11.71-9-18.32-23.12-28.91-33.41s-29.49-15.56-39.31-4.53c-4.7 5.27-5.36 14.51.17 18.88 7.18-7.53-1.64-22.63-11.73-20.08 9.7-16.2 19.22-33.75 18.63-52.61s-15.41-38.56-34.25-37.43a73.56 73.56 0 0 0-87.68-82.8c-15.35 3.18-31 13.27-33.7 28.71C362 634 346.25 622 329.89 623.24S299.2 640.92 302.33 657c-8.7-14.63-28.36-18.61-45.28-16.7-14 1.59-28.49 6.87-36.46 18.45s-6 30.32 6.57 36.59c-8.37-5.74-21.64-1.71-25.39 7.72s3.1 21.48 13.13 23.06c-10.76-2.92-19.71 8.51-24.13 18.74-7.45 17.22-11.18 39.13 1.18 53.24 7 8 17.57 11.54 27.8 14.22a280.41 280.41 0 0 0 73.05 9.15c-11.06 14.87-17.35 34-13.94 52.21s17.77 34.74 36.07 37.71c-13.76.29-25.88 10.2-32.56 22.24s-13.27 23.38-15 37c-.32 2.48 9.47 1.75 11.26 0 10-9.69 10.66-.17 12.48 0 51 4.91 89.29 2.67 140.36-1.11 29.49-2.19 54.32.89 83.89 1.11 46 .36 96.19 5.43 142.1 1.84 40-3.13 62.16-18 99.66-3.94 6.45 2.43 28.36 2.18 35.18 3.2 10.08 1.5 20.12-2.13 29.94-4.86 23.48-6.53 57 .28 81.09 3.76 23.14 3.35 48.93 0 65.38-.26 9.58-.15 4-12.24 5-21.76 2-18.21.74-37.65-9-53.19s-29.55-25.76-46.91-19.9c-6.65 2.24-13 7.42-13.77 14.39s6.7 14.29 13.07 11.36c3.1-1.43 5-4.66 6.12-7.88 7.38-20.85-10.25-44-31.52-50.1s-44 .38-64.57 8.5c11.92 3.92 20.13-14.73 13.81-25.57s-19.12-15.68-29.34-23c-22-15.64-32.08-42.74-41-68.2" fill="#ddede8" class="fill-ddede8"></path><path d="M965.52 958c8.62-9.08 10.84-20.86 12.05-32.91 1.35-13.47.18-26-4.4-38.76a61.12 61.12 0 0 0-20.35-27.88c-4.5-3.41-10.4-4.66-15.82-5.88a39.28 39.28 0 0 0-16-.37c-9.86 1.85-21.05 9.28-20.81 20.49.2 9.58 11.22 18.26 20.07 12.47 8.5-5.55 9.46-19.45 7.63-28.38-2.1-10.3-9.08-20.1-17.19-26.58-10.88-8.68-24.39-12.18-38.19-12-7.58.13-14.94 1.55-22.36 3-8.15 1.61-16.18 5.52-23.87 8.67-2.94 1.2-3.62 5.74 0 6.68 11.48 3 19-7.85 20-18.1 1.31-13.59-10.1-22.45-20.46-28.92-6.49-4-13-7.89-18.52-13.23a84.16 84.16 0 0 1-14.06-18.17 184.18 184.18 0 0 1-10.07-20.72c-3.28-7.61-5.3-15.64-8.72-23.13-2.1-4.59-9.09-1.27-7.93 3.35 1.62 6.46 4.52 12.6 6.94 18.83a160.85 160.85 0 0 0 8.09 17.91c6.14 11.63 14.05 22.55 24.45 30.69 9.82 7.67 23.25 12 30.79 22.28a16 16 0 0 1 2.1 15.32c-1.73 4.67-5.5 8.87-10.83 7.31v6.68a187.11 187.11 0 0 1 30.44-8.6c10.57-2 21.71-2.31 32.12.7 15.5 4.47 30 18.85 30.6 35.62.14 3.81-.37 8.06-2.25 11.44-3 5.34-9.33 4.46-10.88-1.52-2.57-10 12.18-15 19.49-15.13 9-.21 15.76 4.17 23.21 8.57 8.13 4.8 13.51 14.15 16.52 22.81 3.51 10.1 3.91 22.31 3.51 32.92-.42 11-1.73 23.18-7.91 32.57-1 1.57 1.31 3.36 2.6 2zM697.41 725.92c-11.43 37.22-27.58 82.46-70.15 92.42a53.27 53.27 0 0 1-26.75-.26c-9.65-2.78-17.19-9-23.64-16.51-12-13.93-21.38-31.41-41.21-34.59-8.46-1.35-17.5.69-23 7.65-5.34 6.72-5.71 17.15.89 23.14 1.41 1.28 3.93 1.6 5.3 0 9.69-11.31-1.36-28.81-15.49-26.78l4.74 6.17c11.91-18 22.61-41.17 17.65-63.32-3.86-17.23-18.22-33.28-36.9-32.7l3.72 4.88c3.65-26.39-6-54-26.8-71.09-20.33-16.65-50.42-23.24-75.23-13.23-12.52 5-23.76 14.52-26.63 28.23H371c-6.4-17.29-23.81-31.54-43-28.91-18.12 2.47-32.52 20.34-29.55 38.55l7.41-3.12c-14.29-22.81-48.5-23-70.63-13-11.58 5.23-21.2 14.9-23.08 27.84-1.64 11.34 2.51 23.47 12.95 29.13 4.68 2.53 8.67-4.31 4.17-7.13-10.53-6.6-26-2.38-31.05 9.19-5.24 11.95 3.07 26.6 15.61 29.16 5.2 1.06 7.45-6.81 2.21-8-25.76-5.93-36.19 34.92-35.64 53.49.36 12.28 5.47 23.54 15.72 30.63 12 8.31 28.14 10.94 42.21 13.5a301 301 0 0 0 54.5 5l-2.83-4.94c-12.16 16.62-19.13 38.52-13.42 58.92 4.92 17.56 19.18 32.67 37.41 36.09l.95-7c-33.05 1.34-45.45 39.13-47.33 66.72-.49 7.23 3.72 10.79 10.53 11.58 9.79 1.13 19.62 2 29.44 2.92 19.3 1.84 38.61 3.41 58 4.14 21.86.82 44.1 1.46 65.87-.75 5.44-.56 5.68-8.92 0-8.68-21 .88-41.86 1.71-62.92.87s-42-2.4-62.91-4.19q-7.85-.67-15.7-1.38c-3.22-.29-13.55.49-14.34-3.23s1.1-9.61 1.75-13.46a118.3 118.3 0 0 1 3-13.46c4.69-16.19 16.25-33 34.65-33.92 3.8-.19 5.13-6.29.95-7-16.52-2.92-29.11-16.36-33.16-32.37-4.64-18.38 2.1-37.58 12.88-52.46 1.49-2.05-.52-4.9-2.8-4.89a270.28 270.28 0 0 1-51.89-4.42c-14.47-2.74-33.15-5.37-44.35-15.85-10.8-10.12-10.37-26-6.79-39.26a63.5 63.5 0 0 1 7.93-18.13c3.4-5.17 9.2-11.85 16.1-10.43l2.21-8c-7.71-1.56-13.67-10.39-10.17-18.06 3.24-7.1 13-9.06 19.23-5.14l4.17-7.13c-8.13-4.39-10.65-14.23-8.65-22.83 2.49-10.71 12.09-17.72 22-21.22 17.78-6.29 45-6.68 56.26 11.32 2.56 4.07 8.14 1.29 7.41-3.13-2.37-14.41 10.17-28.09 24.37-28.83 14.81-.76 28.13 9.86 33.28 23.31 1.17 3.07 6.34 3.93 7.12 0 2.85-14.36 16.26-22.8 29.71-25.91 14.73-3.4 30.81-1.35 44.5 5 27.49 12.68 43.93 43 39.89 73-.32 2.35.94 5 3.72 4.89 16.36-.58 28.06 14.89 30.18 29.92 2.76 19.52-9.4 37.69-18.18 54.14a4.25 4.25 0 0 0 4.74 6.17c6.52-1.58 12.2 8.35 8 13.39h5.3c-7.64-6.8.57-17.08 8.46-18.5 8.69-1.57 18.18 2.65 24.6 8.32 14 12.39 20.32 31.49 38 39.94 15.06 7.19 32.78 6.19 48.06.17 16.7-6.58 29.72-18.62 39.37-33.59 12.12-18.8 18-40.52 23.25-62a1.66 1.66 0 0 0-3.19-.88z" fill="#1a1c3f" class="fill-1a1c3f"></path><path d="M205.16 969.83Q202.67 910 204 850.11c.12-5 .34-10.22 3.14-14.31 4.13-6 12.26-7.48 18.56-11.21 16.3-9.59 18.56-30.22 19.3-47.2q1.3-29.29 1.51-58.62c.09-13.85-.17-29.46 15.1-35.29 16.13-6.17 33.59-9.08 50.72-10.57a346.13 346.13 0 0 1 100.4 6.4 204.71 204.71 0 0 1 22.85 6c41.68 14 32.09 118.39 32.15 160 .06 42.69-.16 82.65.59 125.33" fill="#ffffff" class="fill-ffffff"></path><path d="M213.19 969.83q-2.5-59.82-1.14-119.72c.11-5 .34-10.22 3.14-14.31 4.12-6 12.25-7.48 18.55-11.21C250 815 252.28 794.37 253 777.39q1.32-29.29 1.51-58.62c.09-13.85-.16-29.46 15.1-35.29 16.13-6.17 33.59-9.08 50.73-10.57a346.08 346.08 0 0 1 100.39 6.4 204.14 204.14 0 0 1 22.85 6c41.69 14 32.09 118.39 32.15 160 .06 42.69-.16 82.65.59 125.33" fill="#010606" class="fill-4747e2"></path><path d="M206.78 969.83c-.13-33.26-.7-66.5-.11-99.76.13-7.2.17-14.43.52-21.62.18-3.77.45-7.86 2.74-11 2.07-2.87 5.47-4.42 8.61-5.83 10.56-4.76 18.73-10.29 23.61-21.21 4.26-9.52 5.47-20.09 6-30.41.87-15.81 1.24-31.67 1.49-47.51.18-11.17-1.55-24.44 2.47-35.15 2.18-5.82 6.42-9.09 12.09-11.25a142.6 142.6 0 0 1 23.25-6.38c30.49-6 62.57-5.83 93.34-2.2a300.31 300.31 0 0 1 46.91 9c7.74 2.2 14 4.7 19.22 11 10.15 12.31 13.32 30 15.32 45.37 2.5 19.09 2.82 38.42 2.61 57.65-.23 20.83-.89 41.63-.9 62.46q0 53.88.36 107.74c0 5.12 8.09 5.13 8 0-1.43-53.7-1.12-107.49-.12-161.2.38-20.12.36-40.33-1.79-60.35-1.82-17.1-4.87-35.59-14.12-50.44-3.67-5.89-8.54-11.21-14.73-14.49-11.35-6-25.67-7.9-38.16-10.14-31.78-5.71-64.42-7.4-96.56-4-15.6 1.66-31.45 4.39-46.1 10.17-10.07 4-15.27 12.34-16.76 22.82-1.95 13.76-.85 28.21-1.17 42.08-.35 14.63-.26 29.52-2 44.07-1.41 11.86-5.06 24.83-15.58 31.78-5 3.31-11.06 4.7-16 8.22a19.53 19.53 0 0 0-7.92 13.8c-1.08 7.87-.59 16.11-.65 24q-.11 13 0 25.95c.11 17 .6 33.93 1.26 50.88.34 8.66.92 17.28 1.59 25.93.16 2 3.25 2.11 3.24 0z" fill="#1a1c3f" class="fill-1a1c3f"></path><path d="M133.92 826.84a384.82 384.82 0 0 1 69.56 6.95c5.57 1.07 11.45 2.45 15.45 6.47 6.64 6.68 5.48 17.6 3.59 26.82a503.16 503.16 0 0 1-27 89.14c.74 1.76 2.42 2.91 3.73 4.3s2.32 3.51 1.36 5.16-3.1 1.83-4.94 1.88l-36.58 1a3.89 3.89 0 0 1-2.11-.34c-1.29-.74-1.31-2.57-1.17-4q2.39-24.9 4.76-49.81c1.2-12.6 2.78-26.11 11.15-35.61-5.75 2.94-12.41 3.4-18.86 3.54-8.25.17-16.49-.08-24.74-.33a58.6 58.6 0 0 1-12.89-1.35c-12.8-3.3-21.8-14.71-28.19-26.27" fill="#ffffff" class="fill-ffffff"></path><path d="M124.44 826.84a384.82 384.82 0 0 1 69.56 6.95c5.57 1.07 11.45 2.45 15.45 6.47 6.64 6.68 5.48 17.6 3.59 26.82a503.16 503.16 0 0 1-27 89.14c.74 1.76 2.42 2.91 3.74 4.3s2.31 3.51 1.35 5.16-3.1 1.83-4.94 1.88l-36.58 1a3.89 3.89 0 0 1-2.11-.34c-1.29-.74-1.31-2.57-1.17-4l4.76-49.81c1.2-12.6 2.78-26.11 11.15-35.61-5.75 2.94-12.41 3.4-18.86 3.54-8.25.17-16.49-.08-24.74-.33a58.67 58.67 0 0 1-12.89-1.35c-12.8-3.3-21.79-14.71-28.19-26.27" fill="#eab642" class="fill-eab642"></path><g fill="#1a1c3f" class="fill-1a1c3f"><path d="M133.92 828.68c23.77.69 47.86 3.14 71.1 8.3 4.87 1.08 10.12 2.59 13.16 6.87s3.09 9.72 2.65 14.63c-1 10.71-4.12 21.53-6.77 31.92q-4.25 16.59-9.61 32.88-2.69 8.13-5.64 16.18-1.32 3.57-2.68 7.12c-1 2.62-3.35 6.48-3.56 9.25-.18 2.44 5.87 7.28 4.55 8.65-1 1-7 .27-8.22.3l-9.62.26-16.37.44c-4.1.11-4.3.88-3.95-3.21.28-3.19.62-6.38.93-9.57q1.85-19.17 3.69-38.32c1.13-11.63 2.49-24.15 10.28-33.44a3.08 3.08 0 0 0-3.72-4.82c-7.66 3.55-16.69 2.93-24.92 2.74-8-.17-16.12-.17-24-1.16-14.65-1.83-23.76-13.35-30.64-25.42-2.62-4.61-9.69-.48-7.11 4.16C91 870 102 883.08 118.31 885.21c9.42 1.23 19.32.78 28.81.62 9-.16 17.83-.51 26.11-4.41l-3.71-4.82c-7.34 8.78-9.9 19.49-11.26 30.63-1.66 13.51-2.65 27.12-3.93 40.68-.55 5.81-2.37 12.77-1.49 18.58.83 5.5 5.62 5.09 10.07 5l19.25-.56 10.59-.3c2.47-.07 5.43.16 7.71-1a6.21 6.21 0 0 0 2.86-8.08c-.94-2.38-4-3.86-4.25-6.25-.07-.61 1.28-3.21 1.41-3.54.94-2.36 1.85-4.73 2.75-7.1q7.4-19.59 13.16-39.75c3.73-13.06 7.3-26.38 9.59-39.78 1.54-9.08 2-19.83-5-26.87-4.07-4.06-9.76-5.71-15.23-6.84-7.71-1.58-15.56-2.78-23.37-3.73a380.87 380.87 0 0 0-48.46-2.69 1.84 1.84 0 0 0 0 3.68z"></path><path d="M181.55 866.19c-6 3.94-13.32 7.74-15.15 15.32-.62 2.53 2.61 4.68 4.52 2.64 4.52-4.84 8-10.51 12.81-15.13 1.45-1.4-.44-4-2.18-2.83zM467.75 845.35c-.06-41.65 9.53-146.06-32.15-160a204.71 204.71 0 0 0-22.85-6h-.16a65.55 65.55 0 0 0-33.41 1.77q-3.49 1.13-6.93 2.43c-15.26 5.83-15 21.44-15.1 35.29q-.19 29.33-1.51 58.62c-.76 17-3.06 37.58-19.3 47.2-6.3 3.73-14.43 5.17-18.56 11.21-2.79 4.09-3 9.36-3.13 14.31q-1.36 59.86 1.14 119.72l152.54.49c-.74-42.62-.52-82.47-.58-125.04z"></path><path d="M470.84 845.35c0-28.19 1.87-56.32 0-84.5-1-14.51-2.66-29.23-6.84-43.21-3.24-10.86-8.2-22.16-17.16-29.51-5.12-4.21-11-6.15-17.35-8-10.63-3-21.69-5.75-32.81-5.32-10.09.39-22.36 2.71-30.86 8.48-6.6 4.47-9.76 11.69-10.91 19.36-1.41 9.45-.83 19.25-1 28.78q-.29 19-1 38.1c-.71 17.82-.54 42-18.1 52.34-8.52 5-18.85 6.69-22 17.48-1.74 6-1.27 12.57-1.38 18.69q-.19 11-.27 21.95-.3 44.91 1.57 89.79a3.15 3.15 0 0 0 3.1 3.09l133.9.44 18.64.06a3.14 3.14 0 0 0 3.1-3.1c-.72-41.65-.53-83.31-.59-125 0-4-6.19-4-6.19 0 .06 41.66-.12 83.32.59 125l3.09-3.09-133.9-.44-18.64-.06 3.09 3.1q-1.54-37.4-1.61-74.82 0-18.46.31-36.92c.1-5.52-.44-11.69 1.16-17 1.68-5.62 6.64-8 11.61-10.2 7.4-3.27 13.67-7 18.42-13.75s7.15-15 8.42-23c3.28-20.8 2.63-42.59 2.93-63.58.13-9.37-.71-19.36 1.15-28.6 2.06-10.23 8.34-14.48 17.86-17.58a64.29 64.29 0 0 1 32.79-2c8.83 1.77 19.11 3.4 27 7.87 9.3 5.25 14.52 15.57 17.85 25.31 4.39 12.88 6.3 26.55 7.43 40.06 2.49 29.94.41 59.84.41 89.81 0 3.95 6.19 3.96 6.19-.03z"></path></g><path d="M260.23 711.87q36.19-1.29 72.42-1.76c3 0 6.51.14 8.34 2.54 1.45 1.91 1.31 4.54 1.1 6.93L335.7 792c-.27 3.15-.73 6.65-3.18 8.64-2 1.59-4.68 1.76-7.21 1.86-19.52.79-39.12 1.58-58.56-.33-2.87-.29-6.25-1-7.35-3.67a8.16 8.16 0 0 1-.42-2.87 721.62 721.62 0 0 1 2.5-83.31" fill="#ffffff" class="fill-ffffff"></path><path d="M268.87 711.87q36.19-1.29 72.42-1.76c3 0 6.5.14 8.33 2.54 1.46 1.91 1.31 4.54 1.1 6.93L344.34 792c-.28 3.15-.74 6.65-3.19 8.64-2 1.59-4.68 1.76-7.2 1.86-19.52.79-39.12 1.58-58.57-.33-2.87-.29-6.25-1-7.34-3.67a8.16 8.16 0 0 1-.43-2.87 723.87 723.87 0 0 1 2.5-83.31" fill="#ff810a" class="fill-34c6a0"></path><path d="M255.28 713.37c19.5-.46 39-.41 58.49-.59l13.88-.12c4.88 0 11.62-1.49 11.85 5.47.17 4.94-1.08 10.23-1.54 15.16-.51 5.54-.89 11.1-1.33 16.65-.85 10.78-1.56 21.54-2.58 32.31-.4 4.19.3 11.46-2.14 15.07-2.78 4.12-12.11 2.55-16.36 2.68-10.75.34-21.49.65-32.24.32-5.19-.16-10.43-.36-15.59-1-2.79-.31-4.92-.52-5.82-3.7-.81-2.86-.16-6.94-.21-9.92-.34-24.49.4-49 2.38-73.39.28-3.34-4.89-3.3-5.19 0A695.85 695.85 0 0 0 256 791.7c.09 3.95-.34 8.29 3.11 11 3.63 2.83 9.2 2.64 13.53 3a376.77 376.77 0 0 0 39.05.36c8-.26 21.82 1.77 25.46-7.55 1.7-4.36 1.44-9.63 1.82-14.23.53-6.53 1-13.07 1.68-19.59 1.4-13 2.81-26.08 3.77-39.16.33-4.43 1.68-10.2-1.13-14.13-2.15-3-5.82-3.62-9.27-3.74-12.67-.44-25.53.4-38.19.75-13.5.37-27 .8-40.5 1.42-2.3.11-2.33 3.66 0 3.61z" fill="#1a1c3f" class="fill-1a1c3f"></path><g fill="#ffffff" class="fill-ffffff"><path d="m269.06 784.57.74.27a6.08 6.08 0 0 0 1.12.18 1.67 1.67 0 0 0 1.2-.5 1.76 1.76 0 0 0 .46-1 1.68 1.68 0 0 0-1.21-1.85 8 8 0 0 0-1.89-.24 1.57 1.57 0 0 0-1.55 1.37 1.6 1.6 0 0 0 1.13 1.74zM280.71 785.56a1.66 1.66 0 0 0 0-3.31 1.66 1.66 0 0 0 0 3.31zM291.93 784.91a1.59 1.59 0 0 0 0-3.17 1.59 1.59 0 0 0 0 3.17zM305.79 784.82l.42-.44a1.94 1.94 0 0 0 .49-1.86 2 2 0 0 0-.88-1.14 1.42 1.42 0 0 0-.71-.23 1.4 1.4 0 0 0-.76 0 2 2 0 0 0-1.34 1.34l-.11.62-.07.46a1.45 1.45 0 0 0 .15.66.86.86 0 0 0 .23.39 1.36 1.36 0 0 0 .48.44 2.22 2.22 0 0 0 .87.24 1.29 1.29 0 0 0 .67-.15 1.35 1.35 0 0 0 .56-.36zM314.09 785a1.62 1.62 0 0 0 0-3.24 1.62 1.62 0 0 0 0 3.24z"></path></g><path d="m235.08 828-9.59-17.31a3.85 3.85 0 0 0-1-1.3 3.72 3.72 0 0 0-2.7-.35c-2.77.36-5.8.91-8.2-.53a7 7 0 0 1-2.57-2.91 10.18 10.18 0 0 1 1.27-10.6 12.24 12.24 0 0 1 9.9-4.44 7.13 7.13 0 0 1 3.49.89 7 7 0 0 1 2.38 2.66 10.9 10.9 0 0 1 1.43 7 7.75 7.75 0 0 1-4.08 5.74" fill="#eab642" class="fill-eab642"></path><path d="M236.6 827.57c-1.91-5.1-4.36-10-6.63-14.92-1.95-4.25-3.55-7.24-8.6-6.8-3 .26-6.53 1.45-8-2.35-1.09-2.89.41-6.34 2.73-8.08 2.09-1.57 6.08-3 8.46-1.2 3.22 2.45 2.59 8.21-.59 10.21s-.25 6.79 2.84 4.87c6.34-3.93 7.36-12.5 2.61-18.25s-14.24-3.58-18.77 1.34-5.07 14.39 1.07 18.53c3.45 2.33 8.24.19 11 2.21 2.28 1.66 3.85 5.15 5.35 7.47 1.81 2.78 3.58 5.55 5.59 8.19 1 1.28 3.59.62 2.89-1.22z" fill="#1a1c3f" class="fill-1a1c3f"></path><path d="M221.76 794.22c-2 .24-4.11.49-5.56 2s-2.69 4.83-.34 6.34a2.21 2.21 0 0 0 2.67-.34 3.37 3.37 0 0 0 .73-1.2 8.45 8.45 0 0 0 .06-1.21c0 .25.15-.29.1-.18a1.36 1.36 0 0 1 .34-.48 10.57 10.57 0 0 1 2.78-2.09c1.23-.72.81-3.08-.78-2.89z" fill="#ffffff" class="fill-ffffff"></path><path d="M238.42 823.5a35.67 35.67 0 0 1-3.86 2.71c-1.05.64-2.68 2-3.92 2.1-2.73.17-2.72 4.48 0 4.25 4-.32 7.43-4.1 10-6.87a1.55 1.55 0 0 0-2.19-2.19z" fill="#1a1c3f" class="fill-1a1c3f"></path><path d="m260.07 828-9.58-17.31a4 4 0 0 0-1-1.3 3.73 3.73 0 0 0-2.7-.35c-2.77.36-5.8.91-8.2-.53a6.9 6.9 0 0 1-2.57-2.91 10.2 10.2 0 0 1 1.26-10.6 12.27 12.27 0 0 1 9.91-4.44 6.15 6.15 0 0 1 5.87 3.55 10.9 10.9 0 0 1 1.43 7 7.75 7.75 0 0 1-4.08 5.74" fill="#eab642" class="fill-eab642"></path><path d="M261.6 827.57c-1.92-5.1-4.36-10-6.63-14.92-1.95-4.25-3.55-7.24-8.6-6.8-3 .26-6.53 1.45-8-2.35-1.09-2.89.41-6.34 2.73-8.08 2.09-1.57 6.08-3 8.46-1.2 3.21 2.45 2.59 8.21-.59 10.21s-.25 6.79 2.84 4.87c6.33-3.93 7.35-12.5 2.61-18.25s-14.24-3.58-18.77 1.34-5.07 14.39 1.06 18.53c3.45 2.33 8.25.19 11 2.21 2.28 1.66 3.85 5.15 5.35 7.47 1.8 2.78 3.58 5.55 5.59 8.19 1 1.28 3.59.62 2.89-1.22z" fill="#1a1c3f" class="fill-1a1c3f"></path><path d="M246.76 794.22c-2 .24-4.11.49-5.56 2s-2.69 4.83-.34 6.34a2.21 2.21 0 0 0 2.67-.34 3.35 3.35 0 0 0 .72-1.2 7.25 7.25 0 0 0 .07-1.21c0 .25.15-.29.1-.18a1.36 1.36 0 0 1 .34-.48 10.57 10.57 0 0 1 2.78-2.09c1.23-.72.81-3.08-.78-2.89z" fill="#ffffff" class="fill-ffffff"></path><path d="M263.42 823.5a35.67 35.67 0 0 1-3.86 2.71c-1.05.64-2.68 2-3.93 2.1-2.73.17-2.72 4.48 0 4.25 4-.32 7.44-4.1 10-6.87a1.55 1.55 0 0 0-2.19-2.19z" fill="#1a1c3f" class="fill-1a1c3f"></path><path d="m285.07 828-9.58-17.31a4 4 0 0 0-1-1.3 3.73 3.73 0 0 0-2.7-.35c-2.77.36-5.8.91-8.2-.53a6.9 6.9 0 0 1-2.57-2.91 10.18 10.18 0 0 1 1.26-10.6 12.25 12.25 0 0 1 9.9-4.44 7.17 7.17 0 0 1 3.5.89 7 7 0 0 1 2.37 2.66 10.85 10.85 0 0 1 1.44 7 7.77 7.77 0 0 1-4.08 5.74" fill="#eab642" class="fill-eab642"></path><path d="M286.6 827.57c-1.92-5.1-4.36-10-6.63-14.92-2-4.25-3.55-7.24-8.6-6.8-3 .26-6.54 1.45-8-2.35-1.1-2.89.41-6.34 2.72-8.08 2.09-1.57 6.08-3 8.47-1.2 3.21 2.45 2.59 8.21-.59 10.21s-.25 6.79 2.84 4.87c6.33-3.93 7.35-12.5 2.61-18.25s-14.24-3.58-18.78 1.34-5.07 14.39 1.07 18.53c3.45 2.33 8.25.19 11 2.21 2.29 1.66 3.86 5.15 5.36 7.47 1.8 2.78 3.57 5.55 5.59 8.19 1 1.28 3.58.62 2.89-1.22z" fill="#1a1c3f" class="fill-1a1c3f"></path><path d="M271.75 794.22c-2 .24-4.1.49-5.55 2s-2.69 4.83-.34 6.34a2.21 2.21 0 0 0 2.67-.34 3.5 3.5 0 0 0 .72-1.2c.14-.49 0-.76.07-1.21 0 .25.15-.29.09-.18a1.5 1.5 0 0 1 .34-.48 10.79 10.79 0 0 1 2.79-2.09c1.22-.72.81-3.08-.79-2.89z" fill="#ffffff" class="fill-ffffff"></path><path d="M288.42 823.5a36.68 36.68 0 0 1-3.86 2.71c-1.05.64-2.68 2-3.93 2.1-2.73.17-2.72 4.48 0 4.25 4-.32 7.43-4.1 10-6.87a1.55 1.55 0 0 0-2.19-2.19z" fill="#1a1c3f" class="fill-1a1c3f"></path><path d="m310.07 828-9.59-17.31a3.82 3.82 0 0 0-1-1.3 3.73 3.73 0 0 0-2.7-.35c-2.78.36-5.8.91-8.2-.53a7 7 0 0 1-2.58-2.91 10.2 10.2 0 0 1 1.28-10.6 12.25 12.25 0 0 1 9.9-4.44 7.17 7.17 0 0 1 3.5.89 7.08 7.08 0 0 1 2.37 2.66 10.84 10.84 0 0 1 1.43 7 7.76 7.76 0 0 1-4.07 5.74" fill="#eab642" class="fill-eab642"></path><path d="M311.6 827.57c-1.92-5.1-4.37-10-6.64-14.92-1.94-4.25-3.54-7.24-8.59-6.8-3 .26-6.54 1.45-8-2.35-1.1-2.89.41-6.34 2.72-8.08 2.09-1.57 6.08-3 8.47-1.2 3.21 2.45 2.58 8.21-.59 10.21s-.26 6.79 2.84 4.87c6.33-3.93 7.35-12.5 2.61-18.25s-14.24-3.58-18.78 1.34-5.07 14.39 1.07 18.53c3.45 2.33 8.25.19 11 2.21 2.29 1.66 3.85 5.15 5.36 7.47 1.8 2.78 3.57 5.55 5.58 8.19 1 1.28 3.59.62 2.9-1.22z" fill="#1a1c3f" class="fill-1a1c3f"></path><path d="M296.75 794.22c-2 .24-4.1.49-5.56 2s-2.68 4.83-.33 6.34a2.19 2.19 0 0 0 2.66-.34 3.37 3.37 0 0 0 .73-1.2c.14-.49 0-.76.07-1.21-.05.25.15-.29.09-.18a1.5 1.5 0 0 1 .34-.48 10.91 10.91 0 0 1 2.78-2.09c1.23-.72.81-3.08-.78-2.89z" fill="#ffffff" class="fill-ffffff"></path><path d="M313.42 823.5a36.68 36.68 0 0 1-3.86 2.71c-1.05.64-2.68 2-3.93 2.1-2.73.17-2.72 4.48 0 4.25 4-.32 7.43-4.1 10-6.87a1.55 1.55 0 0 0-2.19-2.19z" fill="#1a1c3f" class="fill-1a1c3f"></path><g fill="#ffffff" class="fill-ffffff"><path d="M272.65 733.5a1.69 1.69 0 0 0 0-3.38 1.69 1.69 0 0 0 0 3.38zM279 733.54a1.73 1.73 0 0 0 0-3.46 1.73 1.73 0 0 0 0 3.46zM293.37 733.36a1.55 1.55 0 0 0 0-3.1 1.55 1.55 0 0 0 0 3.1zM305.17 730.55h-.29a1.17 1.17 0 0 0-.61.14 1.18 1.18 0 0 0-.51.33 1.14 1.14 0 0 0-.32.51 1.17 1.17 0 0 0-.14.61l.06.42a1.59 1.59 0 0 0 .4.7l.32.24a1.53 1.53 0 0 0 .8.22h.29a1.15 1.15 0 0 0 .6-.13 1.13 1.13 0 0 0 .49-.32 1.08 1.08 0 0 0 .32-.5 1.1 1.1 0 0 0 .14-.59l-.06-.41a1.46 1.46 0 0 0-.4-.69l-.31-.24a1.52 1.52 0 0 0-.78-.21zM312.65 733.68a1.59 1.59 0 0 0 0-3.17 1.59 1.59 0 0 0 0 3.17zM275 742.67l.22.13a1.73 1.73 0 1 0 0-3l-.22.13a1.58 1.58 0 0 0 0 2.73zM284.74 743.54h.28a1.55 1.55 0 0 0 .77-.17 2.09 2.09 0 0 0 1.22-1.82l-.08-.52a1.91 1.91 0 0 0-.51-.88l-.4-.31a2 2 0 0 0-1-.27h-.28a1.38 1.38 0 0 0-.75.17 1.36 1.36 0 0 0-.63.4 1.42 1.42 0 0 0-.4.62 1.53 1.53 0 0 0-.17.75l.07.52a1.92 1.92 0 0 0 .5.86l.39.3a1.91 1.91 0 0 0 1 .27zM297.4 743.72a1.55 1.55 0 0 0 0-3.1 1.55 1.55 0 0 0 0 3.1zM308.47 740.64l-.26-.1a1.71 1.71 0 0 0-1.65.43l-.26.35a1.67 1.67 0 0 0-.23.85 1.32 1.32 0 0 0 .14.65 1.4 1.4 0 0 0 .35.55 1.71 1.71 0 0 0 1.65.43l.26-.1.38-.16a1.24 1.24 0 0 0 .44-.41.84.84 0 0 0 .21-.35 1.27 1.27 0 0 0 .13-.61l-.05-.42-.16-.38a1.86 1.86 0 0 0-.95-.73zM319.85 744c2.69 0 2.69-4.18 0-4.18s-2.7 4.18 0 4.18zM268.11 755.4a1.77 1.77 0 0 0 1 .82h.13l.28.09a1.84 1.84 0 0 0 1.82-.48 1.87 1.87 0 0 0 0-2.65 1.86 1.86 0 0 0-1.82-.48l-.37.12a2.53 2.53 0 0 0-.45.19l-.35.27-.27.35a1.31 1.31 0 0 0-.21.65.86.86 0 0 0 0 .45 1.18 1.18 0 0 0 .2.63zM278.4 756.17a1.62 1.62 0 0 0 0-3.24 1.62 1.62 0 0 0 0 3.24zM288.72 756.23l.28-.23a1.69 1.69 0 0 0 .84-1.46l-.06-.45a1.66 1.66 0 0 0-.43-.75 1.29 1.29 0 0 0-.55-.35 1.32 1.32 0 0 0-.65-.15 1.67 1.67 0 0 0-.85.23 1.78 1.78 0 0 0-.61.61l-.23.33-.16.38a1.2 1.2 0 0 0 0 .65.84.84 0 0 0 .11.41 1.27 1.27 0 0 0 .34.52l.32.25.39.17a1.3 1.3 0 0 0 .65 0 1.21 1.21 0 0 0 .6-.19zM303.44 756.38a1.55 1.55 0 0 0 0-3.09 1.55 1.55 0 0 0 0 3.09zM312.65 756.67a1.33 1.33 0 0 0 .71-.16 1.66 1.66 0 0 0 1-1 1.33 1.33 0 0 0 .16-.71l-.07-.48a1.74 1.74 0 0 0-.47-.82l-.37-.28a1.78 1.78 0 0 0-.93-.25 1.38 1.38 0 0 0-.7.15 1.62 1.62 0 0 0-1 1 1.38 1.38 0 0 0-.15.7l.06.49a1.94 1.94 0 0 0 .47.81l.38.29a1.74 1.74 0 0 0 .92.25zM324.17 756.09a1.55 1.55 0 0 0 0-3.09 1.55 1.55 0 0 0 0 3.09zM274.66 770.84a1.62 1.62 0 0 0 0-3.24 1.62 1.62 0 0 0 0 3.24zM283 771.13a1.62 1.62 0 0 0 0-3.24 1.62 1.62 0 0 0 0 3.24zM291.07 771.35a1.55 1.55 0 0 0 0-3.1 1.55 1.55 0 0 0 0 3.1zM298.26 772a1.59 1.59 0 0 0 0-3.17 1.59 1.59 0 0 0 0 3.17zM310.64 771.38a1.58 1.58 0 0 0 0-3.16 1.58 1.58 0 0 0 0 3.16zM321.58 770.2a1.84 1.84 0 0 0 0-3.68 1.84 1.84 0 0 0 0 3.68z"></path></g><path d="M26 972.15c61.24.71 122.49 1.08 183.73 1.43s122.49 2 183.74 2.19 122.49.43 183.73.6 122.52 1.22 183.74.07c69.23-1.29 138.48-1.88 207.7-3.64a2.38 2.38 0 0 0 0-4.76c-61.24-1.55-122.49-2-183.74-3.19s-122.48-.6-183.73-.43-122.49.37-183.74.58-122.43 1.72-183.7 2.13c-69.24.47-138.47.77-207.7 1.57a1.73 1.73 0 0 0 0 3.45z" fill="#1a1c3f" class="fill-1a1c3f"></path><path d="M165.27 747.92c0-11.81.12-24.33 6.31-34.39 1.89-3.09 4.42-6.71 2.85-10-.42-.86-1.09-1.58-1.44-2.46a7.6 7.6 0 0 1-.29-3.26l.83-15c.12-2.06.18-4.3-1-6a8.44 8.44 0 0 0-3.62-2.47 59.31 59.31 0 0 0-27.33-4.74c-3 .2-6.2.73-8.36 2.82-2.37 2.29-2.9 5.83-3.29 9.1L123 739.26" fill="#ffffff" class="fill-ffffff"></path><path d="M156.2 747.92c0-11.81.11-24.33 6.3-34.39 1.9-3.09 4.42-6.71 2.85-10-.42-.86-1.09-1.58-1.44-2.46a7.6 7.6 0 0 1-.29-3.26l.83-15c.12-2.06.18-4.3-1-6a8.44 8.44 0 0 0-3.62-2.47 59.29 59.29 0 0 0-27.33-4.74c-3 .2-6.2.73-8.36 2.82-2.37 2.29-2.9 5.83-3.29 9.1l-6.92 57.68" fill="#f7cebf" class="fill-f7cebf"></path><path d="M167 747.92c.44-8.7.9-17.8 3.84-26.08 2.33-6.6 8.88-12.36 6.14-19.76-2.93-7.9 1.68-16.73-.95-24.64-2.11-6.38-12.35-8.38-18-9.55-7.12-1.47-16.23-2.71-23.15.08-5.84 2.35-7.26 7.94-8 13.61-2.46 19.2-4.56 38.45-6.8 57.68-.44 3.74 5.39 3.69 5.84 0 1.86-15.06 3.75-30.12 5.57-45.18.7-5.8-.27-18.44 6.38-20.82 6.42-2.3 15.67-.56 22 1.1 4 1.06 9.88 2.12 10.83 6.92.58 2.92-.36 7.05-.52 10s-.72 6.11-.29 9c.22 1.53.83 2.2 1.31 3.53 1.13 3.16.13 4.39-1.27 6.89-6.68 11.95-7 23.81-6.31 37.22a1.7 1.7 0 0 0 3.39 0z" fill="#1a1c3f" class="fill-1a1c3f"></path><path d="M195.23 826.84a384.8 384.8 0 0 1 69.55 6.95c5.57 1.07 11.45 2.45 15.45 6.47 6.64 6.68 5.48 17.6 3.59 26.82a503.16 503.16 0 0 1-27 89.14c.75 1.76 2.43 2.91 3.74 4.3s2.31 3.51 1.35 5.16-3.09 1.83-4.94 1.88l-36.57 1a3.87 3.87 0 0 1-2.11-.34c-1.29-.74-1.31-2.57-1.17-4q2.37-24.9 4.75-49.81c1.21-12.6 2.79-26.11 11.15-35.61-5.74 2.94-12.41 3.4-18.86 3.54-8.24.17-16.49-.08-24.73-.33a58.54 58.54 0 0 1-12.89-1.35c-12.8-3.3-21.8-14.71-28.2-26.27" fill="#ffffff" class="fill-ffffff"></path><path d="M185.75 826.84a385 385 0 0 1 69.56 6.95c5.56 1.07 11.44 2.45 15.44 6.47 6.64 6.68 5.48 17.6 3.59 26.82a503.16 503.16 0 0 1-27 89.14c.75 1.76 2.43 2.91 3.74 4.3s2.31 3.51 1.35 5.16-3.09 1.83-4.94 1.88l-36.57 1a3.87 3.87 0 0 1-2.11-.34c-1.29-.74-1.31-2.57-1.17-4q2.37-24.9 4.75-49.81c1.21-12.6 2.79-26.11 11.15-35.61-5.74 2.94-12.41 3.4-18.86 3.54-8.24.17-16.49-.08-24.73-.33a58.54 58.54 0 0 1-12.95-1.38c-12.8-3.3-21.8-14.71-28.2-26.27" fill="#eab642" class="fill-eab642"></path><path d="M195.23 828.68c23.76.69 47.86 3.14 71.09 8.3 4.87 1.08 10.13 2.59 13.16 6.87s3.09 9.72 2.66 14.63c-.95 10.71-4.12 21.53-6.78 31.92q-4.25 16.59-9.61 32.88-2.69 8.13-5.64 16.18c-.87 2.38-1.77 4.75-2.68 7.12-1 2.62-3.35 6.48-3.56 9.25-.18 2.44 5.88 7.28 4.55 8.65-.94 1-7 .27-8.22.3l-9.62.26-16.36.44c-4.11.11-4.31.88-3.95-3.21.28-3.19.61-6.38.92-9.57q1.84-19.17 3.69-38.32c1.14-11.63 2.49-24.15 10.28-33.44a3.08 3.08 0 0 0-3.72-4.82c-7.66 3.55-16.69 2.93-24.92 2.74-8-.17-16.12-.17-24-1.16-14.65-1.83-23.76-13.35-30.64-25.42-2.63-4.61-9.7-.48-7.12 4.16 7.55 13.59 18.54 26.64 34.87 28.77 9.42 1.23 19.32.78 28.8.62 9-.16 17.84-.51 26.12-4.41l-3.72-4.82c-7.33 8.78-9.89 19.49-11.26 30.63-1.66 13.51-2.64 27.12-3.93 40.68-.55 5.81-2.37 12.77-1.49 18.58.83 5.5 5.63 5.09 10.08 5l19.25-.56 10.58-.3c2.48-.07 5.44.16 7.72-1a6.19 6.19 0 0 0 2.85-8.08c-.93-2.38-4-3.86-4.24-6.25-.07-.61 1.28-3.21 1.41-3.54.93-2.36 1.85-4.73 2.74-7.1q7.41-19.59 13.16-39.75c3.73-13.06 7.3-26.38 9.59-39.78 1.55-9.08 2-19.83-5-26.87-4.06-4.06-9.75-5.71-15.22-6.84-7.72-1.58-15.56-2.78-23.38-3.73a380.81 380.81 0 0 0-48.46-2.69 1.84 1.84 0 0 0 0 3.68z" fill="#1a1c3f" class="fill-1a1c3f"></path><path d="M242.85 866.19c-6 3.94-13.31 7.74-15.15 15.32-.61 2.53 2.61 4.68 4.52 2.64 4.53-4.84 8-10.51 12.82-15.13 1.44-1.4-.45-4-2.19-2.83z" fill="#1a1c3f" class="fill-1a1c3f"></path><path d="M110.93 777.15c1.76-9.74 4.39-20.73 13.06-25.51 3.33-1.83 7.18-2.48 11-3a177.6 177.6 0 0 1 29.52-1.38c7 .26 14.66 1.2 19.73 6.09s6.2 12 7 18.83a321 321 0 0 1 2.24 40.53 11.74 11.74 0 0 0 .67 4.94c.78 1.71 2.35 2.92 3.45 4.45 2.26 3.15 2.33 7.52.84 11.1a20.37 20.37 0 0 1-7.56 8.62c-9.38 6.42-21.35 7.56-32.72 7.66-25.49.23-52.2-4.29-72.34-19.9C82.46 827 79 824 74.74 824.06" fill="#ffffff" class="fill-ffffff"></path><path d="M97.56 777.15c1.76-9.74 4.39-20.73 13-25.51 3.34-1.83 7.19-2.48 11-3a177.77 177.77 0 0 1 29.53-1.38c7 .26 14.66 1.2 19.73 6.09 4.92 4.75 6.2 12 7 18.83a321 321 0 0 1 2.24 40.53 11.74 11.74 0 0 0 .67 4.94c.78 1.71 2.35 2.92 3.45 4.45 2.26 3.15 2.33 7.52.84 11.1a20.37 20.37 0 0 1-7.56 8.62c-9.38 6.42-21.35 7.56-32.72 7.66-25.49.23-52.2-4.29-72.34-19.9-3.33-2.58-6.85-5.58-11.05-5.55" fill="#fad570" class="fill-ef6348"></path><path d="M112.8 777.67c1.79-8.08 4-18 11.43-22.84 4.28-2.76 9.71-3.12 14.63-3.61 5.89-.59 11.8-.94 17.72-1 9.11 0 22.07-.8 27.6 8.09 5 8.09 4.64 20.1 5.27 29.27.36 5.15.58 10.3.69 15.46.1 4.86-1 10.86.82 15.48 1.48 3.84 5.44 5.83 5.14 10.43-.37 5.43-5.33 9.24-9.73 11.6-8.45 4.53-18.08 4.65-27.43 4.7a159.55 159.55 0 0 1-28.2-2.14 104 104 0 0 1-29.6-9.47 86.52 86.52 0 0 1-13.21-8.44c-4.13-3.18-7.86-5.64-13.19-5.94-6.22-.35-6 8.93 0 9.54 5.07.53 9.77 6 13.91 8.66a88.78 88.78 0 0 0 14.69 7.54 120.26 120.26 0 0 0 31.89 7.71c19.2 2.22 44.76 3.41 60.3-10.27 6.69-5.88 9.94-15.64 3.91-23.18-4-5-2.68-12-2.86-18.12q-.33-10.64-1.36-21.24c-.89-9.24-1.26-20.37-7.8-27.68-6.72-7.51-17.53-8-26.89-8.11a171.45 171.45 0 0 0-22.65 1.19c-5.66.7-11.66 1.37-16.53 4.61-8.72 5.78-10.87 17.11-12.3 26.72-.36 2.41 3.2 3.54 3.75 1z" fill="#1a1c3f" class="fill-1a1c3f"></path><path d="m187.13 915.11-128.39-.76c-4.23 0-8.71-.12-12.29-2.37-6.07-3.81-7.2-12-7.67-19.17A1401 1401 0 0 1 37.22 740c.47-10.67 1.59-22.5 9.5-29.68 4.76-4.31 11.22-6.17 17.54-7.32a108.9 108.9 0 0 1 51.62 3.1c3.55 1.1 7.17 2.46 9.81 5.08 2.83 2.83 4.2 6.77 5.37 10.6 13.13 42.7 13.84 88.81 30.19 130.39 1.82 4.62 4 9.36 7.86 12.44 8.84 7 22.72 2.78 32.25 8.83 8.9 5.65 10.56 17.85 10.16 28.38-.17 4.21-.61 8.67-3.18 12s-8 4.82-11 1.94" fill="#ffffff" class="fill-ffffff"></path><path d="m176.77 922.6-128.39-.77c-4.23 0-8.71-.12-12.3-2.37-6.06-3.8-7.19-12-7.66-19.17a1400.86 1400.86 0 0 1-1.56-152.8c.47-10.67 1.59-22.51 9.5-29.69 4.75-4.31 11.22-6.16 17.54-7.32a109 109 0 0 1 51.62 3.1c3.55 1.1 7.17 2.46 9.81 5.09 2.83 2.82 4.2 6.77 5.37 10.59 13.13 42.71 13.84 88.81 30.19 130.39 1.82 4.62 4 9.36 7.85 12.44 8.85 7 22.73 2.78 32.26 8.83 8.89 5.65 10.56 17.85 10.15 28.39-.16 4.2-.6 8.67-3.17 12s-8 4.81-11 1.93" fill="#ff810a" class="fill-34c6a0"></path><g fill="#eab642" class="fill-eab642"><path d="M40.27 741.4c15.51-2.88 31.09-1.6 46.66 0 15 1.58 30.63 4.38 45.72 2.93 2.77-.27 2.88-4.34 0-4.4-16-.3-31.65-1.68-47.59-3.19-15.25-1.45-30.64-1.91-45.72 1.23-2.24.47-1.28 3.82.93 3.4zM35.13 778.94q27.87 1.8 55.77 3l27.4 1.16c7.71.33 16.48 1.85 23.85-1.08 3-1.19 1.67-6.09-1.34-4.87-7.64 3.09-17.4 1.23-25.44.94l-26.42-1q-26.91-1-53.82-1.35c-2.05 0-2 3 0 3.17zM36.4 825.07a1105.18 1105.18 0 0 0 110.6-2.86c3-.21 3-4.91 0-4.69-36.79 2.75-73.67 3.76-110.55 4a1.77 1.77 0 0 0 0 3.53zM37.69 872.64c22.79.59 45.62.07 68.43-.13 11.23-.1 22.47-.27 33.71-.29 11.42 0 23.38.89 34.71-.5a2.28 2.28 0 0 0 0-4.55c-11-1.09-22.63 0-33.71.31-11.57.28-23.15.38-34.71.55-22.81.35-45.65.38-68.43 1.52a1.55 1.55 0 0 0 0 3.09z"></path></g><g fill="#1a1c3f" class="fill-1a1c3f"><path d="M187.13 912.88q-35.56-.51-71.11-1.12-17.77-.32-35.55-.59l-15.81-.23c-5.29-.08-12.66 1-17-2.61-7-5.73-5.48-20.44-5.92-28.4q-1-17.35-1.51-34.72-1.11-35.72-.39-71.47c.23-11.73.53-23.48 1.12-35.2.43-8.61 1.2-18.85 7.8-25.21 7.67-7.4 21.26-8.2 31.29-8.57a104.82 104.82 0 0 1 33.18 4.1c5.47 1.59 10.33 3.48 12.87 9 2.2 4.76 3.37 10.25 4.69 15.3 2.76 10.53 4.91 21.2 6.86 31.9 3.86 21.09 6.93 42.37 12.39 63.13 2.8 10.64 5.79 22.15 11.16 31.84 4.72 8.5 12.43 11.43 21.67 12.49 10.68 1.22 20.41 2.38 23.84 14.21a46.43 46.43 0 0 1 1.46 14.43c-.17 4.12-2.17 16.78-9.17 11.64-3.57-2.63-6.94 3.31-3.46 5.93 7.88 5.95 16.76-1.73 18.56-9.66a48.44 48.44 0 0 0-2.1-27.38c-3.53-8.62-10.68-13.34-19.72-14.77-4.49-.71-9.08-.79-13.54-1.73-6.27-1.32-10.15-4.84-12.88-10.57-10.35-21.8-14.07-47.25-18.16-70.81-2.12-12.22-4.15-24.47-6.71-36.61-2.28-10.78-4.28-22.82-9.09-32.82-5-10.38-17.48-12.8-27.82-14.68a113.65 113.65 0 0 0-35.26-.91C58.72 700.12 48 702.5 41.34 711c-6.05 7.77-7.15 18-7.68 27.55-1.47 26.57-1.69 53.27-1.39 79.87q.24 20.36 1.06 40.69c.51 12.56.69 25.32 2.13 37.81 1.18 10.29 5.67 19.24 16.89 20.64 6.94.86 14.22.27 21.2.25l22.72-.07c30.28-.1 60.57-.31 90.86-.38 2.88 0 2.88-4.43 0-4.47z"></path><path d="M88.37 968.31c-.92-1.63 0-3.79 1.52-4.88a11.56 11.56 0 0 1 5.3-1.63l12.18-1.68a2.94 2.94 0 0 0 2.13-.92 3 3 0 0 0 .39-1.51 320.13 320.13 0 0 0 .16-40.74l21.64-.54a1.29 1.29 0 0 1 1.59 1.62l-.42 34.35a10.51 10.51 0 0 0 .61 4.47c1.28 2.8 4.69 3.89 7.76 4.11s6.29-.1 9.1 1.15 4.88 4.93 3.11 7.44"></path><path d="M89.89 967.89c-.66-4.86 15.2-4.66 18.13-5.42 4.14-1.09 4.25-3.74 4.49-7.68.76-12.66.21-25.19.12-37.84l-2.58 2.59c4.26 0 8.52-.11 12.79-.17 2.11 0 4.83-.53 6.88-.09l.74-1.25-.05 3.81-.31 23.86c-.07 5.27-1.3 12 3.51 15.59a13.29 13.29 0 0 0 6.29 2.32c2.43.32 13.43-.31 11.1 4.52-1.57 3.27 3.38 6.12 4.87 2.84 2.73-6-1.73-11.23-7.73-12.34-4.4-.8-11 1.12-12.43-4.72-1-4.06.1-9.74.15-13.94l.16-14.31c0-2.89 1.16-7.83-.67-10.39-2-2.73-6.77-1.59-9.56-1.49-5.25.19-10.5.36-15.74.58a2.62 2.62 0 0 0-2.59 2.59 190 190 0 0 1 .69 21.34c0 3.24-.08 6.47-.2 9.71-.1 2.93.65 8.54-2.09 9.9-5.09 2.54-23.8-.24-18.86 11.21.78 1.81 3.11.37 2.89-1.22zM163.62 696.38l-.17.41a1.73 1.73 0 0 0-.25.91l.06.48a1.72 1.72 0 0 0 .47.79 1.82 1.82 0 0 0 2.54 0 1.72 1.72 0 0 0 .47-.79l.11-.44a1.39 1.39 0 0 0 0-.7 1.29 1.29 0 0 0-.21-.66l-.27-.36a1.32 1.32 0 0 0-.57-.36.89.89 0 0 0-.45-.12 1.28 1.28 0 0 0-.7 0l-.42.18a1.68 1.68 0 0 0-.64.63zM163.8 692.48a3.57 3.57 0 0 1 1.42-.44 3.23 3.23 0 0 1 1.38.07 2.13 2.13 0 1 0 1.13-4.11 6 6 0 0 0-5.89 1.93c-1.13 1.36.28 3.51 2 2.55zM159.17 712.54a5.05 5.05 0 0 0 .47 3.24 1.87 1.87 0 1 0 3-2.27 1.54 1.54 0 0 1-.17-.19l.14.18c-.06 0-.19-.32-.22-.38s0-.07 0 .13l-.06-.18c0-.09-.11-.54-.05-.11a1.63 1.63 0 0 0-1.38-1.56 1.56 1.56 0 0 0-1.73 1.14z"></path><path d="m163.62 675.69-8.29 5.57a4.46 4.46 0 0 0-1.28 1.12 4.59 4.59 0 0 0-.58 1.69l-2.58 13.26a5.35 5.35 0 0 0-2.84-5.59 5.27 5.27 0 0 0-6.13 1.28 7.49 7.49 0 0 0-1.28 6c.32 2 1.37 4 1.54 6-.06.44-5.38 1.05-5.94 1.15-2.81.47-6.53 1-8.71-1.3a1.87 1.87 0 0 1-.37-1.14l-2-20.15a30.59 30.59 0 0 1-.19-6.12c.65-6.14 5.07-11.16 10.53-13.71a14.43 14.43 0 0 1 8.7-1.46c2.79.51 5.27 2.53 8.22 1.81 7.86-1.93 16.11-.39 24 1.16 1.92.37 4.1.94 5 2.69a4.36 4.36 0 0 1-.81 4.54 12.81 12.81 0 0 1-3.9 2.87 3.17 3.17 0 0 1 2.83 3.82 4.45 4.45 0 0 1-4 3.21 15.94 15.94 0 0 0-10.81-9.14"></path><path d="M162.82 674.32c-3.32 2-8.81 3.9-10.93 7.31-2.38 3.83-2.48 10.7-3.35 15.06l4.79.64c.23-5.68-4.85-10.23-10.49-8-7.28 2.9-4.25 10.79-3.26 16.37l1.24-3c-1.11.83-4.39.68-5.83.81-2 .18-3.53.61-4.84-1.6-.91-1.53-.56-5.53-.74-7.33-.78-7.78-3.68-17.7 2.14-24.12 3.2-3.54 8.37-6.12 13.17-4.77 3.06.85 5.21 1.9 8.52 1.44a50.82 50.82 0 0 1 15-.18 73.43 73.43 0 0 1 7.4 1.32 11.14 11.14 0 0 1 2.66.78 5.19 5.19 0 0 1-3.21 3.52c-2.36 1.32-2 5.32.78 5.93l-1.18.67 3.79 1.54A20 20 0 0 0 165.63 670c-4.12-1.19-5.87 5.21-1.76 6.41a13.44 13.44 0 0 1 8.8 7.64 3.38 3.38 0 0 0 3.79 1.54c6.78-1.67 9.28-11.78 1.11-13.4l.78 5.93c4-2.35 8.55-6.72 5.77-11.79s-11.36-5.07-16.1-5.7a49.37 49.37 0 0 0-12-.35c-1.75.19-4 .91-5.65.73-1.4-.16-2.68-1-4-1.42-6.11-1.75-12.5.56-17.26 4.48-11.11 9.15-6.75 24.47-5.43 36.87.62 5.75 3 8.86 9.29 8.5 2.67-.15 8.35-.46 10.55-2.13a2.89 2.89 0 0 0 1.24-3.05c-.29-1.56-.82-2.93-1.21-4.45l-.41-2.07q-.56-4.75 5.3-.45c-.09 2.7 4.26 3.38 4.78.65.75-3.92.84-9.63 2.51-13.28 1.52-3.29 5.72-5.41 8.67-7.64 1.57-1.2.21-3.8-1.6-2.74z"></path></g><path d="M227.73 798.57c2.82-3.5 2.63-8.65 5.19-12.33a19.37 19.37 0 0 1 2.42-2.7c1-1 1 .62 2-.36 1.19-1.16 3.36-4.93 4.91-5.53a4.18 4.18 0 0 1 4.61.81 7.71 7.71 0 0 1 3.57-.92 2.62 2.62 0 0 1 2.52 2.28 4.84 4.84 0 0 1 5.14.57 13.58 13.58 0 0 1 3.41 4.24 5.65 5.65 0 0 1 1.13 3.34c-.2 2-2.35 3.19-4.18 4.1a1.75 1.75 0 0 0-.76.6 1.58 1.58 0 0 0-.17.56 14.79 14.79 0 0 1-4.92 8 29.36 29.36 0 0 1-8.19 4.79c-1 .41-2.31.72-3-.12" fill="#ffffff" class="fill-ffffff"></path><path d="M224.43 803.31c2.82-3.49 2.63-8.64 5.19-12.33a19.88 19.88 0 0 1 2.42-2.69c1-1 1.05.62 2.05-.36 1.19-1.16 3.36-4.93 4.91-5.53a4.19 4.19 0 0 1 4.61.8 7.7 7.7 0 0 1 3.57-.91 2.62 2.62 0 0 1 2.52 2.28 4.84 4.84 0 0 1 5.14.57 13.58 13.58 0 0 1 3.41 4.24 5.65 5.65 0 0 1 1.13 3.34c-.2 2-2.35 3.19-4.18 4.1a1.83 1.83 0 0 0-.77.6 2.14 2.14 0 0 0-.17.56 14.71 14.71 0 0 1-4.91 8 29.51 29.51 0 0 1-8.19 4.79c-1 .41-2.31.72-3-.12" fill="#f7cebf" class="fill-f7cebf"></path><path d="M229.05 799.89a21.83 21.83 0 0 0 3.57-6c.53-1.29.93-2.63 1.55-3.88a7.92 7.92 0 0 1 2-3c-1.23-.84-1.47-1.08-.71-.72 1.12-.55 2.64.19 4-.93s3.23-6.29 5.89-4.26a3 3 0 0 0 2.31.31 6.52 6.52 0 0 1 2.4-.74 3 3 0 0 0 3.69 2.1c1.69-.61 4.37 1.28 4.8 2.85a3.72 3.72 0 0 1-1.05 3.64c-1.13 1.23-2 1.38-2.79 3-1.33 2.58-1.84 4.83-4.25 6.91-1.55 1.34-6 4.73-8.25 4-2.74-.87-4.9 2.88-2.81 4.83 3.75 3.52 9.4-.22 12.86-2.63a21.3 21.3 0 0 0 6.05-6.17c.7-1.14 1-2.41 1.68-3.56 1-1.8.5-.78 2.18-2.15 3.62-2.94 4.22-6.18 1.92-10.29-2.47-4.41-6.65-8.1-11.94-6.19l3.69 2.09a5.92 5.92 0 0 0-3.41-4c-2-.81-3.32.12-5.21.08-.82 0-2.92-.92-4.55-.63a7.39 7.39 0 0 0-4.37 2.68 9 9 0 0 0-1.61 2.05c-1 .76-1 1.16.07 1.22 1 .34 1.06.32.08-.07-1.82.59-2.72.23-4.31 1.73-4.56 4.32-3.68 10.43-6.47 15.55-1 1.79 1.52 4 2.94 2.27z" fill="#1a1c3f" class="fill-1a1c3f"></path><path d="M184.35 796.19c2.82-3.49 2.63-8.64 5.19-12.33a19.29 19.29 0 0 1 2.42-2.69c1-1 1.06.62 2-.36 1.19-1.17 3.36-4.93 4.91-5.53a4.19 4.19 0 0 1 4.61.8 7.61 7.61 0 0 1 3.57-.91 2.61 2.61 0 0 1 2.52 2.27 4.84 4.84 0 0 1 5.14.58 13.65 13.65 0 0 1 3.41 4.23 5.68 5.68 0 0 1 1.13 3.35c-.2 2-2.35 3.19-4.18 4.1a1.68 1.68 0 0 0-.76.6 1.58 1.58 0 0 0-.17.56 14.76 14.76 0 0 1-4.92 8 29.15 29.15 0 0 1-8.19 4.8c-1 .41-2.31.71-3-.13" fill="#ffffff" class="fill-ffffff"></path><path d="M181.05 800.94c2.82-3.49 2.63-8.64 5.19-12.33a19.29 19.29 0 0 1 2.42-2.69c1-1 1.05.62 2.05-.36 1.19-1.17 3.36-4.94 4.91-5.54a4.21 4.21 0 0 1 4.61.81 7.58 7.58 0 0 1 3.57-.91 2.61 2.61 0 0 1 2.52 2.27 4.82 4.82 0 0 1 5.14.58 13.65 13.65 0 0 1 3.41 4.23 5.66 5.66 0 0 1 1.13 3.35c-.2 2-2.35 3.19-4.18 4.1a1.68 1.68 0 0 0-.76.6 1.52 1.52 0 0 0-.17.56 14.76 14.76 0 0 1-4.92 8 29.29 29.29 0 0 1-8.19 4.8c-1 .41-2.31.71-3-.13" fill="#f7cebf" class="fill-f7cebf"></path><g fill="#1a1c3f" class="fill-1a1c3f"><path d="M185.67 797.52a21.74 21.74 0 0 0 3.57-6c.53-1.28.93-2.63 1.55-3.87a7.92 7.92 0 0 1 2-3c-1.23-.84-1.47-1.08-.71-.72 1.12-.55 2.64.19 4-.93s3.23-6.3 5.89-4.26a2.93 2.93 0 0 0 2.31.3 6.5 6.5 0 0 1 2.4-.73 3 3 0 0 0 3.69 2.09c1.7-.61 4.37 1.28 4.8 2.85a3.71 3.71 0 0 1-1.05 3.64c-1.13 1.24-2 1.39-2.79 3-1.33 2.59-1.84 4.84-4.25 6.91-1.55 1.34-6 4.73-8.25 4-2.74-.87-4.9 2.87-2.81 4.83 3.75 3.52 9.4-.22 12.86-2.64a21.17 21.17 0 0 0 6-6.17c.7-1.14 1-2.4 1.68-3.56 1-1.8.5-.78 2.18-2.14 3.62-2.94 4.22-6.19 1.92-10.3-2.47-4.41-6.65-8.09-11.94-6.19l3.69 2.1a5.88 5.88 0 0 0-3.41-4c-2-.81-3.32.12-5.21.07-.82 0-2.92-.92-4.55-.63a7.46 7.46 0 0 0-4.37 2.69 8.83 8.83 0 0 0-1.61 2.05c-1 .75-1 1.16.08 1.21 1 .34 1.05.32.07-.06-1.82.59-2.72.22-4.31 1.72-4.56 4.33-3.68 10.44-6.47 15.56-1 1.78 1.52 4 2.94 2.27z"></path><path d="M192.05 787.9a15.94 15.94 0 0 1 5 1.13 14.16 14.16 0 0 1 5.6 3.75 8.7 8.7 0 0 1 2.25 6.22c-.19 2.52-1.66 4.74-3.15 6.78a32.17 32.17 0 0 1-3.14 3.85 19.16 19.16 0 0 1-8.84 5.1 4.29 4.29 0 0 1-1.91.16 3.73 3.73 0 0 1-1.89-1.19c-1.92-2-2.72-4.85-3.2-7.59A52.28 52.28 0 0 1 182 798c0-1.86 0-3.8-.85-5.45"></path><path d="M191.58 789.64c4.25 1.1 11.31 4.36 9.94 10-1.08 4.45-6.33 9.17-10.33 10.91-2.52 1.09-3 .91-4.1-1.72a24.48 24.48 0 0 1-1.36-6.72c-.39-3.89.12-7.62-1.82-11.14-1.81-3.29-6.65-1-5.87 2.48 1.6 7.17-.35 15.44 4.58 21.68 4.43 5.62 11.46 2.74 16.25-1.06 5.1-4 10.8-11.69 8.78-18.56-1.93-6.59-9.27-9.61-15.6-9.4-2 .07-2.5 3-.47 3.54z"></path></g><path d="M165.88 747.76c7.76-1.93 16.63 1.16 21.17 7.74 5 7.19 4.34 16.66 4.4 25.39a129.66 129.66 0 0 0 3.75 30c.19.77.15 1.91-.64 2L225.35 796c3-1.68 6.29-3.4 9.76-3.23 6.19.31 10.61 6.9 10.58 13.09s-3.34 11.88-7 16.89c-9.21 12.64-22.89 25.51-38.72 28.67-28.86 5.76-41.59-29.21-43.18-51.7-.11-1.55-.58-3.52-2.13-3.73" fill="#ffffff" class="fill-ffffff"></path><path d="M159.52 751.56c7.76-1.93 16.63 1.16 21.17 7.74 5 7.19 4.34 16.66 4.4 25.4a129.11 129.11 0 0 0 3.75 30c.19.78.15 1.92-.64 2l30.8-16.95c3.05-1.68 6.3-3.4 9.77-3.23 6.19.32 10.61 6.9 10.58 13.1s-3.35 11.88-7 16.88c-9.21 12.64-22.88 25.51-38.71 28.67-28.87 5.76-41.6-29.21-43.18-51.69-.11-1.56-.59-3.53-2.13-3.74" fill="#fad570" class="fill-ef6348"></path><path d="M165.88 749.38c5.65-.16 11.88 1.34 16.18 5.18 5 4.48 5.89 11.38 6.12 17.73s.13 12.67.75 19c.3 3.09.71 6.18 1.21 9.24.17 1 1.86 10.63 3 9.88-3 2.05-.38 6.75 2.9 5l23.13-12.63c6.39-3.48 17-11.72 22-2.43 4.22 7.76-1.93 16.52-6.61 22.51a85.45 85.45 0 0 1-15.45 15.54c-9.5 7.2-23 13.32-34.79 7.94-9-4.13-14.74-13.49-18.29-22.38a85 85 0 0 1-4.61-16.43c-.83-4.61.08-12.32-4.91-14.64-4.14-1.92-7.79 4.21-3.61 6.18 1 .46.95 6.58 1.12 7.72a90.39 90.39 0 0 0 2 9.77 81 81 0 0 0 6.48 17c5.39 10.28 14.17 19.64 26.07 21.66 15.77 2.68 31-7 41.76-17.58 9.78-9.65 25.29-27.29 15.5-41.58-5.09-7.42-13-7.3-20.41-3.53-10.93 5.58-21.53 11.93-32.26 17.89l2.9 5c2-1.39 2.22-2.91 2-5.24-.63-5.36-2.2-10.6-2.74-16-.91-9.07.09-18.24-1-27.27-1.74-14.05-13.92-26.64-28.74-20.65-1.57.63-1.54 3.23.43 3.18z" fill="#1a1c3f" class="fill-1a1c3f"></path><path d="M624.86 572c-20.74-85.53-37.27-172.58-39-260.56S597.6 134.13 634.7 54.33c6.81-14.66 18.47-31.26 34.51-29.15 9.7 1.28 17 9.26 23.08 16.91C756.44 122.38 779.22 223 792 324.93c11.82 94.54 9.61 190.07.17 282.27-2.16 21.13-6.41 42.63-20.55 59.54-17.21 20.59-46.66 28.87-72.75 23.46-13.25-2.75-25.81-9.1-35.14-19-12.29-13-16.48-31.16-23-47.34A304.41 304.41 0 0 1 624.86 572" fill="#ffffff" class="fill-ffffff"></path><path d="M635.22 581.44c-20.74-85.52-37.27-172.58-39-260.56S608 143.56 645.06 63.77c6.82-14.67 18.48-31.26 34.51-29.15 9.7 1.27 17 9.25 23.08 16.9 64.15 80.29 86.93 180.87 99.68 282.85 11.83 94.53 9.61 190.07.17 282.26-2.16 21.14-6.41 42.63-20.54 59.54-17.22 20.59-46.67 28.87-72.76 23.46-13.25-2.75-25.81-9.09-35.14-19-12.28-13-16.48-31.16-23-47.34a304.13 304.13 0 0 1-15.86-51.86" fill="#fad570" class="fill-ef6348"></path><path d="M627.19 571.36c-23.8-99.81-42.12-202.16-37.35-305.17 2.24-48.43 9.43-96.8 23.16-143.34 6.83-23.13 15.08-46.11 25.59-67.85 4-8.35 9.22-17.25 17.07-22.54 9.59-6.47 19.5-3 27.18 4.67 7.9 7.88 14.42 17.43 20.75 26.58S715.84 82.34 721.34 92a424.28 424.28 0 0 1 27.89 60C765 194 774.92 238 782 282.16c16.31 101.26 17.42 203.89 8.25 305.92-2 22.76-3.25 47.11-15.13 67.3-10.67 18.15-29.47 29.4-50.16 32.2-21.3 2.88-44.57-3.26-59.37-19.44-7.42-8.1-11.71-18.45-15.46-28.62-4-10.79-8.29-21.48-12-32.35a300 300 0 0 1-10-36.06c-.9-4.23-7.37-2.43-6.48 1.79 5.24 25.11 14.36 49.13 23.59 73 3.88 10 8.59 19.85 16 27.78A68.27 68.27 0 0 0 688.52 691c19.41 6.8 41.43 5.53 60.17-2.8 19.93-8.86 33.62-25.87 40.45-46.35 7.82-23.42 8.35-49.53 10.28-73.94q3.26-41.14 4.18-82.42a1115.74 1115.74 0 0 0-8.19-163.94c-11.8-92.68-32.55-187.7-87.56-265.18-10.68-15-26-40.55-48.14-34.25-20.06 5.71-28.84 30.6-36 47.72-19.38 46.44-31.31 95.84-37.08 145.78C574.38 322 589.61 429.23 613.12 533q4.51 19.89 9.4 39.69c.75 3 5.39 1.74 4.67-1.29z" fill="#1a1c3f" class="fill-1a1c3f"></path><path d="M626.76 559.33q-34.5 57.2-64.5 116.94c-3.48 6.94-7 14.07-8 21.77-1.22 9.43 1.41 18.9 4.24 28a555.19 555.19 0 0 0 24.17 63.48c3 6.7 10.73 14.48 16.2 9.56 2.83-2.54 2.59-7 2.16-10.74q-2.83-25.34-3.63-50.9c-.27-8.68-.34-17.54 2.3-25.82 3.19-10 10-18.29 16.73-26.34l27.2-32.7c2.35-2.83 4.79-5.84 5.4-9.47.47-2.81-.22-5.67-.93-8.44q-9.2-36.2-21.3-71.56l-1.54 9.54" fill="#ffffff" class="fill-ffffff"></path><path d="M634.81 563.71q-34.48 57.19-64.49 116.94c-3.48 6.94-7 14.07-8 21.77-1.22 9.43 1.41 18.9 4.24 28a555.19 555.19 0 0 0 24.17 63.48c3 6.7 10.73 14.48 16.2 9.56 2.83-2.54 2.59-7 2.16-10.74q-2.88-25.35-3.67-50.88c-.27-8.68-.34-17.54 2.3-25.82 3.19-10 10-18.29 16.73-26.34l27.2-32.7c2.35-2.83 4.79-5.84 5.4-9.47.47-2.81-.23-5.67-.93-8.44q-9.2-36.19-21.3-71.56l-1.5 9.49" fill="#ff810a" class="fill-34c6a0"></path><path d="M794.34 535.5q46.76 47.7 89.74 98.91c5 5.94 10 12.07 12.77 19.33 3.36 8.9 3 18.72 2.33 28.21a555.15 555.15 0 0 1-8.87 67.35c-1.41 7.22-7.1 16.56-13.56 13-3.34-1.82-4.13-6.17-4.58-10q-3-25.32-8.16-50.35c-1.74-8.51-3.73-17.15-8.2-24.59-5.4-9-14-15.49-22.36-21.77l-34-25.54c-2.94-2.21-6-4.58-7.44-8-1.1-2.63-1.09-5.57-1-8.43q.59-37.34 4.21-74.54l3.7 8.92" fill="#ffffff" class="fill-ffffff"></path><path d="M790.46 548.45q46.75 47.7 89.73 98.91c5 5.94 10 12.07 12.77 19.34 3.36 8.89 3 18.72 2.33 28.2a552.91 552.91 0 0 1-8.87 67.35c-1.4 7.22-7.1 16.56-13.55 13-3.34-1.83-4.13-6.18-4.59-10q-3-25.32-8.16-50.35c-1.74-8.51-3.72-17.15-8.2-24.59-5.4-9-14-15.48-22.36-21.77l-34-25.54c-2.94-2.21-6-4.58-7.43-8-1.11-2.63-1.1-5.57-1-8.42q.6-37.35 4.22-74.55l3.69 8.92" fill="#eab642" class="fill-eab642"></path><g fill="#1a1c3f" class="fill-1a1c3f"><path d="M625.14 558.38c-10.95 15.89-20.37 33-30 49.75q-14.2 24.76-27.57 50c-8 15.18-18.78 31.42-17.09 49.34.86 9.17 3.82 18 6.67 26.75q4.41 13.47 9.52 26.68 4.93 12.78 10.49 25.31c2.81 6.38 6 13.17 12.45 16.63 4.89 2.61 10.87 1.45 13.72-3.55 3.77-6.61.73-16.59.07-23.66q-1.4-14.63-2.05-29.36c-.43-9.32-1.29-19.07.45-28.3 3.34-17.78 18.36-31.7 29.47-45.08 6.17-7.43 13.69-14.73 18.68-23 4.9-8.12 1.14-17-1.22-25.31-5.89-20.9-12.15-41.68-19.22-62.21-1.17-3.4-6.6-2-5.43 1.5 5.52 16.32 10.67 32.78 15.24 49.4 2.17 7.91 4.36 15.92 6 24 1.88 9.2-6.79 16.08-12.19 22.56-10.21 12.24-21.64 24.15-30.35 37.54-8.84 13.59-9.42 28.29-8.85 44q.47 13.23 1.51 26.44.49 6.36 1.13 12.7c.39 3.9 1.49 8.27 1.07 12.2-.57 5.23-4.18 4.42-7.16 1.55-2.68-2.59-4.22-5.87-5.71-9.22q-5.37-12.04-10.14-24.38c-6-15.41-12.3-31.43-15.74-47.62a42.78 42.78 0 0 1 2.32-26c3.31-8.08 7.63-15.84 11.53-23.64q13-26 26.84-51.53c9.38-17.3 19.7-34.13 28.79-51.57a1.87 1.87 0 0 0-3.23-1.89zM793 536.82c11.23 13 23.39 25.19 34.89 37.95q17.6 19.5 34.59 39.51c5.57 6.55 11 13.17 16.56 19.76 5.1 6.1 10.61 12.21 13.76 19.6 3.32 7.81 3.3 16.42 2.82 24.74-.52 8.94-1.36 17.88-2.35 26.78s-2.22 18-3.68 26.9c-1.18 7.29-1.55 16.17-5.21 22.74-1.25 2.23-3.71 6-6.41 3.73s-2.35-7.92-2.76-11q-1.63-12.64-3.76-25.23c-2.66-15.6-4.41-33.66-13-47.33-8-12.67-21.53-21.06-33.27-29.86-8-6-16-11.9-24-18-4.56-3.49-6.86-6.52-6.94-12.54-.07-4.87 0-9.74.11-14.61.31-20.29 1.74-40.59 3.63-60.79.34-3.61-5.28-3.57-5.63 0-1.94 19.58-3.12 39.18-4.07 58.83-.38 7.87-2.57 18.43.79 25.85s12.44 12.15 18.65 16.81l23.17 17.45c6.89 5.19 14.05 10.47 19.31 17.41 5.53 7.3 7.92 16.07 9.79 24.89 2 9.49 3.72 19.05 5.25 28.63 1.44 9.08 1.85 18.56 3.88 27.51 1.23 5.46 5.06 10.7 11.26 10.16 6-.53 9.9-6.39 12-11.48 3.24-8 3.91-17.51 5.24-26 2.89-18.5 5.57-37.5 5.76-56.25.09-8.33-1-16.6-4.64-24.16s-9.25-13.7-14.54-19.91c-14-16.46-28.52-32.5-43.25-48.31s-29.28-32-45.26-46.45a1.87 1.87 0 0 0-2.65 2.65zM672.18 659.64c33-11.18 68.35-12.14 103.13-13-4.12 10.11-3.17 21.47-2.53 32.37.49 8.32.82 16.64.8 25 0 5.22-.17 10.39-.17 15.61 0 7.41-6 9.79-12 12.06-18.28 7-39.76 8.67-59.07 6.27a14 14 0 0 1-4.82-1.23c-2.33-1.23-3-3.57-3.63-5.94a629.54 629.54 0 0 1-13.59-64.56c-.54-3.45-2.28-7.9-5.73-7.44"></path><path d="M672.6 661.13c33.56-9.38 68.07-10.87 102.71-11.68l-2.69-3.54c-5.51 14.46-2.59 30.54-2.1 45.59.28 8.4.11 16.77 0 25.17 0 3.66-.07 6.56-3.16 8.91-2.61 2-6.12 3-9.19 4-15.17 5.22-31.24 6.62-47.17 5.67-3.1-.18-8.25.22-11-1.27-3.73-2-4.25-9.8-5.18-13.54q-3.06-12.24-5.63-24.6c-2-9.51-3.68-19.06-5.26-28.64-.88-5.38-2.82-11.74-9.34-11.76-4.29 0-4.27 6.49 0 6.64 2.58.1 3.08 9.22 3.34 10.78q1.11 6.71 2.36 13.38 2.51 13.37 5.59 26.6 1.54 6.61 3.22 13.2c.9 3.51 1.48 7.77 3.62 10.82 3.91 5.55 13.14 5.07 19.16 5.37a124.4 124.4 0 0 0 47.91-6.78c5.07-1.82 11.17-3.78 14.34-8.47 3.83-5.69 2.27-14.58 2.31-21 .06-9.85-.39-19.68-1-29.51s-1-19.66 2.55-29a2.82 2.82 0 0 0-2.7-3.54c-34.72.9-70.74 1.55-103.54 14.3-1.81.7-1.14 3.53.83 3z"></path></g><circle cx="678.98" cy="230.64" fill="#010606" r="48.7" class="fill-4747e2"></circle><circle cx="688.57" cy="241.81" fill="#ff810a" r="48.7" class="fill-34c6a0"></circle><path d="M724.51 228c.74 18.91-9.74 36.78-27.28 44.43a45.63 45.63 0 1 1-12.52-87.1c21.72 2.65 38.34 21.07 39.8 42.67.27 4 6.46 4 6.19 0-1.46-21.61-15.69-40.51-36.59-46.94a51.8 51.8 0 1 0-2.11 99.73c23.69-6.09 39.67-28.52 38.72-52.75-.18-3.97-6.36-3.99-6.21-.04z" fill="#1a1c3f" class="fill-1a1c3f"></path><circle cx="678.98" cy="230.64" fill="#ffffff" r="32.18" class="fill-ffffff"></circle><circle cx="681.78" cy="237.98" fill="#ddede8" r="27.56" class="fill-ddede8"></circle><path d="M708 228.92c.51 15.83-11.18 29.84-27.33 30.76a29.09 29.09 0 1 1-3.43-58.08c16-.92 29.57 11.49 30.76 27.32.29 4 6.48 4 6.18 0-1.1-14.7-10.49-27.47-24.73-32a35.28 35.28 0 1 0-2.5 68c16.6-3.8 27.77-19.28 27.23-36.08-.1-3.84-6.29-3.9-6.18.08z" fill="#1a1c3f" class="fill-1a1c3f"></path><g fill="#ff810a" class="fill-34c6a0"><path d="M659 246.29c3.84-4.83 7.26-10 10.83-15.06 3.89-5.48 8.15-10.84 11.58-16.62.65-1.09-1-2.44-1.81-1.4-3.87 4.83-7.13 10.19-10.6 15.31-3.76 5.57-7.78 11-11.24 16.81-.45.75.67 1.68 1.24 1zM695.44 211.59c-7.92 9.87-14.88 20.78-21.57 31.51-.77 1.23 1.15 2.33 1.93 1.13 6.91-10.56 14.27-20.93 20.88-31.68.46-.75-.67-1.67-1.24-1zM676.59 252.81h.25a.9.9 0 0 0 .46-.12l.19-.15a1 1 0 0 0 .24-.4.77.77 0 0 0 0-.37.62.62 0 0 0-.11-.34.64.64 0 0 0-.23-.26.74.74 0 0 0-.32-.16 1 1 0 0 0-.48 0l-.25.05a.73.73 0 0 0-.3.16.64.64 0 0 0-.22.24l-.09.21a.73.73 0 0 0 0 .36.43.43 0 0 0 .06.22.67.67 0 0 0 .19.28l.17.14a.89.89 0 0 0 .45.12zM683.3 248.33l.08-.23a1 1 0 0 0-.26-1 1 1 0 0 0-.44-.25.74.74 0 0 0-.39 0 .81.81 0 0 0-.37.12 1 1 0 0 0-.36.36 1.06 1.06 0 0 0-.13.5 1.13 1.13 0 0 0 .13.5l.1.2.14.18.18.14.21.1a.73.73 0 0 0 .36 0 .44.44 0 0 0 .23-.06.41.41 0 0 0 .2-.12.41.41 0 0 0 .16-.16.67.67 0 0 0 .16-.3zM667.08 215.17v-.25a.84.84 0 0 0-.22-.55.56.56 0 0 0-.25-.16.6.6 0 0 0-.3-.07.81.81 0 0 0-.55.23.78.78 0 0 0-.22.55v.25a.78.78 0 0 0 .23.54.51.51 0 0 0 .25.16.59.59 0 0 0 .29.07.76.76 0 0 0 .55-.23.74.74 0 0 0 .23-.54zM671 209.39a.78.78 0 0 0 0-1.55.78.78 0 0 0 0 1.55zM672.28 214.61a.78.78 0 0 0 0-1.55.78.78 0 0 0 0 1.55zM639.89 225.23a40.35 40.35 0 0 1 12.21-22.78c7.1-6.64 15.3-9.48 24.53-11.79a1.36 1.36 0 0 0-.36-2.66c-20.49-.64-35.88 18.07-38.4 37-.15 1.14 1.81 1.41 2 .27zM683.25 190.85v-.07l-.43.55a1.18 1.18 0 0 0 .63-.92 1.13 1.13 0 0 0-.2-.84 1.06 1.06 0 0 0-.38-.38 1 1 0 0 0-.54-.15 1.08 1.08 0 0 0-.92.53 1.23 1.23 0 0 0-.16 1 3 3 0 0 0 .14.34 1.21 1.21 0 0 0 .39.39l.33.13-.56-.42v.06l.14.19.18.14a.92.92 0 0 0 1.32-.54z"></path></g><path d="M717.06 219.9c2.39 17.85-2.71 34.6-17.16 46-.85.67.26 2.08 1.16 1.5 15.52-10 24-29.8 17.52-47.68-.28-.76-1.65-.72-1.52.2zM695.88 269.64a1.1 1.1 0 0 0 0-2.19 1.1 1.1 0 0 0 0 2.19z" fill="#ffffff" class="fill-ffffff"></path><circle cx="693.8" cy="365" fill="#010606" r="48.7" class="fill-4747e2"></circle><circle cx="703.39" cy="376.17" fill="#ff810a" r="48.7" class="fill-34c6a0"></circle><path d="M739.34 362.4c.74 18.91-9.75 36.78-27.29 44.43a45.63 45.63 0 1 1-12.52-87.11c21.73 2.66 38.34 21.07 39.81 42.68.26 4 6.45 4 6.18 0-1.46-21.62-15.69-40.51-36.58-46.94a51.8 51.8 0 1 0-2.14 99.69c23.69-6.1 39.67-28.52 38.72-52.75-.15-3.97-6.34-3.99-6.18 0z" fill="#1a1c3f" class="fill-1a1c3f"></path><circle cx="693.8" cy="365" fill="#ffffff" r="32.18" class="fill-ffffff"></circle><circle cx="696.61" cy="372.34" fill="#ddede8" r="27.56" class="fill-ddede8"></circle><path d="M722.84 363.28c.51 15.83-11.17 29.84-27.32 30.76a29.09 29.09 0 1 1-3.44-58.04c16-.92 29.57 11.49 30.76 27.32.3 4 6.49 4 6.19 0-1.1-14.7-10.5-27.47-24.74-32a35.28 35.28 0 1 0-2.5 68c16.61-3.8 27.78-19.28 27.24-36.08-.13-3.93-6.32-3.95-6.19.04z" fill="#1a1c3f" class="fill-1a1c3f"></path><g fill="#ff810a" class="fill-34c6a0"><path d="M673.85 380.65c3.84-4.83 7.26-10 10.84-15.06 3.88-5.48 8.14-10.85 11.57-16.62.65-1.09-1-2.45-1.81-1.4-3.87 4.83-7.13 10.18-10.59 15.31-3.77 5.57-7.79 11-11.25 16.81-.45.75.67 1.68 1.24 1zM710.26 346c-7.92 9.86-14.88 20.78-21.57 31.51-.76 1.23 1.15 2.33 1.93 1.13 6.92-10.57 14.27-20.94 20.88-31.68.46-.75-.67-1.68-1.24-1zM691.41 387.17h.25a1 1 0 0 0 .47-.12l.18-.15a.83.83 0 0 0 .24-.4.78.78 0 0 0 0-.37.8.8 0 0 0-.11-.34.75.75 0 0 0-.24-.26.71.71 0 0 0-.31-.16.82.82 0 0 0-.49 0l-.24.05a.61.61 0 0 0-.3.15.78.78 0 0 0-.23.25l-.09.21a.6.6 0 0 0 0 .35.46.46 0 0 0 .06.23.57.57 0 0 0 .18.28l.18.14a.83.83 0 0 0 .44.12zM698.13 382.68l.07-.22a1 1 0 0 0-.26-1 .89.89 0 0 0-.43-.25.78.78 0 0 0-.4 0 .74.74 0 0 0-.37.12 1 1 0 0 0-.35.35 1 1 0 0 0-.14.5 1 1 0 0 0 .14.5l.09.21.14.18.18.14.22.09a.63.63 0 0 0 .36 0 .43.43 0 0 0 .22-.06.37.37 0 0 0 .2-.12.41.41 0 0 0 .2-.12.73.73 0 0 0 .17-.31zM681.9 349.52v-.25a.78.78 0 0 0-.23-.54.51.51 0 0 0-.25-.16.6.6 0 0 0-.3-.07.79.79 0 0 0-.77.77v.25a.81.81 0 0 0 .23.55.51.51 0 0 0 .25.16.6.6 0 0 0 .3.07.78.78 0 0 0 .54-.23.76.76 0 0 0 .23-.55zM685.82 343.74a.77.77 0 0 0 0-1.54.77.77 0 0 0 0 1.54zM687.11 349a.78.78 0 0 0 0-1.55.78.78 0 0 0 0 1.55zM654.71 359.59a40.37 40.37 0 0 1 12.21-22.78c7.1-6.64 15.3-9.49 24.54-11.79a1.36 1.36 0 0 0-.36-2.66c-20.5-.64-35.89 18.07-38.41 37-.15 1.14 1.82 1.41 2 .27zM698.08 325.21v-.07l-.43.55a1.15 1.15 0 0 0 .63-.92 1.13 1.13 0 0 0-.2-.84 1.09 1.09 0 0 0-.38-.39 1.14 1.14 0 0 0-.54-.14 1.08 1.08 0 0 0-.92.53 1.27 1.27 0 0 0-.16 1c0 .1.11.28.14.33a1.1 1.1 0 0 0 .4.4l.32.13-.56-.42v.06l.14.18.18.14a.85.85 0 0 0 .58.11.92.92 0 0 0 .75-.64z"></path></g><path d="M731.88 354.26c2.39 17.85-2.71 34.6-17.15 46-.85.68.25 2.09 1.15 1.5 15.53-10 24-29.79 17.52-47.68-.27-.75-1.64-.72-1.52.21zM710.7 404a1.1 1.1 0 0 0 0-2.2 1.1 1.1 0 0 0 0 2.2z" fill="#ffffff" class="fill-ffffff"></path><circle cx="708.62" cy="499.36" fill="#010606" r="48.7" class="fill-4747e2"></circle><circle cx="718.21" cy="510.53" fill="#ff810a" r="48.7" class="fill-34c6a0"></circle><path d="M754.16 496.76c.74 18.91-9.75 36.77-27.29 44.43a45.63 45.63 0 1 1-12.52-87.11c21.73 2.66 38.35 21.07 39.81 42.68.27 3.95 6.46 4 6.19 0-1.47-21.62-15.69-40.52-36.59-46.94a52.28 52.28 0 0 0-56.94 19c-12.86 17.47-13.26 42.2-.81 60a52.36 52.36 0 0 0 55.62 20.7c23.68-6.09 39.67-28.51 38.72-52.74-.16-3.99-6.35-4.01-6.19-.02z" fill="#1a1c3f" class="fill-1a1c3f"></path><circle cx="708.62" cy="499.36" fill="#ffffff" r="32.18" class="fill-ffffff"></circle><circle cx="711.43" cy="506.7" fill="#ddede8" r="27.56" class="fill-ddede8"></circle><path d="M737.66 497.64c.51 15.82-11.17 29.83-27.32 30.76a29.09 29.09 0 1 1-3.44-58.08c16-.92 29.58 11.49 30.76 27.32.3 3.95 6.49 4 6.19 0-1.1-14.7-10.5-27.47-24.74-32a35.28 35.28 0 1 0-2.49 68c16.6-3.81 27.77-19.28 27.23-36.08-.13-3.89-6.32-3.91-6.19.08z" fill="#1a1c3f" class="fill-1a1c3f"></path><g fill="#ff810a" class="fill-34c6a0"><path d="M688.68 515c3.84-4.84 7.26-10 10.83-15.07 3.89-5.47 8.14-10.84 11.58-16.61.65-1.1-1-2.45-1.81-1.4-3.87 4.83-7.13 10.18-10.6 15.3-3.77 5.57-7.79 11-11.25 16.82-.45.74.67 1.67 1.25 1zM725.08 480.31c-7.92 9.86-14.88 20.78-21.57 31.51-.76 1.22 1.15 2.32 1.94 1.12 6.91-10.56 14.26-20.93 20.88-31.68.46-.74-.67-1.67-1.25-.95zM706.24 521.53h.25a.84.84 0 0 0 .46-.13l.19-.14a.88.88 0 0 0 .23-.41.63.63 0 0 0 0-.36.68.68 0 0 0-.11-.34.67.67 0 0 0-.24-.26.73.73 0 0 0-.31-.17 1 1 0 0 0-.49 0h-.24a.73.73 0 0 0-.3.16.69.69 0 0 0-.23.25l-.09.21a.69.69 0 0 0 0 .35.4.4 0 0 0 .06.22.68.68 0 0 0 .18.29l.18.14a.89.89 0 0 0 .45.12zM713 517l.07-.23a1 1 0 0 0-.25-1 1.1 1.1 0 0 0-.44-.26.74.74 0 0 0-.39 0 .67.67 0 0 0-.37.11 1 1 0 0 0-.36.36 1 1 0 0 0 0 1l.09.21.14.18.19.14.21.09a.73.73 0 0 0 .36 0 .39.39 0 0 0 .23-.07.56.56 0 0 0 .2-.11.49.49 0 0 0 .16-.16.71.71 0 0 0 .16-.26zM696.72 483.88v-.25a.83.83 0 0 0-.23-.55.6.6 0 0 0-.25-.16.58.58 0 0 0-.29-.06.8.8 0 0 0-.55.22.83.83 0 0 0-.23.55v.25a.84.84 0 0 0 .22.55.67.67 0 0 0 .25.16.6.6 0 0 0 .3.07.81.81 0 0 0 .55-.23.8.8 0 0 0 .22-.55zM700.64 478.1a.78.78 0 0 0 0-1.55.78.78 0 0 0 0 1.55zM701.93 483.33a.78.78 0 0 0 0-1.55.78.78 0 0 0 0 1.55zM669.53 494a40.43 40.43 0 0 1 12.21-22.78c7.1-6.64 15.3-9.49 24.54-11.8a1.36 1.36 0 0 0-.36-2.66c-20.5-.64-35.89 18.08-38.41 37-.15 1.14 1.82 1.41 2 .27zM712.9 459.56v-.07l-.42.56a1.18 1.18 0 0 0 .62-.92 1.17 1.17 0 0 0-.2-.85 1.06 1.06 0 0 0-.38-.38 1.07 1.07 0 0 0-1.45.38 1.22 1.22 0 0 0-.16 1 2.27 2.27 0 0 0 .13.33 1.1 1.1 0 0 0 .4.4l.32.13-.55-.43v.07l.14.18.18.14a.93.93 0 0 0 .57.11.91.91 0 0 0 .75-.65z"></path></g><path d="M746.7 488.62c2.39 17.84-2.7 34.6-17.15 46-.85.67.25 2.08 1.16 1.5 15.52-10 24-29.79 17.51-47.68-.27-.75-1.64-.72-1.52.21zM725.53 538.36a1.1 1.1 0 0 0 0-2.2 1.1 1.1 0 0 0 0 2.2z" fill="#ffffff" class="fill-ffffff"></path><path d="M698.94 728.45c20.79-5.29 48-7.24 69.41-7.76-5.34 1-4.62 8.86-2.59 13.9a676.81 676.81 0 0 1 31.68 100.06l-20.78-37.59A613.76 613.76 0 0 1 784 919.52c-3.39-1.23-4.93-5.07-6.08-8.49q-9.8-29.09-19.58-58.18c1.66 36.87 3.11 75-10.52 109.33a441.87 441.87 0 0 1-42.47-137.75q-.6 39.95-4 79.78A223.11 223.11 0 0 1 696.26 784a23.08 23.08 0 0 1-8.26 12.16c2.67-24.56 10.91-37.87 16.71-66.4" fill="#eab642" class="fill-eab642"></path><path d="M699.38 730.05c22.59-5 45.88-6.67 69-7l-.62-4.57c-6.47 1.83-6.58 9.2-5.08 14.67 3 11 8.24 21.74 12 32.57a685.75 685.75 0 0 1 20.07 69.72l5.16-2.18-20.69-37.64c-1.71-3.11-5.84-.83-5.35 2.26a626.41 626.41 0 0 1 7 121.68l4.86-2.79c-4.53-2.2-5.65-9.72-7.11-14.07l-5.67-16.89L761.54 852c-1.12-3.35-6.61-3-6.44.87 1.61 36.4 3 73.88-10.47 108.44l6.12-.8a445.21 445.21 0 0 1-42-137c-.54-3.92-6.68-2.82-6.74.91q-.63 40-4 79.78l6.71-.91a221.18 221.18 0 0 1-5.26-118.45c1-4.09-5-5.75-6.29-1.73a21.68 21.68 0 0 1-7.4 10.73l5.57 2.31c2.6-22.48 12-43.45 16.62-65.53.86-4.13-5.48-5.89-6.34-1.74-4.7 22.7-14.16 44.14-16.81 67.27-.36 3.14 3.66 3.87 5.58 2.31a27.6 27.6 0 0 0 9.07-13.62l-6.29-1.73a230 230 0 0 0 5 122c1.21 3.78 6.37 2.89 6.7-.91 2.32-26.53 3.62-53.15 4.05-79.78l-6.75.92A448.81 448.81 0 0 0 745 963.87c1.41 2.84 5.17 1.64 6.12-.8 13.64-35.09 12.25-73.28 10.57-110.22l-6.44.87 13.29 39.41c2.1 6.25 4.13 12.54 6.32 18.77 1.51 4.27 3.3 8.34 7.58 10.41a3.27 3.27 0 0 0 4.86-2.79 620.16 620.16 0 0 0-7.78-123.24l-5.36 2.26q10.43 18.76 20.87 37.53c1.59 2.86 5.89.89 5.16-2.17q-7-29.74-16.68-58.79-4.83-14.49-10.32-28.77c-1.32-3.41-11.11-21.3-4.19-23.41 2.44-.74 2.09-4.67-.62-4.57-23.32.83-47.26 2.24-69.85 8.49-2.06.57-1.19 3.66.88 3.2z" fill="#eab642" class="fill-eab642"></path><g fill="#fad570" class="fill-ef6348"><path d="M688.38 800.49c7.3-9.37 14.59-18.77 22-28l-3.78-.49c2.51 4.42 5 8.89 7.59 13.25a2.56 2.56 0 0 0 4.62-.6 113.81 113.81 0 0 0 3.9-19.59c.25-2.33-3.66-2.87-4.1-.56a166 166 0 0 1-4.67 18.8l4.61-.6c-2.49-4.44-5.14-8.79-7.73-13.17-.73-1.21-2.85-1.77-3.84-.49-7.45 9.56-14.61 19.27-21.32 29.37-1.06 1.61 1.5 3.65 2.72 2.09zM719.15 748.85l.46-.4a1.69 1.69 0 0 0 .45-.7 1.58 1.58 0 0 0 .18-.83 1.56 1.56 0 0 0-.18-.83 1.63 1.63 0 0 0-.45-.7l-.44-.34a2.17 2.17 0 0 0-1.09-.29l-.57.07a2.22 2.22 0 0 0-1 .56l-.4.46a1.51 1.51 0 0 0-.44.68 1.86 1.86 0 0 0 0 1.64 1.51 1.51 0 0 0 .44.68l.43.34a2.12 2.12 0 0 0 1.07.29l.57-.08a2 2 0 0 0 .93-.55zM729.94 746.93l.58-.77a1.87 1.87 0 0 0 .2-1.48 1.84 1.84 0 0 0-1.11-1.23 1.79 1.79 0 0 0-1.47 0 1.89 1.89 0 0 0-1.11 1.23l-.25.92a1.71 1.71 0 0 0 1 2 1.61 1.61 0 0 0 1.12.09l.41-.17a1.87 1.87 0 0 0 .63-.62zM724.13 759.3a1.59 1.59 0 0 0 0-3.17 1.59 1.59 0 0 0 0 3.17zM744.39 772.82q1.86 20.28 5.13 40.39c.33 2 3.51 2.34 4.38.57 4.13-8.38 6.29-17.33 8.32-26.39h-4.91q6.13 15.52 12.29 31.07c.82 2.08 4.69 2.9 5.09 0 1.15-8.19 2-16.39 2.47-24.65l-5 1.35c9.49 13 13.55 28.91 23.42 41.64 2.08 2.67 5.78-1.08 3.73-3.73-9.56-12.35-13.35-28-22.55-40.6a2.69 2.69 0 0 0-5 1.34q-.69 11.66-2.23 23.24h5.09q-6.23-15.51-12.47-31c-.84-2.11-4.32-2.71-4.91 0-1.89 8.64-3.86 17.25-7.55 25.33l4.38.57q-3.75-19.44-6.15-39.11c-.28-2.25-3.82-2.34-3.6 0zM707.69 907.64c.94-22.54 2.43-45 4.22-67.49l-4.85 2 17.58 15.74a2.86 2.86 0 0 0 4 0c2.38-2.4 2.73-5.2 3-8.46.43-5.28.79-10.58 1.17-15.87.25-3.53-5.21-3.49-5.49 0s-.56 6.85-.83 10.27c-.22 2.82.33 8-1.8 10.09h4l-17.52-15.79a2.88 2.88 0 0 0-4.85 2 620.35 620.35 0 0 0-1.78 67.49 1.62 1.62 0 0 0 3.24 0zM722.83 818.59c2.78 0 2.79-4.33 0-4.33s-2.79 4.33 0 4.33zM731 809.77c2.55 0 2.56-4 0-4s-2.55 4 0 4zM730.6 823.66a1.62 1.62 0 0 0 0-3.24 1.62 1.62 0 0 0 0 3.24zM761.25 771.53a1.73 1.73 0 0 0 0-3.46 1.73 1.73 0 0 0 0 3.46zM745.5 859.9c.85 4.09 2 8.13 2.78 12.22a2.24 2.24 0 0 0 3.72 1c2.68-2.68 5.15-5.58 7.68-8.39l-4-.53a331.52 331.52 0 0 1 12.11 32.57c3 9.77 5.73 20.5 11.93 28.83 2.11 2.83 6.71.38 4.86-2.85-5.63-9.86-8.85-20.12-12.34-30.88a238.73 238.73 0 0 0-12.1-30.27 2.6 2.6 0 0 0-4.06-.53c-2.54 3.1-5.15 6.14-7.53 9.35l4.07.54c-1.43-3.93-2.6-8-4-11.88a1.58 1.58 0 0 0-3 .84zM737.63 890c-1.23 6.09-2.45 12.17-3.57 18.28-.61 3.36-1.47 6.21.8 9a2.29 2.29 0 0 0 2.77.35c2.6-1.49 5.13-3.06 7.62-4.73l-3.7-2.12c-1 9.45-2.51 19.26-2.24 28.78.08 2.75 4.61 3.66 5 .68 1.39-9.7 1.43-19.69 2.12-29.46a2.47 2.47 0 0 0-3.69-2.13c-2.43 1.77-4.9 3.45-7.45 5l2.77.36c-1.45-1.66.86-9.82 1.12-11.77.52-4 1-7.94 1.46-11.91.21-1.72-2.69-2.11-3-.41zM744.25 953l.31-.26a1.77 1.77 0 0 0 .38-2 1.4 1.4 0 0 0-.38-.59l-.37-.29a1.84 1.84 0 0 0-.92-.25l-.49.07a1.84 1.84 0 0 0-.81.47l-.27.32a1.34 1.34 0 0 0-.37.57 1.41 1.41 0 0 0-.15.7 1.34 1.34 0 0 0 .15.69 1.32 1.32 0 0 0 .37.58l.37.28a1.71 1.71 0 0 0 .91.25l.48-.07a1.67 1.67 0 0 0 .79-.46zM686.45 682.91a235.59 235.59 0 0 1 42.43-8.27c14.06-1.38 27.81-.45 41.86-.52 2.39 0 3.11-4 .59-4.32-14.1-2-29.31-.67-43.37 1a240.91 240.91 0 0 0-42.33 9.09c-1.9.59-1.1 3.54.82 3zM688.07 708a236.79 236.79 0 0 1 42.43-8.26c14.07-1.39 27.81-.45 41.86-.52 2.39 0 3.12-4 .59-4.32-14.1-2-29.31-.67-43.37 1a240.91 240.91 0 0 0-42.33 9.1c-1.89.59-1.1 3.54.82 3z"></path></g><g fill="#ffffff" class="fill-ffffff"><path d="M663 833c-8.88 15-21.77 27-36.71 36a137 137 0 0 1-22.84 10.88c-8.79 3.23-18.57 6.53-28 5.86-7.57-.54-18.56-5.83-17.55-15 1-8.8 11.18-11.11 15.27-2.95 3.9 7.78.23 18.57-3.75 25.62a44.09 44.09 0 0 1-16.86 16.85c-14.15 7.89-32.4 5.64-44.55-5-14.14-12.4-13.58-31.92-16.93-48.95-5.81-29.59-31.7-58.09-64.07-53.88-15.34 2-30.6 11.1-37.48 25.32-3.73 7.71-5.45 17.17-2.13 25.33a17.76 17.76 0 0 0 19.53 11.2c3.64-.61 3.53-6.56 0-7.26-15.64-3.07-34.55 4.63-38.87 21.19-3.92 15 7 31.88 22.75 32.86l-1-7.31c-11.86 3.19-14.51 20.17-4.36 26.91 3.86 2.56 7.18-3.47 3.57-6.12-4.76-3.49-2.66-12.16 2.77-13.61 4.2-1.12 3.1-7.05-1-7.31-11.38-.73-18.69-14.27-15.18-24.62 3.94-11.65 18-17 29.3-14.73v-7.26c-13 2.14-12.74-16.23-9.54-24s9.26-13.71 16.38-17.72c15.18-8.57 33.21-6.67 47.14 3.43 15.2 11 22.32 28.27 25.11 46.37 2.77 18.33 5.23 36.56 21 48.5 13.31 10.07 31.51 12.68 46.94 6.19 15.25-6.42 27.22-20.84 30.31-37.17 1.57-8.3 1-17.63-5.35-23.88-5.29-5.2-13.31-6.57-19.57-2.25a18.52 18.52 0 0 0-7.3 18.94c1.87 7.79 8.46 13.46 15.82 16 10.51 3.57 21.92.29 32-3.25a151.74 151.74 0 0 0 27.08-12.44c16.9-10 31.45-23.77 40.88-41.1A1.62 1.62 0 0 0 663 833zM555.51 940.49a68.24 68.24 0 0 0 37.19-27.65c1.73-2.59-2.48-5.05-4.17-2.44a65.88 65.88 0 0 1-34 26.54c-2.22.76-1.31 4.24 1 3.55zM584.76 950.5a55.27 55.27 0 0 0 28.41-24c1.29-2.21-2.18-4.24-3.42-2a51.45 51.45 0 0 1-25.83 22.94c-1.85.75-1.08 3.78.84 3zM796.57 862.22c-2.35 19.63 9.55 39.35 27.79 46.89 1.89.78 4.47-1.22 4.24-3.23-.79-7 2.63-13 7.78-17.58 5.48-4.87 14.32-9.61 21.8-7.17 6.65 2.18 10.7 9.27 11.15 16 .55 8.13-3.25 15.66-7.77 22.14L868 923c4.28-6.32 11.17-11.63 19.23-10.72 7.9.89 14.29 8.79 9.91 16.44-2.28 4 3.4 8.77 6.55 5a27 27 0 0 1 23.16-9.69c5.55.43 5.56-8.3 0-8.68a34.56 34.56 0 0 0-29.06 12.48l6.55 5c6-10.8 0-23.95-11.63-27.54-12.6-3.88-24.4 3.58-31.14 13.86-2.66 4 3.72 7.65 6.43 3.75 6-8.64 10.25-19.13 8.22-29.8-1.64-8.67-8-16.95-16.75-19.28-18.1-4.81-40.5 14.35-37.45 32.87l4.13-4.13a40.25 40.25 0 0 1-26.26-40.42c.14-2.16-3.07-2.07-3.31 0z"></path></g><g fill="#ff810a" class="fill-34c6a0"><path d="M512.91 242c-18.6 44.76-33.65 91-47 137.59a3.16 3.16 0 0 0 2.18 3.85c21.26 4.82 42.56 9.47 63.86 14.11a3.46 3.46 0 0 0 4.2-2.38 295.86 295.86 0 0 0 7.77-48.87c.15-2-1.72-3.38-3.48-3.49l-31.2-1.94c-3.28-.21-7.11-.92-10.15.82s-4.21 5.47-5.36 8.66c-6.84 18.92-13.5 37.91-20.25 56.86-2.3 6.47-2.53 12 5.14 13.94 9.61 2.47 19.54 4.07 29.25 6.1l15.6 3.26c3.35.7 11 .88 12.63 4.44.79 1.73.16 5.1.14 6.95 0 2.51-.05 5-.08 7.55l-.16 15.14 2.65-3.49a126.87 126.87 0 0 1-39.57-.89 3.68 3.68 0 0 0-4.58 3.48l-1.86 40.66a3.69 3.69 0 0 0 3.61 3.62l11.62.82c2.54.18 7.44-.41 9.69.69 1.62-.14 2.25.64 1.87 2.34l.29 2q.43 3 .88 5.91c.54 3.6 1.1 7.21 1.65 10.81 2.25 14.74 4.48 29.49 6.91 44.2.55 3.33 6.39 2.59 6-.81-2.23-17.74-4.74-35.44-7.18-53.15-.71-5.12.1-16.17-6.24-18.06-3.64-1.08-8.15-.72-11.89-1l-13.56-1 3.62 3.61 1.86-40.66-4.57 3.48a137.74 137.74 0 0 0 43.41.9c1.55-.21 2.64-2.05 2.65-3.48.09-8.81.38-17.64.26-26.44-.1-6.6-2.34-10.76-8.93-12.63-8.68-2.45-17.9-3.74-26.74-5.57l-13.65-2.84-7.8-1.62c-1.53-.32-5.2-.4-6.41-1.34-2.14-1.69 1.51-8.13 2.39-10.61l4.62-13.03 9.27-26.11c1.55-4.34 3-8.74 4.64-13.05 1.06-2.79 1.5-3.3 4.45-3.6 2.16-.23 4.64.27 6.82.4l28.27 1.68-3.49-3.48a284.73 284.73 0 0 1-7.39 47.05l4.21-2.39c-21.33-4.58-42.65-9.15-64-13.56l2.18 3.85c12.47-46.85 27.86-92.73 44.11-138.38.71-2-2.35-2.74-3.12-.87zM846.36 402.84c.79 41.73-1.1 83.23-2.72 124.92-.11 2.85 4.17 2.78 4.4 0 3.41-41.42 3-83.42 1.63-124.92-.07-2.13-3.35-2.14-3.31 0zM871.92 449.47c-.84 32.69-3.11 65.26-5.78 97.85-.22 2.65 3.86 2.6 4.11 0 3.14-32.5 4.44-65.22 4.91-97.85 0-2.09-3.19-2.09-3.24 0zM899.07 507.61a35.35 35.35 0 0 1-2.77 17.93 2.12 2.12 0 1 0 3.89 1.63 38.45 38.45 0 0 0 2.56-19.56c-.3-2.29-3.91-2.38-3.68 0zM85.19 659.57a137.94 137.94 0 0 1 12.1 7.32c2.29 1.51 4.42-2.18 2.14-3.67a77.94 77.94 0 0 0-12.57-6.51c-1.9-.8-3.61 1.86-1.67 2.86zM108.89 625.86c2.32 5.62 4.47 11.31 6.35 17.1.86 2.66 5.16 1.42 4.17-1.15a176.45 176.45 0 0 0-7.62-17.17c-.81-1.56-3.59-.45-2.9 1.22zM145.53 613.7a143.37 143.37 0 0 0-2 17.66c-.15 2.87 4.52 2.89 4.47 0a157.68 157.68 0 0 1 .61-17.25c.16-1.72-2.73-2.13-3-.41zM185.47 612.93a61.11 61.11 0 0 0-10.63 16.69 2.26 2.26 0 1 0 4.15 1.75 65.19 65.19 0 0 1 9-16.47c1.1-1.48-1.32-3.33-2.54-2zM200.62 646.51l4.2-5a2.15 2.15 0 1 0-3.4-2.62l-3.85 5.28c-1.3 1.77 1.64 4.05 3.05 2.35z"></path></g><path d="M333.21 647.4c6.53 6.9 16.27 11.35 25.46 6.51 8.37-4.42 13.54-16.37 11.14-25.48-1.14-4.37-7.79-2.53-6.75 1.86 1.38 5.92-2.63 14.78-7.74 17.9-6.87 4.2-14.21 2-19.87-3a1.58 1.58 0 0 0-2.24 2.24zM490.71 710.4c-4.24-8.81.15-17.57 1-26.64.33-3.57-5.72-4.43-6.31-.85-.86 5.21-3.14 10.43-3.15 15.75a23 23 0 0 0 4.93 13.81 2.06 2.06 0 0 0 3.55-2.07z" fill="#1a1c3f" class="fill-1a1c3f"></path><g fill="#eab642" class="fill-eab642"><path d="M626.22 139a531.87 531.87 0 0 0-24 149.29c-1 52.12 5.41 103.64 13.75 155 4.81 29.65 9.38 59.41 15.36 88.85.51 2.48 4.16 1.4 3.76-1-4.27-25.8-9.5-51.46-13.06-77.37-3.62-26.31-6.51-52.66-8.08-79.17-1.48-24.95-2.91-49.93-2.87-74.94 0-25.21 1.45-50.22 3.67-75.32a477.64 477.64 0 0 1 15-84.34c.61-2.25-2.78-3.17-3.48-1zM634.05 546.6c.53 2.85 5 3.34 6.14.67a2 2 0 0 0-.7-2.66 2 2 0 0 0-2.66.69c-.14.3-.1.14.06 0 .34-.34.23-.14 0-.06.53-.23.2-.09.05-.06.39-.06.4-.06 0 0s-.35.05 0 0h-.34s.52.14.07 0l.24.1c-.13-.08-.12-.08 0 0s.13.1 0 0c.16.2.19.23.1.07a1.69 1.69 0 0 0-2.12-.7 1.74 1.74 0 0 0-1 2zM637 554.65a6.09 6.09 0 0 0 2.42 2.11 3.09 3.09 0 0 0 3.44-.62 3.33 3.33 0 0 0 .79-3 2.72 2.72 0 0 0-2.72-2.07 2.17 2.17 0 0 0 0 4.33c.29 0-.33-.07-.33-.07a1.68 1.68 0 0 1-.86-.57 1.31 1.31 0 0 1-.32-.84c0 .39 0-.3.05-.28a1.22 1.22 0 0 1 0 .17c-.13.25.12-.26.13-.27-.15.28.33-.34.16-.18s0 0 .12-.09a.61.61 0 0 1 .31-.18c.44-.24-.21 0 .17-.06h.26c-.32-.05.08 0 .07 0l-.51-.3c-.39-.25.15.16 0 0l-.28-.25a1.85 1.85 0 0 0-2.37-.14 1.79 1.79 0 0 0-.46 2.33z"></path></g><path d="M671.38 852.64c-1.57 12.35-12.81 19.51-22.84 24.93-9.52 5.14-19.17 10.22-25.1 19.66-4.85 7.71-6.44 17.77-1.24 25.77 4.83 7.38 13.53 10.66 22 9.33 4-.62 3.09-7.38-1-7.09-21.87 1.53-36.3 23.68-28 44.32a4 4 0 1 0 7.33-3.1c-7-15.57 4-32.82 20.72-34l-1-7.1a14.22 14.22 0 0 1-16.18-15.24c.94-10.26 9.53-17.07 17.45-22.34 13.25-8.8 30.15-17.21 31.53-35.1.19-2.45-3.45-2.33-3.74 0zM801.48 908.41a53 53 0 0 0 11.27 18.89c5.49 6.2 13 10.53 18.29 16.72a3.25 3.25 0 0 0 3.24.86c5.62-2.2 11.89-4.88 18-3.85 5.14.86 9.54 4.77 8.88 10.25-.39 3.19 3.41 4.21 5.68 3.25 4.63-2 11.55-4.27 16.21-1.22 5 3.27 3.52 10.1 4.53 15.07.74 3.64 6.54 3.6 7.32 0 1.64-7.63-.71-17.78-7.81-22-7.49-4.44-16.73-1.67-24.06 1.62l5.67 3.26c.63-6.4-3.21-12.06-8.7-15.09-6.39-3.53-13.9-2.64-20.57-.44-1.94.64-4.16 2.12-6.19 1.81-1.77-.27-3.35-1.81-4.79-2.82a117.5 117.5 0 0 1-9.43-7.21c-6.4-5.51-11.63-11.93-14.52-20-.69-1.89-3.69-1.12-3.06.84z" fill="#1a1c3f" class="fill-1a1c3f"></path><path d="M728.83 570.31a51.64 51.64 0 0 0-22.1 4.64c-2.79 1.28-5.6 2.94-7 5.63s-1.29 5.89-1.07 8.92c4.92 67.94 21.62 134.4 38.26 200.45 1.52 6 3.06 12.12 4.92 18.08s11 4.88 11.12-1.51a1436.75 1436.75 0 0 0-9.58-209.43c-1.11-9.33-2.39-18.9-6.85-27.19" fill="#ffffff" class="fill-ffffff"></path><path d="M738.37 575.75a51.5 51.5 0 0 0-22.1 4.65c-2.78 1.27-5.59 2.93-7 5.62s-1.28 5.9-1.06 8.93c4.91 67.93 21.62 134.39 38.26 200.45 1.52 6 3.06 12.11 4.92 18.07s10.94 4.88 11.12-1.51a1438.22 1438.22 0 0 0-9.58-209.43c-1.12-9.33-2.4-18.9-6.85-27.18" fill="#010606" class="fill-4747e2"></path><path d="M728.83 568.26c-12.44-.5-33.27 2.09-33.54 18.18-.15 9.33 1.38 19 2.43 28.23q1.53 13.47 3.57 26.86c5.62 37.23 13.9 74 22.87 110.52 4.49 18.32 8.43 37 14.06 55 1.47 4.71 4.33 8.46 9.76 8 4.74-.38 7.62-4.06 8-8.57.78-9.44.09-19.24.12-28.7s0-19.14-.2-28.71c-.33-19.13-.82-38.25-1.79-57.37q-1.65-32.61-4.78-65.13c-1-10.43-2.09-20.87-3.36-31.27-1.13-9.33-2.69-18.44-7-26.9-1.68-3.31-6.68-.39-5 2.92 7.24 14.15 7.33 31.86 9 47.37q2.67 25.11 4.44 50.29c2.35 33.24 3.6 66.56 3.41 99.89 0 8.25-.15 16.5-.44 24.74-.13 3.88.11 8-.46 11.88-.44 2.92-3.13 4.87-5.08 1.66s-2.37-8.17-3.3-11.73l-3-12c-2-7.87-4-15.74-5.89-23.62-7.87-31.82-15.35-63.77-21.13-96-3.27-18.21-6-36.52-7.9-54.92q-.75-7.25-1.36-14.52c-.34-4-1.65-9.58.87-13.05s8-5.08 11.76-6.39a47.86 47.86 0 0 1 14-2.54 2.06 2.06 0 0 0 0-4.11z" fill="#1a1c3f" class="fill-1a1c3f"></path></svg>