<svg data-name="Layer 2" viewBox="0 0 64 64" xmlns="http://www.w3.org/2000/svg"><path d="M32 24a12 12 0 1 1 12-12 12.013 12.013 0 0 1-12 12Zm0-20a8 8 0 1 0 8 8 8.01 8.01 0 0 0-8-8Zm.249 12.562 5-4a2 2 0 1 0-2.498-3.123l-3.603 2.881-1.734-1.734a2 2 0 0 0-2.828 2.828l3 3a1.999 1.999 0 0 0 2.663.147Zm31.571 15.61-5-11a1.995 1.995 0 0 0-1.077-1.028L46.99 15.842a2 2 0 0 0-1.486 3.713L51.615 22 32 29.846 12.385 22l6.111-2.445a2 2 0 1 0-1.486-3.713L6.257 20.144a1.995 1.995 0 0 0-1.077 1.029l-5 11a1.998 1.998 0 0 0 1.05 2.673L5 36.416V52a2.002 2.002 0 0 0 1.257 1.857l25 10a2.005 2.005 0 0 0 1.42.025l25-9A2 2 0 0 0 59 53V36.416l3.77-1.57a1.998 1.998 0 0 0 1.05-2.673ZM8.03 24.568l21.135 8.453-4.059 7.44-20.431-8.512ZM9 38.083l16.23 6.763a2.002 2.002 0 0 0 2.526-.888L30 39.844v19.202l-21-8.4Zm46 13.512-21 7.56V39.844l2.244 4.114a2 2 0 0 0 2.526.888L55 38.083ZM38.894 40.46l-4.059-7.44 21.135-8.454 3.355 7.381Z" fill="#ffffff" class="fill-000000"></path></svg>