<?xml version="1.0" ?><!DOCTYPE svg  PUBLIC '-//W3C//DTD SVG 1.1//EN'  'http://www.w3.org/Graphics/SVG/1.1/DTD/svg11.dtd'><svg enable-background="new 0 0 24 24" height="24px" id="Layer_1" version="1.1" viewBox="0 0 24 24" width="24px" xml:space="preserve" xmlns="http://www.w3.org/2000/svg" xmlns:xlink="http://www.w3.org/1999/xlink"><g><path d="M4.5,9H4V7H3V4.5C3,4.224,2.776,4,2.5,4S2,4.224,2,4.5V7H1v2H0.5v1H0v8h0.001v4h5V10H4.5V9z M2,20H1v-1h1V20z M2,18H1v-1h1   V18z M2,16H1v-1h1V16z M2,14H1v-1h1V14z M2,12H1v-1h1V12z M4,20H3v-1h1V20z M4,18H3v-1h1V18z M4,16H3v-1h1V16z M4,14H3v-1h1V14z    M4,12H3v-1h1V12z"/><path d="M10,10H7v2H6.001H6v6h0.001v4H11V12h-1V10z M8,20H7v-1h1V20z M8,18H7v-1h1V18z M8,16H7v-1h1V16z M8,14H7v-1h1V14z M10,20H9   v-1h1V20z M10,18H9v-1h1V18z M10,16H9v-1h1V16z M10,14H9v-1h1V14z"/><path d="M21.999,10H21V6h-2V2.5C19,2.224,18.776,2,18.5,2S18,2.224,18,2.5V6h-2.001L16,10h-0.001h-1v12h7v-4H22L21.999,10z M20,7v1   h-1V7H20z M17,7h1v1h-1V7z M16.999,9H18v1h-0.001h-1V9z M15.999,11h1v1h-1V11z M15.999,13h1v1h-1V13z M16.999,20h-1v-1h1V20z    M16.999,18h-1v-1h1V18z M17,16h-1.001v-1h1H17V16z M19,20h-1.001v-1H19V20z M19,18h-1.001v-1H19V18z M19,16h-1.001v-1H19V16z    M19,14h-1.001v-1H19V14z M19,12h-1.001v-1H19V12z M19,9h1v1h-1V9z M21,20h-1v-1h1V20z M21,18h-1v-1h1V18z M21,16h-1v-1h1V16z    M21,14h-1v-1h1V14z M21,12h-1v-1h1V12z"/><path d="M9,9h2v2h1v11h2V3H9V9z M12,5h1v1h-1V5z M12,7h1v1h-1V7z M12,9h1v1h-1V9z M10,5h1v1h-1V5z M10,7h1v1h-1V7z"/></g></svg>