<svg viewBox="0 0 512 512" xml:space="preserve" xmlns="http://www.w3.org/2000/svg"><path d="m385.252 228.529-53.975-53.974-57.911 56.899-.013-.012-1.338 1.338-.276.271.003.002-5.068 5.067-19.657 4.248c-7.261 1.569-14.967 3.042-22.035 5.527l-13.188-6.365-6.482-6.483 3.184-3.184-13.768-13.768-7.642-7.631-34.968-36.803-53.313 53.314 42.83 44.212 13.547 13.99 2.537-2.537 6.71 6.709 5.038 20.449a79.968 79.968 0 0 0 10.323 24.041l-10.883 9.679c-4.265 4.265-4.265 11.179 0 15.444 4.034 4.033 10.435 4.246 14.725.649l-.367.368c-4.744 4.744-4.744 12.437 0 17.181 4.416 4.417 11.384 4.717 16.153.911-3.473 4.65-3.11 11.261 1.115 15.486 4.638 4.638 12.157 4.638 16.795 0l1.357-1.357c-3.997 3.998-3.997 10.479.001 14.478 3.998 3.998 10.48 3.998 14.479 0l7.824-7.825 1.676 1.781c4.329 2.555 11.812 2.007 15.501-1.683 4.381-4.381 4.35-11.515-.068-15.933l10.869 10.869c4.419 4.419 11.553 4.449 15.934.068s4.35-11.514-.068-15.932l7.814 7.814c4.398 4.398 11.515 4.412 15.896.031 4.38-4.381 4.367-11.498-.03-15.895l-9.842-9.842c4.244 4.244 11.235 4.133 15.616-.248s4.491-11.373.248-15.616l-8.625-9.699a84.116 84.116 0 0 0 8.62-20.94l5.45-20.861 7.353-7.352-.006-.005 20.062-20.062 37.863-36.819z" fill="#C6D0DC" class="fill-c6d0dc"></path><path fill="#FFFFFF" d="m222.605 218.524-53.314 53.315-13.547-13.99-42.83-44.212 53.314-53.314 34.967 36.803 7.642 7.63z" class="fill-ffffff"></path><path fill="#1f9978" d="m208.837 204.756-53.093 53.093-42.83-44.212 53.314-53.314 34.967 36.803z" class="fill-ef835e fill-010606"></path><path fill="#DB9923" d="m400.107 213.637-37.4 36.372-21.409 21.41-13.382-13.382-39.932-39.933 58.81-57.781z" class="fill-db9923"></path><path fill="#F7C648" d="M386.738 200.267 348.254 237.7l-20.338 20.337-39.932-39.933 58.81-57.781z" class="fill-f7c648"></path><path d="m241.286 370.37-16.795-16.795-.016.017-16.991-16.991.033-.033-15.444-15.443-9.057 9.057c-4.265 4.264-4.265 11.179 0 15.443 4.034 4.033 10.435 4.246 14.726.65l-.368.367c-4.744 4.744-4.744 12.437 0 17.182 4.416 4.416 11.384 4.717 16.153.91-3.473 4.651-3.11 11.262 1.115 15.486 4.638 4.639 12.157 4.639 16.795 0l1.357-1.357c-3.997 3.998-3.997 10.48.001 14.478 3.998 3.999 10.48 3.999 14.479 0l8.49-8.49-14.478-14.481z" fill="#C6D0DC" class="fill-c6d0dc"></path><path d="M320.019 321.233a84.122 84.122 0 0 0 8.62-20.941l5.45-20.86 7.353-7.352-53.979-53.978-6.68 6.68-19.657 4.248c-7.261 1.569-14.967 3.042-22.035 5.527l-13.188-6.366-6.894-6.894-47.593 47.592 7.121 7.122 5.038 20.448a79.984 79.984 0 0 0 10.323 24.042l62.875 66.794c4.329 2.555 11.812 2.008 15.501-1.682 4.381-4.381 4.35-11.515-.068-15.934l10.869 10.869c4.419 4.42 11.553 4.45 15.934.069s4.35-11.514-.068-15.933l7.814 7.815c4.398 4.397 11.515 4.411 15.896.03s4.366-11.497-.03-15.895l-9.842-9.842c4.244 4.244 11.235 4.133 15.616-.248s4.491-11.372.248-15.615l-8.624-9.696z" fill="#FFFFFF" class="fill-ffffff"></path><path d="M211.827 284.275s.583 3.933 7.081 6.261c4.356 1.563 9.422.559 12.771-2.262l7.27-6.125s27.651 6.429 43.755-.354l-15.086-12.708s-20.877 3.482-35.648-3.48l-20.143 18.668zM319.455 276.901s0 17.559-9.457 33.878l9.068 8.871s8.396-8.304 12.904-41.211l7.625-7.64-7.539-7.142-12.601 13.244z" fill="#C6D0DC" class="fill-c6d0dc"></path><path d="M323.424 104.127c0 21.35-9.93 40.38-25.42 52.73-11.52 9.19-26.109 14.69-42 14.69-16.68 0-31.949-6.06-43.72-16.1-14.5-12.36-23.7-30.77-23.7-51.32 0-37.24 30.181-67.42 67.42-67.42 37.23.001 67.42 30.181 67.42 67.42z" fill="#1f9978" class="fill-59aee4 fill-fad570"></path><path d="M298.004 122.388v34.47c-11.52 9.19-26.109 14.69-42 14.69-16.68 0-31.949-6.06-43.72-16.1v-33.06c0-9.16 7.43-16.58 16.58-16.58h52.569c9.151 0 16.571 7.42 16.571 16.58z" fill="#FFFFFF" class="fill-ffffff"></path><circle cx="255.147" cy="79.58" fill="#FFFFFF" r="23.536" class="fill-ffffff"></circle><path d="M160.552 407.302c0 21.35-9.93 40.381-25.42 52.73-11.52 9.189-26.109 14.689-42 14.689-16.68 0-31.95-6.06-43.72-16.1-14.5-12.36-23.7-30.77-23.7-51.32 0-37.24 30.18-67.42 67.42-67.42 37.23.001 67.42 30.181 67.42 67.421z" fill="#1f9978" class="fill-59aee4 fill-fad570"></path><path d="M135.132 425.562v34.471c-11.52 9.189-26.109 14.689-42 14.689-16.68 0-31.95-6.06-43.72-16.1v-33.061c0-9.16 7.43-16.58 16.58-16.58h52.569c9.151 0 16.571 7.42 16.571 16.581z" fill="#FFFFFF" class="fill-ffffff"></path><circle cx="92.275" cy="382.755" fill="#FFFFFF" r="23.537" class="fill-ffffff"></circle><path d="M486.758 407.302c0 21.35-9.93 40.381-25.42 52.73-11.52 9.189-26.109 14.689-42 14.689-16.68 0-31.949-6.06-43.72-16.1-14.5-12.36-23.7-30.77-23.7-51.32 0-37.24 30.18-67.42 67.42-67.42 37.23.001 67.42 30.181 67.42 67.421z" fill="#1f9978" class="fill-59aee4 fill-fad570"></path><path d="M461.338 425.562v34.471c-11.52 9.189-26.109 14.689-42 14.689-16.68 0-31.949-6.06-43.72-16.1v-33.061c0-9.16 7.431-16.58 16.58-16.58h52.569c9.151 0 16.571 7.42 16.571 16.581z" fill="#FFFFFF" class="fill-ffffff"></path><circle cx="418.481" cy="382.755" fill="#FFFFFF" r="23.536" class="fill-ffffff"></circle><path d="M418.867 334.456c-40.482 0-73.419 32.936-73.419 73.419 0 2.417.125 4.805.354 7.163H166.197c.229-2.358.354-4.746.354-7.163 0-29.105-17.024-54.31-41.639-66.178l32.83-56.856-10.392-6-33.795 58.527a73.161 73.161 0 0 0-20.425-2.912c-40.483 0-73.419 32.936-73.419 73.419s32.936 73.419 73.419 73.419c33.854 0 62.415-23.039 70.866-54.256H348c8.451 31.217 37.012 54.256 70.865 54.256 40.484 0 73.42-32.936 73.42-73.419s-32.933-73.419-73.418-73.419zM75.764 466.778V440.97h-12v20.834a61.52 61.52 0 0 1-8.343-5.503v-30.168c0-5.83 4.743-10.573 10.573-10.573h7.673l18.101 26.989 20.489-26.989h6.308c5.83 0 10.573 4.743 10.573 10.573v31.456a61.522 61.522 0 0 1-7.32 4.572v-20.873h-12v25.684a61.195 61.195 0 0 1-16.686 2.322 61.237 61.237 0 0 1-17.368-2.516zm-1.019-83.449c0-9.669 7.866-17.535 17.536-17.535s17.536 7.866 17.536 17.535c0 9.67-7.866 17.537-17.536 17.537s-17.536-7.867-17.536-17.537zM97.19 415.56l-4.818 6.347-4.257-6.347h9.075zm43.948 30.56v-19.987c0-12.446-10.126-22.573-22.573-22.573h-4.792c4.982-5.29 8.045-12.406 8.045-20.23 0-16.285-13.25-29.535-29.536-29.535s-29.536 13.25-29.536 29.535c0 7.824 3.063 14.94 8.045 20.23h-4.796c-12.447 0-22.573 10.127-22.573 22.573v17.751c-7.354-10.125-11.708-22.565-11.708-36.009 0-33.866 27.553-61.419 61.419-61.419 33.867 0 61.42 27.553 61.42 61.419-.001 14.452-5.031 27.743-13.415 38.245zm260.361 20.658V440.97h-12v20.834a61.645 61.645 0 0 1-8.343-5.503v-30.168c0-5.83 4.743-10.573 10.574-10.573h7.631l18.101 26.989 20.489-26.989h6.349c5.831 0 10.573 4.743 10.573 10.573v31.456a61.442 61.442 0 0 1-7.32 4.572v-20.873h-12v25.684a61.19 61.19 0 0 1-16.686 2.322 61.242 61.242 0 0 1-17.368-2.516zm-1.019-83.449c0-9.669 7.867-17.535 17.537-17.535 9.669 0 17.535 7.866 17.535 17.535 0 9.67-7.866 17.537-17.535 17.537s-17.537-7.867-17.537-17.537zm22.405 32.231-4.818 6.347-4.256-6.347h9.074zm43.988 30.56v-19.987c0-12.446-10.126-22.573-22.573-22.573h-4.792c4.982-5.29 8.045-12.406 8.045-20.23 0-16.285-13.25-29.535-29.535-29.535-16.287 0-29.537 13.25-29.537 29.535 0 7.824 3.063 14.94 8.045 20.23h-4.795c-12.447 0-22.574 10.127-22.574 22.573v17.751c-7.354-10.125-11.708-22.565-11.708-36.009 0-33.866 27.553-61.419 61.419-61.419 33.867 0 61.42 27.553 61.42 61.419-.001 14.452-5.03 27.743-13.415 38.245z" fill="#000000" class="fill-000000"></path><path d="m407.628 213.69-61.82-61.821-35.833 35.213-12.815-22.192c19.453-13.22 32.259-35.523 32.259-60.764 0-40.483-32.937-73.419-73.419-73.419-40.483 0-73.419 32.936-73.419 73.419 0 24.7 12.273 46.574 31.028 59.889l-13.95 23.853-34.345-36.144-61.841 61.841 64.728 66.831 3.221-3.222 1.608 1.608 4.576 18.572a85.154 85.154 0 0 0 8.208 20.918l-6.505 6.506c-3.196 3.195-4.957 7.445-4.957 11.965s1.761 8.769 4.956 11.965a16.822 16.822 0 0 0 8.987 4.676c-.232 4.93 1.509 9.938 5.266 13.695 3.33 3.329 7.728 5.19 12.419 5.296a17.726 17.726 0 0 0 5.161 11.101 17.755 17.755 0 0 0 12.64 5.236c.393 0 .78-.031 1.169-.057a16.114 16.114 0 0 0 4.345 7.941 16.19 16.19 0 0 0 11.481 4.748 16.19 16.19 0 0 0 11.482-4.748l4.618-4.619a17.167 17.167 0 0 0 6.283 1.225h.076a16.92 16.92 0 0 0 12.047-4.983 16.984 16.984 0 0 0 3.07-4.198 17.167 17.167 0 0 0 11.286 4.24c4.37 0 8.731-1.658 12.049-4.975a16.872 16.872 0 0 0 3.401-4.918 17.067 17.067 0 0 0 7.852 1.924h.034c4.56 0 8.843-1.772 12.063-4.994a16.947 16.947 0 0 0 4.994-12.098 17.004 17.004 0 0 0-3.592-10.438 17.393 17.393 0 0 0 4.271-3.129c6.659-6.66 6.77-17.385.236-23.918l-5.248-5.227a89.166 89.166 0 0 0 7.744-19.691l4.971-19.029 1.867-1.867 4.243-4.242 1.729-1.73 32.91 57.016 10.393-5.998-34.518-59.803 10.829-10.828 41.762-40.626zm-180.996-76.47v20.834a61.608 61.608 0 0 1-8.343-5.502v-30.168c0-5.831 4.743-10.574 10.573-10.574h6.837l18.895 28.173 21.389-28.173h5.449c5.83 0 10.574 4.743 10.574 10.574v31.455a61.659 61.659 0 0 1-7.32 4.573v-20.874h-12v25.685A61.245 61.245 0 0 1 256 165.545a61.201 61.201 0 0 1-17.368-2.517V137.22h-12zm10.981-57.64c0-9.669 7.866-17.536 17.535-17.536 9.67 0 17.537 7.867 17.537 17.536 0 9.67-7.867 17.537-17.537 17.537-9.669 0-17.535-7.867-17.535-17.537zm23.303 32.23-5.717 7.53-5.051-7.53h10.768zm-66.335-7.685c0-33.867 27.552-61.419 61.419-61.419 33.866 0 61.419 27.553 61.419 61.419 0 14.452-5.029 27.744-13.413 38.246v-19.987c0-12.447-10.127-22.574-22.574-22.574h-4.791c4.981-5.29 8.045-12.407 8.045-20.23 0-16.286-13.25-29.536-29.537-29.536-16.285 0-29.535 13.25-29.535 29.536 0 7.823 3.063 14.94 8.045 20.23h-4.796c-12.447 0-22.573 10.126-22.573 22.574v17.75c-7.355-10.125-11.709-22.565-11.709-36.009zM256 177.545a72.968 72.968 0 0 0 30.709-6.756l14.426 24.982-22.687 22.294.037.037-1.106 1.106-17.689 3.822c-1.016.22-2.04.437-3.07.656-5.871 1.247-12.093 2.575-18.077 4.563l-9.779-4.721-1.848-1.848 3.153-3.153-21.73-21.73 15.583-26.646A72.943 72.943 0 0 0 256 177.545zm-87.662 85.743-4.672-4.824 44.872-44.496 4.56 4.56-44.76 44.76zm-3.243-94.375 30.736 32.346 4.223 4.223-44.737 44.361-35.007-36.145 44.785-44.785zm21.258 167.83c0-1.314.512-2.55 1.441-3.479l4.725-4.724a84.272 84.272 0 0 0 6.44 7.476l-.001.001-4.206 4.205a4.925 4.925 0 0 1-6.958 0 4.885 4.885 0 0 1-1.441-3.479zm15.694 13.154 1.19-1.189 4.19-4.19 8.695 8.696-5.38 5.381a6.116 6.116 0 0 1-4.348 1.801 6.117 6.117 0 0 1-4.349-1.801 6.161 6.161 0 0 1 .002-8.698zm17.579 25.094c-1.109-1.11-1.721-2.586-1.721-4.155s.611-3.045 1.722-4.155l4.982-4.982 8.31 8.311-3.624 3.623-.004.005-1.354 1.354c-1.11 1.109-2.586 1.721-4.155 1.721s-3.046-.612-4.156-1.722zm18.154 13.119a4.242 4.242 0 0 1 0-5.992l3.624-3.625 5.993 5.994-3.624 3.623a4.24 4.24 0 0 1-5.993 0zm78.774-21.297c-.956.956-2.2 1.496-3.589 1.479a5.107 5.107 0 0 1-3.625-1.51l-7.719-7.718v-.001l-38.467-38.467v.001l-3.146-3.147-8.485 8.486 41.613 41.613c2.018 2.018 2.048 5.27.067 7.25-1.98 1.982-5.233 1.951-7.252-.067l-10.736-10.735-29.025-29.026-3.146-3.147-8.485 8.486 3.146 3.146 29.026 29.025c2.018 2.019 2.048 5.271.067 7.252-.952.953-2.247 1.516-3.586 1.469a5.184 5.184 0 0 1-3.665-1.537l-51.156-51.155c-9.331-9.331-15.947-21.097-19.133-34.026l-5.376-21.82-3.975-3.975 38.522-38.522 3.285 3.286 2.883 1.392c-2.078 1.397-4.044 2.974-5.851 4.78l-21.939 21.94c-6.426 6.426-6.236 17.072.423 23.731 3.408 3.407 7.858 5.121 12.255 5.121 4.194-.001 8.34-1.562 11.478-4.698l12.751-12.752c5.819 2.152 17.298 5.369 31.302 4.021l57.457 57.224c1.846 1.846 1.735 4.958-.244 6.938-1.982 1.979-5.095 2.09-6.939.245l-41.463-41.463-8.486 8.484 4.072 4.072 47.111 47.111a5.111 5.111 0 0 1 1.51 3.625 5.036 5.036 0 0 1-1.48 3.589zm11.075-91.228-5.795 22.179a77.047 77.047 0 0 1-5.073 13.821l-37.635-37.481a69.762 69.762 0 0 0 6.815-2.554l-4.796-11c-24.208 10.555-45.937.07-46.135-.027l-3.874-1.949-18.659 18.658c-1.748 1.748-4.782 1.559-6.762-.422-1.98-1.98-2.17-5.014-.423-6.762l21.939-21.939c7.51-7.509 19.898-10.14 31.879-12.684 1.045-.222 2.084-.442 3.113-.665l21.143-4.568 3.604-3.604 44.828 44.828-4.169 4.169zm12.654-12.654-44.79-44.791 50.241-49.373 44.806 44.807-33.097 32.198-17.16 17.159z" fill="#000000" class="fill-000000"></path></svg>