<svg id="Layer_1" enable-background="new 0 0 512 512" height="512" viewBox="0 0 512 512" width="512" xmlns="http://www.w3.org/2000/svg"><g><g><g><g><g><g id="XMLID_641_"><g id="XMLID_642_"><g id="XMLID_643_"><g id="XMLID_644_"><g id="XMLID_645_"><g id="XMLID_646_"><g id="XMLID_647_"><g id="XMLID_648_"><g id="XMLID_649_"><g id="XMLID_665_"><g id="XMLID_666_"><g id="XMLID_712_"><g id="XMLID_713_"><g id="XMLID_714_"><g><path d="m512 256c0 96.1-52.96 179.84-131.29 223.62-11.98 6.7-24.56-2.76-37.64 1.97-19.19 6.94-39.45 26.87-60.46 29.04-8.74.91-17.62 1.37-26.61 1.37s-17.87-.46-26.61-1.37c-22.03-2.28-43.23-22.56-63.24-30.06-12.08-4.53-23.73 5.27-34.86-.95-78.33-43.78-131.29-127.52-131.29-223.62 0-141.38 114.62-256 256-256 127.89 0 233.88 93.78 252.94 216.32 2.02 12.93 3.06 26.19 3.06 39.68z" fill="#b1d040"/></g></g></g></g></g></g></g></g></g></g></g></g></g></g></g></g></g></g></g><path d="m512 256c0 96.1-52.96 179.84-131.29 223.62-11.98 6.7-24.56-2.76-37.64 1.97-19.19 6.94-39.45 26.87-60.46 29.04-8.74.91-17.62 1.37-26.61 1.37s-17.87-.46-26.61-1.37c-22.03-2.28-43.23-22.56-63.24-30.06-12.08-4.53-23.73 5.27-34.86-.95l59.2-155.01 110.12-113.73 21.04-88.52 76.94-16.38 110.35 110.34c2.02 12.93 3.06 26.19 3.06 39.68z" fill="#00a763"/><path d="m425.6 171.676c-3.443-43.871-28.565-78.876-62.513-87.105-45.138-10.94-75.142 6.396-92.36 22.869-6.012 5.752-10.884 11.786-14.726 17.327-3.842-5.541-8.714-11.575-14.726-17.327-17.218-16.473-47.221-33.813-92.36-22.869-33.948 8.229-59.07 43.234-62.513 87.105-2.782 35.453 8.89 73.282 32.864 106.518 28.511 39.525 72.91 74.853 131.963 99.908l4.773 2.025 4.773-2.025c59.053-25.054 103.452-60.383 131.963-99.908 23.972-33.236 35.644-71.065 32.862-106.518z" fill="#ff4a4a"/><path d="m392.738 278.191c-28.517 39.531-72.916 74.853-131.966 99.91l-4.772 2.025v-255.357c3.839-5.547 8.716-11.577 14.729-17.327 17.212-16.473 47.217-33.808 92.356-22.873 33.949 8.232 59.067 43.237 62.51 87.109 2.782 35.454-8.883 73.277-32.857 106.513z" fill="#d0004f"/><g><g><path d="m149.182 258.907 41.308 65.705c2.688 4.276 4.383 9.141 4.651 14.185.002.031.003.062.005.094.678 13.307 2.324 34.289 6.003 40.247l-2.438 7.233-21.936 13.791-70.402-111.981c-7.91-12.582-4.123-29.195 8.459-37.105 11.648-7.323 27.027-3.817 34.35 7.831z" fill="#fcc78d"/><path d="m229.39 510.63c-35.33-3.65-68.53-14.48-98.1-31.01l-2.04-72.11-64.29-102.25c-9.92-15.78-14.44-34.37-12.89-52.95l4.49-53.71c1.19-14.28 13.87-25.33 28.12-23.86 13.82 1.41 24 13.64 22.84 27.54l1.09 59.66 56.45 91.62c4.35 7.07 11.9 10.96 19.63 10.96 4.19 0 8.43-1.14 12.24-3.54z" fill="#ffdba9"/></g><g><path d="m362.818 258.907-41.308 65.705c-2.688 4.276-4.383 9.141-4.651 14.185-.002.031-.003.062-.005.094-.678 13.307-2.324 34.289-6.003 40.247l2.438 7.233 21.936 13.791 70.402-111.981c7.91-12.582 4.123-29.195-8.459-37.105-11.648-7.323-27.027-3.817-34.35 7.831z" fill="#492b25"/><path d="m447.04 305.26-64.29 102.25-2.04 72.11c-29.57 16.53-62.77 27.36-98.1 31.01l32.46-149.65c3.81 2.4 8.05 3.54 12.24 3.54 7.73 0 15.28-3.89 19.63-10.96l56.45-91.62 1.09-59.66c-1.16-13.9 9.02-26.13 22.84-27.54 14.25-1.47 26.93 9.58 28.12 23.86l4.49 53.71c1.55 18.58-2.97 37.17-12.89 52.95z" fill="#68463e"/></g></g></g></svg>