<?xml version="1.0" ?><svg height="64" id="svg19926" version="1.1" viewBox="0 0 64.000001 64.000001" width="64" xmlns="http://www.w3.org/2000/svg" xmlns:cc="http://creativecommons.org/ns#" xmlns:dc="http://purl.org/dc/elements/1.1/" xmlns:inkscape="http://www.inkscape.org/namespaces/inkscape" xmlns:rdf="http://www.w3.org/1999/02/22-rdf-syntax-ns#" xmlns:sodipodi="http://sodipodi.sourceforge.net/DTD/sodipodi-0.dtd" xmlns:svg="http://www.w3.org/2000/svg" xmlns:xlink="http://www.w3.org/1999/xlink"><defs id="defs19928"><linearGradient id="linearGradient4177"><stop id="stop4179" offset="0" style="stop-color:#ff7b00;stop-opacity:1"/><stop id="stop4185" offset="0.56924683" style="stop-color:#ff0041;stop-opacity:1"/><stop id="stop4187" offset="1" style="stop-color:#0043b5;stop-opacity:1"/></linearGradient><linearGradient gradientTransform="translate(-155.4217,-1246.0544)" gradientUnits="userSpaceOnUse" id="linearGradient4634" x1="165.86687" x2="215.12296" xlink:href="#linearGradient4177" y1="1255.4662" y2="1304.5092"/></defs><g id="layer1" transform="translate(0,-988.36216)"><path d="M 26.503906 1.9980469 L 26.503906 2 C 20.222516 1.9997 13.940103 4.3860094 9.1640625 9.1621094 C -0.38801753 18.714129 -0.38802753 34.29165 9.1640625 43.84375 C 18.048583 52.73025 32.13738 53.338213 41.75 45.695312 C 41.747 45.777313 41.770684 45.860528 41.833984 45.923828 L 57.824219 61.910156 C 57.944139 62.030056 58.139586 62.030356 58.259766 61.910156 L 61.910156 58.259766 C 62.030366 58.139566 62.030266 57.946272 61.910156 57.826172 L 45.921875 41.837891 C 45.856475 41.772891 45.771007 41.749859 45.685547 41.755859 C 53.337497 32.143259 52.729727 18.050129 43.841797 9.1621094 C 39.065737 4.3870094 32.785296 1.9982469 26.503906 1.9980469 z M 26.503906 7.7441406 C 31.294516 7.7444406 36.085792 9.5818863 39.757812 13.253906 C 47.101852 20.598006 47.101882 32.411659 39.757812 39.755859 L 39.757812 39.765625 C 32.413753 47.107625 20.595993 47.109625 13.251953 39.765625 C 5.9079029 32.421525 5.9078929 20.601912 13.251953 13.257812 C 16.923983 9.5847925 21.713296 7.7477469 26.503906 7.7480469 L 26.503906 7.7441406 z M 35.167969 16.980469 C 34.968069 16.980469 34.768414 17.057437 34.615234 17.210938 L 23.912109 27.914062 L 20.013672 24.013672 C 19.707312 23.707372 19.21261 23.707372 18.90625 24.013672 L 15.769531 27.152344 C 15.463171 27.458644 15.463171 27.953366 15.769531 28.259766 L 20.208984 32.697266 C 20.212984 32.697266 20.21375 32.707891 20.21875 32.712891 L 23.355469 35.849609 C 23.433069 35.927609 23.523671 35.983184 23.619141 36.021484 C 23.713241 36.059484 23.814113 36.080078 23.914062 36.080078 C 24.012062 36.079378 24.110805 36.059484 24.203125 36.021484 C 24.299225 35.983484 24.388737 35.927509 24.466797 35.849609 L 27.603516 32.712891 C 27.608516 32.702891 27.610534 32.701313 27.615234 32.695312 L 38.857422 21.451172 C 39.163782 21.144872 39.163782 20.653956 38.857422 20.347656 L 35.720703 17.210938 C 35.567523 17.057738 35.367879 16.980469 35.167969 16.980469 z " id="path4632" style="color:#000000;font-style:normal;font-variant:normal;font-weight:normal;font-stretch:normal;font-size:medium;line-height:normal;font-family:sans-serif;text-indent:0;text-align:start;text-decoration:none;text-decoration-line:none;text-decoration-style:solid;text-decoration-color:#000000;letter-spacing:normal;word-spacing:normal;text-transform:none;direction:ltr;block-progression:tb;writing-mode:lr-tb;baseline-shift:baseline;text-anchor:start;white-space:normal;clip-rule:nonzero;display:inline;overflow:visible;visibility:visible;opacity:1;isolation:auto;mix-blend-mode:normal;color-interpolation:sRGB;color-interpolation-filters:linearRGB;solid-color:#000000;solid-opacity:1;fill:url(#linearGradient4634);fill-opacity:1;fill-rule:nonzero;stroke:none;stroke-width:3.99999976;stroke-linecap:round;stroke-linejoin:miter;stroke-miterlimit:4;stroke-dasharray:none;stroke-dashoffset:0;stroke-opacity:1;color-rendering:auto;image-rendering:auto;shape-rendering:auto;text-rendering:auto;enable-background:accumulate" transform="translate(0,988.36216)"/></g></svg>