<?xml version="1.0" ?><svg id="Layer_1" style="enable-background:new 0 0 72 72;" version="1.1" viewBox="0 0 72 72" xml:space="preserve" xmlns="http://www.w3.org/2000/svg" xmlns:xlink="http://www.w3.org/1999/xlink"><style type="text/css">
	.st0{fill:#F9C4C0;}
	.st1{fill:#FD9997;}
	.st2{fill:#333077;}
	.st3{opacity:0.15;}
	.st4{fill:#F99072;}
	.st5{fill:#79AFFE;}
	.st6{fill:#FCBA97;}
	.st7{fill:#FFFFFF;}
	.st8{fill:#242C3F;}
	.st9{fill:#EDF5FC;}
	.st10{fill:#DAEAF9;}
	.st11{fill:#78D7A6;}
	.st12{fill:#5150AC;}
	.st13{fill:none;}
	.st14{fill:#363383;}
	.st15{fill:#5DB19C;}
	.st16{fill:#65F0AC;}
	.st17{fill:#48C79A;}
	.st18{fill:#F1F7FF;}
	.st19{fill:#E1EEFE;}
	.st20{fill:#5592FF;}
	.st21{fill:#333333;}
	.st22{fill:#DDEAF7;}
	.st23{fill:#387094;}
	.st24{fill:#353E57;}
	.st25{fill:#95BCFF;}
	.st26{fill:#FDF3E3;}
	.st27{fill:#F2CF77;}
	.st28{opacity:0.08;}
	.st29{fill:#E9D8BE;}
	.st30{fill:#6675E9;}
	.st31{fill:#C7DAFA;}
	.st32{fill:#315A79;}
	.st33{fill:#FFA29E;}
	.st34{fill:#48609D;}
	.st35{opacity:0.1;}
	.st36{fill:#80C4FF;}
	.st37{fill:#373754;}
	.st38{fill:#FFCCCB;}
	.st39{fill:#0E79E2;}
	.st40{fill:#2EC36C;}
	.st41{fill:#117EFE;}
	.st42{fill:#CDCCCC;}
	.st43{fill:#F97D00;}
	.st44{fill:#435FEF;}
	.st45{fill:#062557;}
	.st46{fill:#F8D34D;}
	.st47{fill:#84A6D4;}
	.st48{fill:#F8B532;}
	.st49{fill:#75A0F3;}
	.st50{fill:#4B39A8;}
	.st51{fill:#382F93;}
	.st52{opacity:0.06;}
	.st53{fill:#7B94F2;}
	.st54{fill:#E8EFFF;}
	.st55{fill:#894E57;}
	.st56{fill:#32327A;}
	.st57{fill:#FFF094;}
	.st58{fill:#E5D170;}
	.st59{fill:#252449;}
	.st60{fill:#303078;}
	.st61{fill:#26265D;}
	.st62{fill:#212079;}
	.st63{fill:#2B6AF1;}
	.st64{opacity:0.6;}
	.st65{fill:#FDDF8C;}
	.st66{opacity:0.3;}
	.st67{fill:#34324C;}
	.st68{fill:#4C4EE1;}
	.st69{fill:#3534A7;}
	.st70{fill:#8AC80B;}
	.st71{fill:#424357;}
	.st72{fill:#E6ECEC;}
	.st73{fill:#DCE0E3;}
	.st74{fill:#F4AE32;}
	.st75{fill:#FC9232;}
	.st76{fill:#F7F7F7;}
	.st77{opacity:0.7;}
	.st78{fill:#CADBEA;}
	.st79{fill:#A06167;}
</style><g id="_x33_7"><g><g><g><g><path class="st23" d="M37.7163048,16.4099369v49.4369888C37.7163048,67.0360336,36.7523422,68,35.5632286,68H6.4681678       c-1.1891308,0-2.1531115-0.9639816-2.1531115-2.1531143V16.4155045c0-1.1891108,0.9639654-2.1530762,2.1530771-2.1530762       h29.1006641C36.7548332,14.2624283,37.7163048,15.2238998,37.7163048,16.4099369z"/></g></g><g><g><rect class="st7" height="44.6816826" width="30.0426178" x="5.9970546" y="17.9533005"/></g></g><g><g><g><path class="st19" d="M30.5130196,30.7152119c0,2.9315014-1.2405777,5.5706501-3.2236233,7.4148235        c-0.5652084,0.5365334-1.1926899,1.0011406-1.8680897,1.3890381c-0.0143547,0.0095901-0.028738,0.0191803-0.0478878,0.0239754        c-0.1245422,0.0765953-0.2490864,0.1437187-0.3784237,0.2059326c-0.57477,0.3018265-1.1831017,0.5461197-1.8201733,0.7234039        c-0.4502563,0.1340141-0.9148655,0.229908-1.3890667,0.296917c-0.4646397,0.0670052-0.938839,0.1005707-1.4226284,0.1005707        h-0.0335331c-0.9675484-0.0047951-1.9015942-0.1389275-2.7829571-0.3974876        c-0.2394962-0.0671234-0.4789944-0.1437225-0.7089024-0.2348213c-0.114954-0.0382385-0.2251415-0.0813904-0.3353004-0.124424        l-0.0047951-0.0049133c-0.0191498-0.0046768-0.0382996-0.014267-0.057478-0.019062        c-0.6658087-0.2826462-1.2932901-0.6275101-1.8776493-1.0394974        c-2.6296749-1.8296738-4.3540726-4.8809242-4.3540726-8.3344555c0-5.609005,4.545682-10.1498642,10.1546879-10.1498642        C25.9673672,20.5653477,30.5130196,25.1062069,30.5130196,30.7152119z"/></g></g><g><g><g><g><g><g><g><path class="st14" d="M24.6040478,24.0119553c0.2818699,0.7674236-0.2925339,2.4651051-1.0552559,2.8190746             c-0.5843925,0.271204-1.308691-0.4146042-1.525507-1.2754574             c-0.2173157-0.862833,0.1141109-1.6905193,0.7388573-1.847868             C23.3882027,23.5500221,24.2972775,23.1767254,24.6040478,24.0119553z"/></g></g><g><g><path class="st14" d="M19.8566246,24.7889309c0.2168179,0.8608551-0.1146107,1.6885395-0.7406731,1.8462219             c-0.6247444,0.1573505-1.3086891-0.4146004-1.5255051-1.2754536             c-0.2173157-0.862833,0.1141109-1.6905193,0.7388573-1.8478699             C18.9553642,23.3541489,19.6393089,23.9260998,19.8566246,24.7889309z"/></g></g><g><g><g><path class="st6" d="M25.4213066,39.5048065v0.014267c-0.0143547,0.0095901-0.028738,0.0191803-0.0478878,0.0239754              c-0.1245422,0.0765953-0.2490864,0.1437187-0.3784237,0.2059326              c-0.57477,0.3018265-1.1831017,0.5461197-1.8201733,0.7234039              c-0.4502563,0.1340141-0.9148655,0.229908-1.3890667,0.296917              c-0.4646397,0.0670052-0.938839,0.1005707-1.4226284,0.1005707h-0.0335331              c-0.9675484-0.0047951-1.9015942-0.1389275-2.7829571-0.3974876              c-0.2394962-0.0671234-0.4789944-0.1437225-0.7089024-0.2348213              c-0.114954-0.0382385-0.2251415-0.0813904-0.3353004-0.124424l-0.0047951-0.0049133              c-0.0191498-0.0046768-0.0382996-0.014267-0.057478-0.019062l0.4071636-9.6709843h8.1955872L25.4213066,39.5048065z"/></g></g><g><g><polygon class="st4" points="19.8502331,30.4189529 21.0397034,30.4189529 19.7572079,31.1289787             "/></g></g><g><g><polygon class="st4" points="22.3222046,31.1289787 21.2298031,30.5241966 21.0397034,30.4189529               22.2279377,30.4189529             "/></g></g></g><g><g><rect class="st0" height="1.7127516" width="2.3605838" x="19.8586941" y="28.7067127"/></g></g><g><g><path class="st1" d="M22.2192764,28.7067127v1.2272968c-0.8358536,0.0393105-1.6187286-0.160677-2.3605824-0.5606556             v-0.6666412H22.2192764z"/></g></g><g><g><g><ellipse class="st0" cx="23.3421116" cy="26.643919" rx="0.5761481" ry="0.6722057"/></g></g></g><g><g><g><path class="st1" d="M23.5726833,26.9469738c-0.0134468,0-0.0267048-0.0054913-0.0363636-0.0162868              c-0.0176125-0.0200748-0.0159092-0.0507565,0.0041676-0.0685596              c0.069128-0.0611744,0.1071949-0.1386356,0.1071949-0.2181797c0-0.0797329-0.0380669-0.1571941-0.1070061-0.2181797              c-0.0200748-0.0178013-0.0219688-0.0482941-0.0043564-0.0683689              c0.0178032-0.0200768,0.0486736-0.0219707,0.0683708-0.0043564              c0.0903397,0.0797329,0.1399593,0.1829529,0.1399593,0.290905c0,0.1077633-0.0496197,0.2109833-0.1397705,0.290905              C23.5956001,26.942997,23.5840473,26.9469738,23.5726833,26.9469738z"/></g></g></g><g><g><g><ellipse class="st0" cx="18.7709751" cy="26.643919" rx="0.5761481" ry="0.6722057"/></g></g></g><g><g><g><path class="st1" d="M18.5404034,26.9469738c0.0134468,0,0.0267048-0.0054913,0.0363636-0.0162868              c0.0176144-0.0200748,0.0159092-0.0507565-0.0041656-0.0685596              c-0.069128-0.0611744-0.1071968-0.1386356-0.1071968-0.2181797c0-0.0797329,0.0380688-0.1571941,0.1070061-0.2181797              c0.0200768-0.0178013,0.0219707-0.0482941,0.0043564-0.0683689              c-0.0178032-0.0200768-0.0486736-0.0219707-0.0683708-0.0043564              c-0.0903397,0.0797329-0.1399593,0.1829529-0.1399593,0.290905c0,0.1077633,0.0496197,0.2109833,0.1397705,0.290905              C18.5174866,26.942997,18.5290413,26.9469738,18.5404034,26.9469738z"/></g></g></g><g><g><path class="st0" d="M23.4175816,25.9110813v1.238409c0,1.3132496-1.0628357,2.3804264-2.3759785,2.3804264             c-1.3175392,0-2.3803463-1.0671768-2.3803463-2.3804264v-1.238409c0-1.3175392,1.0628071-2.3804283,2.3803463-2.3804283             c0.6543732,0,1.2516785,0.2679482,1.682066,0.6983356S23.4175816,25.2523117,23.4175816,25.9110813z"/></g></g><g><g><g><path class="st21" d="M20.3151455,26.4839497c0,0.1652184-0.0906715,0.2982044-0.2035027,0.2982044              c-0.1128292,0-0.2055054-0.1329861-0.2055054-0.2982044s0.0926762-0.300209,0.2055054-0.300209              C20.224474,26.1837406,20.3151455,26.3187313,20.3151455,26.4839497z"/></g></g><g><g><path class="st21" d="M22.1728706,26.4839497c0,0.1652184-0.0906696,0.2982044-0.2035007,0.2982044              s-0.2055054-0.1329861-0.2055054-0.2982044s0.0926743-0.300209,0.2055054-0.300209              S22.1728706,26.3187313,22.1728706,26.4839497z"/></g></g></g><g><g><path class="st7" d="M20.2091274,27.7683163c-0.0005188,0.012125-0.0036106,0.0235062-0.0036106,0.0357533             c0,0.4607143,0.3734779,0.8341923,0.834177,0.8341923c0.4607162,0,0.8341942-0.3734779,0.8341942-0.8341923             c0-0.0122471-0.0030918-0.0236282-0.0036106-0.0357533H20.2091274z"/></g></g></g><g><g><path class="st14" d="M17.7903557,24.0188065c0-1.5298958,0.4118099-2.4054241,2.214756-2.4054241            c1.802948,0,3.2645245,1.2402248,3.2645245,2.7701225C23.2696362,25.9134007,17.7903557,25.5487022,17.7903557,24.0188065            z"/></g></g><g><g><path class="st14" d="M21.1663475,23.099577c0.8405647-0.8405628,2.1481228-0.8976288,2.918375-0.1273766            s0.7116261,2.0762501-0.1289368,2.9168148C23.115221,26.7295799,20.3257828,23.9401417,21.1663475,23.099577z"/></g></g></g></g></g><g><g><g><path class="st6" d="M27.2893963,38.1300354c-0.5652084,0.5365334-1.1926899,1.0011406-1.8680897,1.3890381          c-0.0143547,0.0095901-0.028738,0.0191803-0.0478878,0.0239754l-0.0622711-1.7243118l-0.2682362-7.4005566          c0.550827,0,1.0537949,0.2252293,1.4130402,0.5844746c0.3592453,0.363924,0.5843582,0.8620968,0.5843582,1.4178047          L27.2893963,38.1300354z"/></g></g><g><g><g><path class="st4" d="M25.4213066,39.5048065v0.014267c-0.0143547,0.0095901-0.028738,0.0191803-0.0478878,0.0239754           c-0.1245422,0.0765953-0.2490864,0.1437187-0.3784237,0.2059326l-0.3927498-6.0832062h0.4406662l0.2682362,4.1529617           L25.4213066,39.5048065z"/></g></g></g></g><g><g><g><path class="st6" d="M16.8520889,30.4181805l-0.3544502,9.6900463          c-0.0191498-0.0046768-0.0382996-0.014267-0.057478-0.019062c-0.6658087-0.2826462-1.2932901-0.6275101-1.8776493-1.0394974          l0.2921791-6.6292076c0-0.5557079,0.2251434-1.0538807,0.5843887-1.4178047          c0.3640118-0.3592453,0.8573895-0.5844746,1.4082451-0.5844746H16.8520889z"/></g></g><g><g><g><path class="st4" d="M17.2927856,33.6657753l-0.4550514,6.5717888           c-0.114954-0.0382385-0.2251415-0.0813904-0.3353004-0.124424l0.3544502-6.4473648H17.2927856z"/></g></g></g></g></g></g><g><g><path class="st7" d="M25.1830101,16.46521c0,0.29109-0.2350922,0.5261478-0.5205784,0.5261478h-7.2881355       c-0.2854862,0-0.5205784-0.2350578-0.5205784-0.5261478c0-0.2854862,0.2350922-0.520545,0.5205784-0.520545h7.2881355       C24.9479179,15.944665,25.1830101,16.1797237,25.1830101,16.46521z"/></g></g><g><g><path class="st7" d="M22.6474056,65.1979828c0,0.9012833-0.7277241,1.6290054-1.6289406,1.6290054       c-0.9012146,0-1.6289043-0.7277222-1.6289043-1.6290054c0-0.895546,0.7276897-1.6232681,1.6289043-1.6232681       C21.9196815,63.5747147,22.6474056,64.3024368,22.6474056,65.1979828z"/></g></g></g><g><g><path class="st5" d="M50.6143417,24.4108067l-3.9043007,0.0174122      c-1.8034859,0.0080414-3.3440514,1.3026867-3.6625023,3.0778542l-2.3364372,7.6271667l-6.9704514-1.5478287      l-1.4490166,4.9974098l14.8424263,8.3494225l4.1027718-11.6364822"/></g></g><g><g><g><g><circle class="st2" cx="52.7864494" cy="21.9502811" r="1.4173478"/></g></g><g><g><circle class="st2" cx="59.2473145" cy="22.6484604" r="1.3583488"/></g></g><g><g><path class="st2" d="M47.0756607,18.9850636c-0.0875359,0.1823788-0.138607,0.3793602-0.138607,0.5981598        c0,0.7660217,0.6201096,1.3933907,1.3933907,1.3933907c0.2480049,0,0.4887581-0.0656319,0.6857414-0.1896801        c0.2480049,0.2918205,0.6200638,0.4741993,1.0358887,0.4741993c0.0364685,0,0.0729332,0,0.1021423-0.0146046        c0.2407074,0.2845192,0.6127663,0.4595947,1.0212898,0.4595947c0.765976,0,1.3933868-0.6200657,1.3933868-1.3860874        c0-0.7732353-0.6274109-1.393301-1.3933868-1.393301c-0.0291634,0-0.0656319,0-0.094841,0.0073032        c-0.2626114-0.2773075-0.6273689-0.452383-1.0285912-0.452383c-0.2480507,0-0.4814987,0.0657215-0.6857414,0.1896801        c-0.1677704-0.1969814-0.3939171-0.3501511-0.6565742-0.415781c0.0875359-0.1750755,0.138607-0.3793602,0.138607-0.5908566        c0-0.2553997-0.0656319-0.4888039-0.1823769-0.6930885c0.3428917-0.2480087,0.5690384-0.6565781,0.5690384-1.1161718        c0-0.2699156-0.0729752-0.5179243-0.211586-0.7367239c0.3209877-0.2553997,0.5325737-0.6493635,0.5325737-1.094265        c0-0.7660217-0.6201096-1.3861761-1.3860893-1.3861761c-0.765976,0-1.3933449,0.6201544-1.3933449,1.3861761        c0,0.2771282,0.0802383,0.5252256,0.211544,0.7440252c-0.3209877,0.2480087-0.5325279,0.6419725-0.5325279,1.0869637        c0,0.2480078,0.0656281,0.4888029,0.1896782,0.6857862c-0.3428917,0.2480087-0.5690384,0.6564865-0.5690384,1.1234741        C46.0762367,18.2992783,46.4993629,18.8318062,47.0756607,18.9850636z"/></g></g><g><g><g><g><g><g><g><rect class="st12" height="14.4093485" width="19.2235107" x="47.5086861" y="53.5906525"/></g></g><g><g><path class="st14" d="M54.6038857,68v-8.6347008c-0.7671661,0-1.3926506,0.6253242-1.3926506,1.3925285V68H54.6038857z"/></g></g><g><g><g><g><g><g><g><g><path class="st26" d="M62.7822723,24.419075l-12.4237251,0.1633759l-0.0358429,0.6370525v1.4621906h-2.7593002                   c-0.0335426,0.1718636-0.0565872,0.3474064-0.0565872,0.5294189v26.3796005h19.223011V28.3697357                   C66.7298279,26.1838036,64.9723206,24.419075,62.7822723,24.419075z"/></g></g><g><g><path class="st5" d="M67.68367,28.4784374v35.50177h-8.6074638                   c-2.6158524,0-4.7356873-2.1198883-4.7356873-4.7356873l-0.6441803-25.3583946                   c-0.0625305-2.4615154,0.9855728-4.8205776,2.8541565-6.4241238l3.5416603-3.0393124l3.5277596-0.008007                   C65.8677673,24.4146805,67.68367,26.2305813,67.68367,28.4784374z"/></g></g><g><g><path class="st20" d="M67.68367,31.0142651v32.9659424h-0.7039566                   c-0.4959641-1.487896-0.6239853-3.1038094-0.6159821-4.6876945                   c0.0160141-2.1518669,0.280014-4.3117409,0.1519928-6.463604                   c-0.1039963-1.7998886-0.4879532-3.5997734-1.3118744-5.2076797                   c-0.8159637-1.6079063-2.0959167-3.0078201-3.7117805-3.8077698                   c-2.1838951-1.0719032-4.7277298-0.975914-7.1515503-0.8399353v-1.4159279                   c1.2479172-0.0879822,2.4638557-0.3199501,3.5517769-0.9119072                   c1.5998993-0.8799706,2.7118416-2.4558487,3.5357628-4.0877762                   c0.8239708-1.6318817,1.4318924-3.3757668,2.3678703-4.9516907                   c0.4479675-0.7679214,1.1039352-1.5678711,1.9998703-1.6078587                   C66.5317383,29.9583244,67.1716919,30.4622974,67.68367,31.0142651z"/></g></g></g></g></g><g><g><g><g><path class="st2" d="M49.1030579,13.0694075c-0.0183907,0.0551701-0.8643265,3.864419-1.6550941,4.9297705                  c-0.7907677,1.0653534,3.8878975,3.5889702,5.4985924,2.5917187                  c1.6106987-0.9972534,1.795887-4.8733368,1.795887-4.8733368l-1.1338463-1.6367054L49.1030579,13.0694075z"/></g></g><g><g><rect class="st0" height="7.2468147" width="5.9691415" x="53.5958366" y="17.1721973"/></g></g><g><g><path class="st1" d="M53.595623,15.9427185v5.5652561c0,0,2.6390038,1.3644009,5.9691391,0.8527508v-6.4180069                  H53.595623z"/></g></g><g><g><path class="st0" d="M49.1198349,13.1790466v3.5920868c0,2.8820133,2.3320389,5.2210197,5.2210197,5.2210197                  c2.8819695,0,5.2210197-2.3390064,5.2210197-5.2210197v-3.5920868                  c0-2.8819284-2.3390503-5.2210202-5.2210197-5.2210202c-1.4410057,0-2.7497482,0.5848155-3.6964798,1.5315499                  C49.7045631,10.4363117,49.1198349,11.7380829,49.1198349,13.1790466z"/></g></g><g><g><ellipse class="st2" cx="54.5907784" cy="14.9465542" rx="0.4872308" ry="0.684161"/></g></g><g><g><ellipse class="st2" cx="51.1243286" cy="14.9465542" rx="0.4872308" ry="0.684161"/></g></g><g><g><path class="st7" d="M54.9229317,17.853159c0.0012321,0.0287838,0.0085716,0.0558052,0.0085716,0.084877                  c0,1.0937805-0.8866692,1.9804478-1.9804077,1.9804478c-1.0937805,0-1.9804497-0.8866673-1.9804497-1.9804478                  c0-0.0290718,0.0073395-0.0560932,0.0085716-0.084877H54.9229317z"/></g></g><g><g><path class="st2" d="M64.9252701,18.9189625c-1.2852478,3.7971001-5.3597527,2.6141357-5.3597527,2.6141357                  v-7.3330774c-7.3075829-3.561944-7.1771622-4.9136219-7.1771622-4.9136219                  c-0.1247978,3.6060524-2.1249352,3.5773478-3.2852974,3.7830086                  c0.5948372-1.4982557-0.3703117-6.1915846,3.5734596-7.9614849                  c2.8936806-1.3072984,5.0235329,0.4478989,5.0235329,0.4478989                  c5.6917953-1.542275,5.8041229,5.7314672,5.8300362,6.2359304                  C63.6158333,13.4607954,64.9252701,18.9189625,64.9252701,18.9189625z"/></g></g></g><g><g><path class="st0" d="M59.5649796,14.1971884c0.9599838,0.004818,1.7369995,0.783618,1.7369995,1.7447624                 c0,0.9610567-0.7770157,1.7399454-1.7369995,1.7445841V14.1971884z"/></g></g></g><g><g><polygon class="st0" points="53.5975227,24.4205627 54.0114403,28.7498684 59.5623322,24.4205627               "/></g></g></g></g></g><g><g><path class="st5" d="M51.7885818,31.9168453L51.94067,58.7805328             c-0.0879822,2.5918274-2.0878563,4.6716766-4.6157265,4.9356766             c-0.1680069,0.0160141-0.3519783,0.0240211-0.5279465,0.0240211h-0.3360138V29.7183495             c0-2.5215778,0.1920624-5.3727455,4.6287193-5.2737408c0.3396301,0.0075779,1.5625267,0.0688,2.5192108,0.0950985             c0,0-1.7806816,3.039444-2.0017357,4.2101612C51.4600334,29.5291405,51.7885818,31.9168453,51.7885818,31.9168453z"/></g></g><g><g><path class="st20" d="M51.9505348,42.8496361c-0.0151138,0.6133118-0.6208458,0.8177643-1.0827599,1.0600662             c-1.2190475,0.6587448-2.1049347,1.8172035-2.5971222,3.0968399             c-0.6435814,1.6885414-0.6890106,3.5360603-0.719326,5.3381042             c-0.0681229,3.5133209-0.1362877,7.0266457-0.1968307,10.5399666             c-0.0075798,0.2725754-0.0227356,0.5603065-0.0757446,0.8328781             c-0.1590233,0.0151596-0.3331604,0.0227394-0.4997177,0.0227394h-0.3180504V41.8955803             c1.3250656-0.7420197,2.9000092-0.9994812,4.2856636-0.4315987             C51.3145294,41.6987076,51.9581146,42.1681557,51.9505348,42.8496361z"/></g></g><g><g><path class="st5" d="M59.4474258,36.9136353c0,0,1.7589149-8.6972103,3.706749-12.4978504l0.0142822-0.0006542             c2.1569061-0.0989647,4.5800323,1.5120449,4.515213,3.6702442v6.4427624l-2.2060623,5.1167145             c-0.4904327,1.7752724-2.1061134,3.0043983-3.9478836,3.0033417l-11.64711,0.4727097v-5.8613167L59.4474258,36.9136353z"/></g></g><g><g><path class="st5" d="M63.803936,13.7273655h-0.1680069l-13.9991188-0.1439848             c-0.7439461-0.008008-1.3439102-0.6079693-1.3439102-1.3519173V9.1916647             C48.2929001,6.3198247,50.6127243,4,53.4845657,4h4.5276947c2.8718376,0,5.4316864,2.3678193,5.4316864,5.2316523             L63.803936,13.7273655z"/></g></g><g><g><g><polygon class="st20" points="49.8934097,37.4440384 49.8718185,36.9833755 58.8544655,36.4883766               60.330925,30.3594036 60.7789917,30.467371 59.2215576,36.9328461             "/></g></g></g><g><g><path class="st0" d="M49.8927994,37.4458885l-2.1518669,0.4559288l-0.6319885-0.303936             c-0.3759537-0.1760139-0.5279465-0.6319885-0.327961-0.9999352             c0.1279716-0.2480316,0.3839607-0.3840103,0.6399498-0.3840103c0.1200142,0,0.239975,0.0240211,0.3519821,0.0879822             L49.8927994,37.4458885z"/></g></g><g><g><path class="st18" d="M44.6591377,31.9076118h-9.970005v-0.0000019c0-0.973196,0.7889328-1.7621269,1.7621269-1.7621269             h6.4457512c0.9731941,0,1.7621269,0.7889309,1.7621269,1.7621269V31.9076118z"/></g></g><g><g><path class="st14" d="M48.5038834,44.7462959h-9.0300446c-0.3581276,0-0.6727142-0.2377815-0.7704163-0.5823212             L35.414814,32.5668259c-0.1449661-0.5112114,0.2390442-1.0192566,0.7704124-1.0192566h9.0300484             c0.3581276,0,0.6727142,0.2377834,0.7704124,0.582325l3.2886124,11.5971451             C49.4192619,44.2382507,49.0352516,44.7462959,48.5038834,44.7462959z"/></g></g><g><g><path class="st18" d="M45.5881996,42.1383858h-7.5014954c-0.2975044,0-0.5588379-0.1975327-0.6400032-0.4837494             l-2.7319336-9.6340485c-0.1204262-0.4246769,0.1985817-0.8467255,0.6400032-0.8467255h7.5014954             c0.2975044,0,0.5588379,0.1975327,0.6400032,0.4837532l2.7319336,9.6340485             C46.348629,41.7163391,46.0296211,42.1383858,45.5881996,42.1383858z"/></g></g><g><g><path class="st0" d="M49.8927994,37.4458885l-0.008007,5.6716156h-3.8237839             c-1.4958992,0-2.6878166-1.2559242-2.5998344-2.7518272c0.0400352-0.6879463,0.3440208-1.3119278,0.8079567-1.7518921             c0.4639854-0.4399605,1.1039352-0.7119675,1.7918777-0.7119675h1.679924L49.8927994,37.4458885z"/></g></g><g><g><path class="st20" d="M60.4656754,58.3793411h-0.0000076c-1.8478851,0-3.34589-1.4980087-3.34589-3.34589v-3.3459015             h6.6917877v3.3459015C63.8115654,56.8813324,62.3135605,58.3793411,60.4656754,58.3793411z"/></g></g></g></g></g></g></g><g><g><path class="st2" d="M65.0551376,20.0759354c0.0875397,0.1823788,0.1386108,0.3793602,0.1386108,0.5981598        c0,0.7660217-0.6201096,1.3933907-1.3933868,1.3933907c-0.2480087,0-0.4887619-0.0656319-0.6857414-0.1896801        c-0.2480087,0.2918205-0.6200676,0.4741993-1.0358925,0.4741993c-0.0364685,0-0.0729332,0-0.1021423-0.0146046        c-0.2407074,0.2845192-0.6127663,0.4595947-1.0212898,0.4595947c-0.765976,0-1.3933868-0.6200657-1.3933868-1.3860874        c0-0.7732353,0.6274109-1.393301,1.3933868-1.393301c0.0291672,0,0.0656319,0,0.094841,0.0073032        c0.2626114-0.2773075,0.6273689-0.452383,1.0285912-0.452383c0.2480507,0,0.4814987,0.0657215,0.6857414,0.1896801        c0.1677704-0.1969814,0.3939171-0.3501492,0.6565742-0.415781c-0.0875359-0.1750755-0.138607-0.3793602-0.138607-0.5908566        c0-0.2553997,0.0656319-0.4888039,0.1823769-0.6930885c-0.3428917-0.2480087-0.5690384-0.6565781-0.5690384-1.1161728        c0-0.2699146,0.072979-0.5179234,0.211586-0.7367229c-0.3209877-0.2553997-0.5325737-0.6493635-0.5325737-1.094265        c0-0.7660217,0.6201096-1.3861761,1.3860893-1.3861761c0.765976,0,1.3933411,0.6201544,1.3933411,1.3861761        c0,0.2771282-0.0802307,0.5252256-0.2115402,0.7440252c0.3209839,0.2480097,0.5325317,0.6419725,0.5325317,1.0869627        c0,0.2480087-0.0656357,0.4888039-0.189682,0.6857872c0.3428955,0.2480087,0.5690384,0.6564865,0.5690384,1.1234741        C66.0545654,19.3901501,65.6314392,19.922678,65.0551376,20.0759354z"/></g></g></g></g><g><g><path class="st0" d="M33.7452888,33.585392l-1.4562035,4.9938087l-2.3006401-0.4321404      c-0.7314491-0.1331177-1.2035236-0.8448029-1.0506039-1.5694733l0.3989429-1.8749924l-2.599865-1.0772667      c-0.292572-0.1198044-0.4853878-0.4055176-0.4853878-0.7246742c0-0.4522705,0.3657055-0.7847366,0.7846146-0.7847366      c0.0931015,0,0.1928158,0.0133133,0.2859154,0.0532494l3.60392,1.402916l-0.7447205-1.2100601      c-0.1728878-0.272728-0.1662331-0.6249981,0.0133133-0.8977242c0.1662331-0.2392845,0.4255657-0.3724003,0.6915131-0.3724003      c0.2127838,0,0.418911,0.0798702,0.585144,0.2461033L33.7452888,33.585392z"/></g></g><g><g><path class="st19" d="M32.8808823,44.1577454v3.5574532c0,0.3525963-0.2859154,0.6383057-0.6383057,0.6383057H9.7944651      c-0.3524332,0-0.6383486-0.2857094-0.6383486-0.6383057v-3.5574532c0-0.352272,0.2859154-0.6448021,0.6383486-0.6448021      h22.4481125C32.5949669,43.5129433,32.8808823,43.8054733,32.8808823,44.1577454z"/></g></g><g><g><rect class="st19" height="0.5915557" width="23.9308949" x="9.1561165" y="50.0093422"/></g></g><g><g><rect class="st19" height="0.5915557" width="23.9308949" x="9.1561165" y="51.8562202"/></g></g></g><g><g><rect class="st19" height="0.5915557" width="23.9308949" x="9.1561165" y="53.7030983"/></g></g><g><g><rect class="st19" height="0.5915557" width="23.9308949" x="9.1561165" y="55.5499763"/></g></g><g><g><rect class="st19" height="0.5915557" width="23.9308949" x="9.1561165" y="57.3968582"/></g></g></g></svg>