<svg id="Capa_1" enable-background="new 0 0 512.174 512.174" height="512" viewBox="0 0 512.174 512.174" width="512" xmlns="http://www.w3.org/2000/svg"><g><g><path d="m50.087 0c-27.614 0-50 22.386-50 50v408.256l76.656-2.971 21.992-246.651-21.992-208.634z" fill="#19d2f5"/><path d="m412.05 0h-335.307v455.285l335.307-53.558z" fill="#00bff0"/></g><g><ellipse cx="227.273" cy="163.133" fill="none" rx="46.877" ry="46.877" transform="matrix(.383 -.924 .924 .383 -10.416 310.678)"/><circle cx="410.165" cy="163.133" fill="none" r="46.877"/><path d="m485.573 148.127c-7-35.236-38.146-61.883-75.408-61.883-24.725 0-46.746 11.743-60.82 29.931-8.123-6.963-18.71-11.097-30.239-11.097-11.62 0-22.398 4.368-30.615 11.602-14.056-18.478-36.263-30.436-61.218-30.436-37.262 0-68.408 26.647-75.408 61.883h-25.979v30.012h25.979c7 35.236 38.146 61.883 75.408 61.883 42.397 0 76.889-34.492 76.889-76.889 0-4.652-.445-9.198-1.243-13.624 1.152-7.678 7.276-14.419 16.186-14.419 7.575 0 14.186 5.285 15.768 12.426-1.045 5.044-1.597 10.267-1.597 15.617 0 42.397 34.492 76.889 76.889 76.889 37.262 0 68.408-26.647 75.408-61.883h26.514v-30.012zm-258.3 61.883c-25.848 0-46.877-21.029-46.877-46.877s21.029-46.877 46.877-46.877 46.877 21.029 46.877 46.877-21.029 46.877-46.877 46.877zm182.892 0c-25.848 0-46.877-21.029-46.877-46.877s21.029-46.877 46.877-46.877 46.877 21.029 46.877 46.877c-.001 25.848-21.029 46.877-46.877 46.877z" fill="#6e626c"/></g><g><g><g><path d="m512.087 337.723h-50.036v-14.271l26.616-7.155 23.42 7.155z" fill="#eb3d43"/><path d="m462.051 309.142h50.036v14.31h-50.036z" fill="#fc5a59"/></g></g></g><g><path d="m191.93 282.584c-15.416.001-30.45 5.408-42.337 15.222l-31.085 25.67 86.029 11.78-4.94-52.672z" fill="#fdad60"/><path d="m471.475 323.476-21.309-40.891-250.568-.001v40.892l168.263 25.562z" fill="#fd8b60"/></g><g><path d="m118.509 323.476 31.084 25.67c11.886 9.814 26.921 15.22 42.337 15.221h7.667v-40.891z" fill="#fd8b60"/><path d="m471.475 323.476h-271.877v40.891h250.568z" fill="#fc5a59"/></g><g><path d="m485.468 282.585h-35.302v40.891l14.941 20.446 20.361-20.446z" fill="#ffedb1"/></g><path d="m450.166 323.476v40.891l35.302-.055v-40.836z" fill="#ffdd8c"/><g><path d="m30.087 456.95c0 13.931 11.293 25.224 25.224 25.224h21.432v-50.448h-21.432c-13.931 0-25.224 11.293-25.224 25.224z" fill="none"/></g><g><path d="m55.394 421.726c-13.931 0-35.224 21.293-35.224 35.224 0 13.931 21.293 35.224 35.224 35.224l21.349-.579 18.495-36.31-18.495-32.979z" fill="#f1fafb"/><path d="m412.05 431.726-335.307-9.421v69.29l335.307-9.421z" fill="#ddf0fa"/></g><path d="m55.311 482.174c-13.931 0-25.224-11.293-25.224-25.224 0-13.931 11.293-25.224 25.224-25.224h21.432l16.487-15.197-16.487-14.802h-21.432c-30.45 0-55.224 24.773-55.224 55.224s24.773 55.224 55.224 55.224h21.432l9.156-12.662-9.156-17.338h-21.432z" fill="#00bff0"/><g fill="#00a9de"><path d="m76.743 401.727h335.224v30h-335.224z"/><path d="m76.743 482.174h335.224v30h-335.224z"/></g></g></svg>